<?xml version="1.0" encoding="UTF-8" standalone="no"?>
<!-- Created with Inkscape (http://www.inkscape.org/) -->

<svg
   xmlns:dc="http://purl.org/dc/elements/1.1/"
   xmlns:cc="http://creativecommons.org/ns#"
   xmlns:rdf="http://www.w3.org/1999/02/22-rdf-syntax-ns#"
   xmlns:svg="http://www.w3.org/2000/svg"
   xmlns="http://www.w3.org/2000/svg"
   xmlns:sodipodi="http://sodipodi.sourceforge.net/DTD/sodipodi-0.dtd"
   xmlns:inkscape="http://www.inkscape.org/namespaces/inkscape"
   width="98.203674mm"
   height="104.29301mm"
   viewBox="0 0 347.96578 369.54218"
   id="svg2"
   version="1.1"
   inkscape:version="0.91 r13725"
   sodipodi:docname="sparse_matlab.svg">
  <defs
     id="defs4" />
  <sodipodi:namedview
     id="base"
     pagecolor="#ffffff"
     bordercolor="#666666"
     borderopacity="1.0"
     inkscape:pageopacity="0.0"
     inkscape:pageshadow="2"
     inkscape:zoom="0.7"
     inkscape:cx="68.349658"
     inkscape:cy="165.06837"
     inkscape:document-units="px"
     inkscape:current-layer="g4146"
     showgrid="false"
     showguides="false"
     fit-margin-top="0"
     fit-margin-left="0"
     fit-margin-right="0"
     fit-margin-bottom="0"
     inkscape:window-width="1366"
     inkscape:window-height="717"
     inkscape:window-x="0"
     inkscape:window-y="25"
     inkscape:window-maximized="1" />
  <metadata
     id="metadata7">
    <rdf:RDF>
      <cc:Work
         rdf:about="">
        <dc:format>image/svg+xml</dc:format>
        <dc:type
           rdf:resource="http://purl.org/dc/dcmitype/StillImage" />
        <dc:title></dc:title>
      </cc:Work>
    </rdf:RDF>
  </metadata>
  <g
     inkscape:label="Layer 1"
     inkscape:groupmode="layer"
     id="layer1"
     transform="translate(242.9433,-356.8097)">
    <g
       transform="matrix(1.25,0,0,-1.25,-330.75893,731.1122)"
       inkscape:label="sparse"
       id="g4144">
      <g
         transform="scale(0.1,0.1)"
         id="g4146">
        <path
           inkscape:connector-curvature="0"
           id="path4152"
           style="fill:#ffffff;fill-opacity:1;fill-rule:nonzero;stroke:none"
           d="m 948.75,412.5 2527.5,0 0,2527.5 -2527.5,0 0,-2527.5 z" />
        <path
           inkscape:connector-curvature="0"
           id="path4154"
           style="fill:none;stroke:#262626;stroke-width:20.00250053;stroke-linecap:square;stroke-linejoin:round;stroke-miterlimit:10;stroke-dasharray:none;stroke-opacity:1"
           d="m 948.75,412.5 2527.5,0" />
        <path
           inkscape:connector-curvature="0"
           id="path4156"
           style="fill:none;stroke:#262626;stroke-width:20.00250053;stroke-linecap:square;stroke-linejoin:round;stroke-miterlimit:10;stroke-dasharray:none;stroke-opacity:1"
           d="m 948.75,2940 2527.5,0" />
        <path
           inkscape:connector-curvature="0"
           id="path4158"
           style="fill:none;stroke:#262626;stroke-width:20.00250053;stroke-linecap:square;stroke-linejoin:round;stroke-miterlimit:10;stroke-dasharray:none;stroke-opacity:1"
           d="m 948.75,412.5 0,25.199" />
        <path
           inkscape:connector-curvature="0"
           id="path4160"
           style="fill:none;stroke:#262626;stroke-width:20.00250053;stroke-linecap:square;stroke-linejoin:round;stroke-miterlimit:10;stroke-dasharray:none;stroke-opacity:1"
           d="m 1920.86,412.5 0,25.199" />
        <path
           inkscape:connector-curvature="0"
           id="path4162"
           style="fill:none;stroke:#262626;stroke-width:20.00250053;stroke-linecap:square;stroke-linejoin:round;stroke-miterlimit:10;stroke-dasharray:none;stroke-opacity:1"
           d="m 2892.98,412.5 0,25.199" />
        <path
           inkscape:connector-curvature="0"
           id="path4164"
           style="fill:none;stroke:#262626;stroke-width:20.00250053;stroke-linecap:square;stroke-linejoin:round;stroke-miterlimit:10;stroke-dasharray:none;stroke-opacity:1"
           d="m 948.75,2940 0,-25.2" />
        <path
           inkscape:connector-curvature="0"
           id="path4166"
           style="fill:none;stroke:#262626;stroke-width:20.00250053;stroke-linecap:square;stroke-linejoin:round;stroke-miterlimit:10;stroke-dasharray:none;stroke-opacity:1"
           d="m 1920.86,2940 0,-25.2" />
        <path
           inkscape:connector-curvature="0"
           id="path4168"
           style="fill:none;stroke:#262626;stroke-width:20.00250053;stroke-linecap:square;stroke-linejoin:round;stroke-miterlimit:10;stroke-dasharray:none;stroke-opacity:1"
           d="m 2892.98,2940 0,-25.2" />
        <g
           transform="scale(10,10)"
           id="g4170">
          <text
             id="text4172"
             style="font-variant:normal;font-weight:bold;font-size:14.25px;font-family:Helvetica;-inkscape-font-specification:Helvetica-Bold;writing-mode:lr-tb;fill:#262626;fill-opacity:1;fill-rule:nonzero;stroke:none"
             transform="matrix(1,0,0,-1,89.625,22.95)">
            <tspan
               id="tspan4174"
               sodipodi:role="line"
               y="0"
               x="0 92.336723 100.25972 189.54808 197.47108">01020</tspan>
          </text>
          <text
             id="text4176"
             style="font-variant:normal;font-weight:bold;font-size:15.75px;font-family:Helvetica;-inkscape-font-specification:Helvetica-Bold;writing-mode:lr-tb;fill:#262626;fill-opacity:1;fill-rule:nonzero;stroke:none"
             transform="matrix(1,0,0,-1,182.25,3.95)">
            <tspan
               id="tspan4178"
               sodipodi:role="line"
               y="0"
               x="0 9.62325 17.498249 21.876751 31.074751 35.453251 44.210251 52.967251">nz = 113</tspan>
          </text>
        </g>
        <path
           inkscape:connector-curvature="0"
           id="path4180"
           style="fill:none;stroke:#262626;stroke-width:20.00250053;stroke-linecap:square;stroke-linejoin:round;stroke-miterlimit:10;stroke-dasharray:none;stroke-opacity:1"
           d="m 948.75,2940 0,-2527.5" />
        <path
           inkscape:connector-curvature="0"
           id="path4182"
           style="fill:none;stroke:#262626;stroke-width:20.00250053;stroke-linecap:square;stroke-linejoin:round;stroke-miterlimit:10;stroke-dasharray:none;stroke-opacity:1"
           d="m 3476.25,2940 0,-2527.5" />
        <path
           inkscape:connector-curvature="0"
           id="path4184"
           style="fill:none;stroke:#262626;stroke-width:20.00250053;stroke-linecap:square;stroke-linejoin:round;stroke-miterlimit:10;stroke-dasharray:none;stroke-opacity:1"
           d="m 948.75,2940 25.199,0" />
        <path
           inkscape:connector-curvature="0"
           id="path4186"
           style="fill:none;stroke:#262626;stroke-width:20.00250053;stroke-linecap:square;stroke-linejoin:round;stroke-miterlimit:10;stroke-dasharray:none;stroke-opacity:1"
           d="m 948.75,2453.94 25.199,0" />
        <path
           inkscape:connector-curvature="0"
           id="path4188"
           style="fill:none;stroke:#262626;stroke-width:20.00250053;stroke-linecap:square;stroke-linejoin:round;stroke-miterlimit:10;stroke-dasharray:none;stroke-opacity:1"
           d="m 948.75,1967.89 25.199,0" />
        <path
           inkscape:connector-curvature="0"
           id="path4190"
           style="fill:none;stroke:#262626;stroke-width:20.00250053;stroke-linecap:square;stroke-linejoin:round;stroke-miterlimit:10;stroke-dasharray:none;stroke-opacity:1"
           d="m 948.75,1481.83 25.199,0" />
        <path
           inkscape:connector-curvature="0"
           id="path4192"
           style="fill:none;stroke:#262626;stroke-width:20.00250053;stroke-linecap:square;stroke-linejoin:round;stroke-miterlimit:10;stroke-dasharray:none;stroke-opacity:1"
           d="m 948.75,995.77 25.199,0" />
        <path
           inkscape:connector-curvature="0"
           id="path4194"
           style="fill:none;stroke:#262626;stroke-width:20.00250053;stroke-linecap:square;stroke-linejoin:round;stroke-miterlimit:10;stroke-dasharray:none;stroke-opacity:1"
           d="m 948.75,509.715 25.199,0" />
        <path
           inkscape:connector-curvature="0"
           id="path4196"
           style="fill:none;stroke:#262626;stroke-width:20.00250053;stroke-linecap:square;stroke-linejoin:round;stroke-miterlimit:10;stroke-dasharray:none;stroke-opacity:1"
           d="m 3476.25,2940 -25.2,0" />
        <path
           inkscape:connector-curvature="0"
           id="path4198"
           style="fill:none;stroke:#262626;stroke-width:20.00250053;stroke-linecap:square;stroke-linejoin:round;stroke-miterlimit:10;stroke-dasharray:none;stroke-opacity:1"
           d="m 3476.25,2453.94 -25.2,0" />
        <path
           inkscape:connector-curvature="0"
           id="path4200"
           style="fill:none;stroke:#262626;stroke-width:20.00250053;stroke-linecap:square;stroke-linejoin:round;stroke-miterlimit:10;stroke-dasharray:none;stroke-opacity:1"
           d="m 3476.25,1967.89 -25.2,0" />
        <path
           inkscape:connector-curvature="0"
           id="path4202"
           style="fill:none;stroke:#262626;stroke-width:20.00250053;stroke-linecap:square;stroke-linejoin:round;stroke-miterlimit:10;stroke-dasharray:none;stroke-opacity:1"
           d="m 3476.25,1481.83 -25.2,0" />
        <path
           inkscape:connector-curvature="0"
           id="path4204"
           style="fill:none;stroke:#262626;stroke-width:20.00250053;stroke-linecap:square;stroke-linejoin:round;stroke-miterlimit:10;stroke-dasharray:none;stroke-opacity:1"
           d="m 3476.25,995.77 -25.2,0" />
        <path
           inkscape:connector-curvature="0"
           id="path4206"
           style="fill:none;stroke:#262626;stroke-width:20.00250053;stroke-linecap:square;stroke-linejoin:round;stroke-miterlimit:10;stroke-dasharray:none;stroke-opacity:1"
           d="m 3476.25,509.715 -25.2,0" />
        <g
           transform="scale(10,10)"
           id="g4208">
          <text
             id="text4210"
             style="font-variant:normal;font-weight:bold;font-size:14.25px;font-family:Helvetica;-inkscape-font-specification:Helvetica-Bold;writing-mode:lr-tb;fill:#262626;fill-opacity:1;fill-rule:nonzero;stroke:none"
             transform="matrix(1,0,0,-1,79.575,289.125)">
            <tspan
               id="tspan4212"
               y="0"
               x="0">0</tspan>
            <tspan
               id="tspan4214"
               y="48.6059"
               x="0">5</tspan>
            <tspan
               id="tspan4216"
               sodipodi:role="line"
               y="97.2118"
               x="-9.75 -1.827">10</tspan>
            <tspan
               id="tspan4218"
               sodipodi:role="line"
               y="145.8177"
               x="-9.75 -1.827">15</tspan>
            <tspan
               id="tspan4220"
               sodipodi:role="line"
               y="194.4236"
               x="-9.75 -1.827">20</tspan>
            <tspan
               id="tspan4222"
               sodipodi:role="line"
               y="243.0295"
               x="-9.75 -1.827">25</tspan>
          </text>
        </g>
        <path
           inkscape:connector-curvature="0"
           id="path4224"
           style="fill:#0072bd;fill-opacity:1;fill-rule:nonzero;stroke:none"
           d="m 1069.29,2842.79 c 0,-12.89 -10.44,-23.33 -23.33,-23.33 -12.88,0 -23.33,10.44 -23.33,23.33 0,12.88 10.45,23.33 23.33,23.33 12.89,0 23.33,-10.45 23.33,-23.33" />
        <path
           inkscape:connector-curvature="0"
           id="path4226"
           style="fill:#0072bd;fill-opacity:1;fill-rule:nonzero;stroke:none"
           d="m 1069.29,2745.58 c 0,-12.89 -10.44,-23.33 -23.33,-23.33 -12.88,0 -23.33,10.44 -23.33,23.33 0,12.88 10.45,23.33 23.33,23.33 12.89,0 23.33,-10.45 23.33,-23.33" />
        <path
           inkscape:connector-curvature="0"
           id="path4228"
           style="fill:#0072bd;fill-opacity:1;fill-rule:nonzero;stroke:none"
           d="m 1069.29,2356.73 c 0,-12.88 -10.44,-23.33 -23.33,-23.33 -12.88,0 -23.33,10.45 -23.33,23.33 0,12.89 10.45,23.33 23.33,23.33 12.89,0 23.33,-10.44 23.33,-23.33" />
        <path
           inkscape:connector-curvature="0"
           id="path4230"
           style="fill:#0072bd;fill-opacity:1;fill-rule:nonzero;stroke:none"
           d="m 1166.5,2842.79 c 0,-12.89 -10.44,-23.33 -23.33,-23.33 -12.88,0 -23.33,10.44 -23.33,23.33 0,12.88 10.45,23.33 23.33,23.33 12.89,0 23.33,-10.45 23.33,-23.33" />
        <path
           inkscape:connector-curvature="0"
           id="path4232"
           style="fill:#0072bd;fill-opacity:1;fill-rule:nonzero;stroke:none"
           d="m 1166.5,2745.58 c 0,-12.89 -10.44,-23.33 -23.33,-23.33 -12.88,0 -23.33,10.44 -23.33,23.33 0,12.88 10.45,23.33 23.33,23.33 12.89,0 23.33,-10.45 23.33,-23.33" />
        <path
           inkscape:connector-curvature="0"
           id="path4234"
           style="fill:#0072bd;fill-opacity:1;fill-rule:nonzero;stroke:none"
           d="m 1166.5,2648.37 c 0,-12.89 -10.44,-23.34 -23.33,-23.34 -12.88,0 -23.33,10.45 -23.33,23.34 0,12.88 10.45,23.33 23.33,23.33 12.89,0 23.33,-10.45 23.33,-23.33" />
        <path
           inkscape:connector-curvature="0"
           id="path4236"
           style="fill:#0072bd;fill-opacity:1;fill-rule:nonzero;stroke:none"
           d="m 1166.5,2259.52 c 0,-12.89 -10.44,-23.33 -23.33,-23.33 -12.88,0 -23.33,10.44 -23.33,23.33 0,12.89 10.45,23.33 23.33,23.33 12.89,0 23.33,-10.44 23.33,-23.33" />
        <path
           inkscape:connector-curvature="0"
           id="path4238"
           style="fill:#0072bd;fill-opacity:1;fill-rule:nonzero;stroke:none"
           d="m 1263.72,2745.58 c 0,-12.89 -10.45,-23.33 -23.34,-23.33 -12.88,0 -23.33,10.44 -23.33,23.33 0,12.88 10.45,23.33 23.33,23.33 12.89,0 23.34,-10.45 23.34,-23.33" />
        <path
           inkscape:connector-curvature="0"
           id="path4240"
           style="fill:#0072bd;fill-opacity:1;fill-rule:nonzero;stroke:none"
           d="m 1263.72,2648.37 c 0,-12.89 -10.45,-23.34 -23.34,-23.34 -12.88,0 -23.33,10.45 -23.33,23.34 0,12.88 10.45,23.33 23.33,23.33 12.89,0 23.34,-10.45 23.34,-23.33" />
        <path
           inkscape:connector-curvature="0"
           id="path4242"
           style="fill:#0072bd;fill-opacity:1;fill-rule:nonzero;stroke:none"
           d="m 1263.72,2551.15 c 0,-12.88 -10.45,-23.33 -23.34,-23.33 -12.88,0 -23.33,10.45 -23.33,23.33 0,12.89 10.45,23.34 23.33,23.34 12.89,0 23.34,-10.45 23.34,-23.34" />
        <path
           inkscape:connector-curvature="0"
           id="path4244"
           style="fill:#0072bd;fill-opacity:1;fill-rule:nonzero;stroke:none"
           d="m 1263.72,2162.31 c 0,-12.89 -10.45,-23.33 -23.34,-23.33 -12.88,0 -23.33,10.44 -23.33,23.33 0,12.88 10.45,23.33 23.33,23.33 12.89,0 23.34,-10.45 23.34,-23.33" />
        <path
           inkscape:connector-curvature="0"
           id="path4246"
           style="fill:#0072bd;fill-opacity:1;fill-rule:nonzero;stroke:none"
           d="m 1360.93,2648.37 c 0,-12.89 -10.45,-23.34 -23.33,-23.34 -12.89,0 -23.33,10.45 -23.33,23.34 0,12.88 10.44,23.33 23.33,23.33 12.88,0 23.33,-10.45 23.33,-23.33" />
        <path
           inkscape:connector-curvature="0"
           id="path4248"
           style="fill:#0072bd;fill-opacity:1;fill-rule:nonzero;stroke:none"
           d="m 1360.93,2551.15 c 0,-12.88 -10.45,-23.33 -23.33,-23.33 -12.89,0 -23.33,10.45 -23.33,23.33 0,12.89 10.44,23.34 23.33,23.34 12.88,0 23.33,-10.45 23.33,-23.34" />
        <path
           inkscape:connector-curvature="0"
           id="path4250"
           style="fill:#0072bd;fill-opacity:1;fill-rule:nonzero;stroke:none"
           d="m 1360.93,2453.94 c 0,-12.88 -10.45,-23.33 -23.33,-23.33 -12.89,0 -23.33,10.45 -23.33,23.33 0,12.89 10.44,23.33 23.33,23.33 12.88,0 23.33,-10.44 23.33,-23.33" />
        <path
           inkscape:connector-curvature="0"
           id="path4252"
           style="fill:#0072bd;fill-opacity:1;fill-rule:nonzero;stroke:none"
           d="m 1360.93,2065.1 c 0,-12.89 -10.45,-23.33 -23.33,-23.33 -12.89,0 -23.33,10.44 -23.33,23.33 0,12.88 10.44,23.33 23.33,23.33 12.88,0 23.33,-10.45 23.33,-23.33" />
        <path
           inkscape:connector-curvature="0"
           id="path4254"
           style="fill:#0072bd;fill-opacity:1;fill-rule:nonzero;stroke:none"
           d="m 1458.14,2551.15 c 0,-12.88 -10.45,-23.33 -23.33,-23.33 -12.89,0 -23.33,10.45 -23.33,23.33 0,12.89 10.44,23.34 23.33,23.34 12.88,0 23.33,-10.45 23.33,-23.34" />
        <path
           inkscape:connector-curvature="0"
           id="path4256"
           style="fill:#0072bd;fill-opacity:1;fill-rule:nonzero;stroke:none"
           d="m 1458.14,2453.94 c 0,-12.88 -10.45,-23.33 -23.33,-23.33 -12.89,0 -23.33,10.45 -23.33,23.33 0,12.89 10.44,23.33 23.33,23.33 12.88,0 23.33,-10.44 23.33,-23.33" />
        <path
           inkscape:connector-curvature="0"
           id="path4258"
           style="fill:#0072bd;fill-opacity:1;fill-rule:nonzero;stroke:none"
           d="m 1458.14,2356.73 c 0,-12.88 -10.45,-23.33 -23.33,-23.33 -12.89,0 -23.33,10.45 -23.33,23.33 0,12.89 10.44,23.33 23.33,23.33 12.88,0 23.33,-10.44 23.33,-23.33" />
        <path
           inkscape:connector-curvature="0"
           id="path4260"
           style="fill:#0072bd;fill-opacity:1;fill-rule:nonzero;stroke:none"
           d="m 1458.14,1967.88 c 0,-12.88 -10.45,-23.33 -23.33,-23.33 -12.89,0 -23.33,10.45 -23.33,23.33 0,12.89 10.44,23.34 23.33,23.34 12.88,0 23.33,-10.45 23.33,-23.34" />
        <path
           inkscape:connector-curvature="0"
           id="path4262"
           style="fill:#0072bd;fill-opacity:1;fill-rule:nonzero;stroke:none"
           d="m 1555.35,2842.79 c 0,-12.89 -10.45,-23.33 -23.33,-23.33 -12.89,0 -23.33,10.44 -23.33,23.33 0,12.88 10.44,23.33 23.33,23.33 12.88,0 23.33,-10.45 23.33,-23.33" />
        <path
           inkscape:connector-curvature="0"
           id="path4264"
           style="fill:#0072bd;fill-opacity:1;fill-rule:nonzero;stroke:none"
           d="m 1555.35,2453.94 c 0,-12.88 -10.45,-23.33 -23.33,-23.33 -12.89,0 -23.33,10.45 -23.33,23.33 0,12.89 10.44,23.33 23.33,23.33 12.88,0 23.33,-10.44 23.33,-23.33" />
        <path
           inkscape:connector-curvature="0"
           id="path4266"
           style="fill:#0072bd;fill-opacity:1;fill-rule:nonzero;stroke:none"
           d="m 1555.35,2356.73 c 0,-12.88 -10.45,-23.33 -23.33,-23.33 -12.89,0 -23.33,10.45 -23.33,23.33 0,12.89 10.44,23.33 23.33,23.33 12.88,0 23.33,-10.44 23.33,-23.33" />
        <path
           inkscape:connector-curvature="0"
           id="path4268"
           style="fill:#0072bd;fill-opacity:1;fill-rule:nonzero;stroke:none"
           d="m 1555.35,2259.52 c 0,-12.89 -10.45,-23.33 -23.33,-23.33 -12.89,0 -23.33,10.44 -23.33,23.33 0,12.89 10.44,23.33 23.33,23.33 12.88,0 23.33,-10.44 23.33,-23.33" />
        <path
           inkscape:connector-curvature="0"
           id="path4270"
           style="fill:#0072bd;fill-opacity:1;fill-rule:nonzero;stroke:none"
           d="m 1555.35,1870.67 c 0,-12.88 -10.45,-23.33 -23.33,-23.33 -12.89,0 -23.33,10.45 -23.33,23.33 0,12.89 10.44,23.33 23.33,23.33 12.88,0 23.33,-10.44 23.33,-23.33" />
        <path
           inkscape:connector-curvature="0"
           id="path4272"
           style="fill:#0072bd;fill-opacity:1;fill-rule:nonzero;stroke:none"
           d="m 1652.56,2745.58 c 0,-12.89 -10.44,-23.33 -23.33,-23.33 -12.88,0 -23.33,10.44 -23.33,23.33 0,12.88 10.45,23.33 23.33,23.33 12.89,0 23.33,-10.45 23.33,-23.33" />
        <path
           inkscape:connector-curvature="0"
           id="path4274"
           style="fill:#0072bd;fill-opacity:1;fill-rule:nonzero;stroke:none"
           d="m 1652.56,2356.73 c 0,-12.88 -10.44,-23.33 -23.33,-23.33 -12.88,0 -23.33,10.45 -23.33,23.33 0,12.89 10.45,23.33 23.33,23.33 12.89,0 23.33,-10.44 23.33,-23.33" />
        <path
           inkscape:connector-curvature="0"
           id="path4276"
           style="fill:#0072bd;fill-opacity:1;fill-rule:nonzero;stroke:none"
           d="m 1652.56,2259.52 c 0,-12.89 -10.44,-23.33 -23.33,-23.33 -12.88,0 -23.33,10.44 -23.33,23.33 0,12.89 10.45,23.33 23.33,23.33 12.89,0 23.33,-10.44 23.33,-23.33" />
        <path
           inkscape:connector-curvature="0"
           id="path4278"
           style="fill:#0072bd;fill-opacity:1;fill-rule:nonzero;stroke:none"
           d="m 1652.56,2162.31 c 0,-12.89 -10.44,-23.33 -23.33,-23.33 -12.88,0 -23.33,10.44 -23.33,23.33 0,12.88 10.45,23.33 23.33,23.33 12.89,0 23.33,-10.45 23.33,-23.33" />
        <path
           inkscape:connector-curvature="0"
           id="path4280"
           style="fill:#0072bd;fill-opacity:1;fill-rule:nonzero;stroke:none"
           d="m 1652.56,1773.46 c 0,-12.88 -10.44,-23.33 -23.33,-23.33 -12.88,0 -23.33,10.45 -23.33,23.33 0,12.89 10.45,23.33 23.33,23.33 12.89,0 23.33,-10.44 23.33,-23.33" />
        <path
           inkscape:connector-curvature="0"
           id="path4282"
           style="fill:#0072bd;fill-opacity:1;fill-rule:nonzero;stroke:none"
           d="m 1749.77,2648.37 c 0,-12.89 -10.44,-23.34 -23.33,-23.34 -12.88,0 -23.33,10.45 -23.33,23.34 0,12.88 10.45,23.33 23.33,23.33 12.89,0 23.33,-10.45 23.33,-23.33" />
        <path
           inkscape:connector-curvature="0"
           id="path4284"
           style="fill:#0072bd;fill-opacity:1;fill-rule:nonzero;stroke:none"
           d="m 1749.77,2259.52 c 0,-12.89 -10.44,-23.33 -23.33,-23.33 -12.88,0 -23.33,10.44 -23.33,23.33 0,12.89 10.45,23.33 23.33,23.33 12.89,0 23.33,-10.44 23.33,-23.33" />
        <path
           inkscape:connector-curvature="0"
           id="path4286"
           style="fill:#0072bd;fill-opacity:1;fill-rule:nonzero;stroke:none"
           d="m 1749.77,2162.31 c 0,-12.89 -10.44,-23.33 -23.33,-23.33 -12.88,0 -23.33,10.44 -23.33,23.33 0,12.88 10.45,23.33 23.33,23.33 12.89,0 23.33,-10.45 23.33,-23.33" />
        <path
           inkscape:connector-curvature="0"
           id="path4288"
           style="fill:#0072bd;fill-opacity:1;fill-rule:nonzero;stroke:none"
           d="m 1749.77,2065.1 c 0,-12.89 -10.44,-23.33 -23.33,-23.33 -12.88,0 -23.33,10.44 -23.33,23.33 0,12.88 10.45,23.33 23.33,23.33 12.89,0 23.33,-10.45 23.33,-23.33" />
        <path
           inkscape:connector-curvature="0"
           id="path4290"
           style="fill:#0072bd;fill-opacity:1;fill-rule:nonzero;stroke:none"
           d="m 1749.77,1676.25 c 0,-12.89 -10.44,-23.33 -23.33,-23.33 -12.88,0 -23.33,10.44 -23.33,23.33 0,12.89 10.45,23.33 23.33,23.33 12.89,0 23.33,-10.44 23.33,-23.33" />
        <path
           inkscape:connector-curvature="0"
           id="path4292"
           style="fill:#0072bd;fill-opacity:1;fill-rule:nonzero;stroke:none"
           d="m 1846.99,2551.15 c 0,-12.88 -10.45,-23.33 -23.34,-23.33 -12.88,0 -23.33,10.45 -23.33,23.33 0,12.89 10.45,23.34 23.33,23.34 12.89,0 23.34,-10.45 23.34,-23.34" />
        <path
           inkscape:connector-curvature="0"
           id="path4294"
           style="fill:#0072bd;fill-opacity:1;fill-rule:nonzero;stroke:none"
           d="m 1846.99,2162.31 c 0,-12.89 -10.45,-23.33 -23.34,-23.33 -12.88,0 -23.33,10.44 -23.33,23.33 0,12.88 10.45,23.33 23.33,23.33 12.89,0 23.34,-10.45 23.34,-23.33" />
        <path
           inkscape:connector-curvature="0"
           id="path4296"
           style="fill:#0072bd;fill-opacity:1;fill-rule:nonzero;stroke:none"
           d="m 1846.99,2065.1 c 0,-12.89 -10.45,-23.33 -23.34,-23.33 -12.88,0 -23.33,10.44 -23.33,23.33 0,12.88 10.45,23.33 23.33,23.33 12.89,0 23.34,-10.45 23.34,-23.33" />
        <path
           inkscape:connector-curvature="0"
           id="path4298"
           style="fill:#0072bd;fill-opacity:1;fill-rule:nonzero;stroke:none"
           d="m 1846.99,1967.88 c 0,-12.88 -10.45,-23.33 -23.34,-23.33 -12.88,0 -23.33,10.45 -23.33,23.33 0,12.89 10.45,23.34 23.33,23.34 12.89,0 23.34,-10.45 23.34,-23.34" />
        <path
           inkscape:connector-curvature="0"
           id="path4300"
           style="fill:#0072bd;fill-opacity:1;fill-rule:nonzero;stroke:none"
           d="m 1846.99,1579.04 c 0,-12.89 -10.45,-23.33 -23.34,-23.33 -12.88,0 -23.33,10.44 -23.33,23.33 0,12.88 10.45,23.33 23.33,23.33 12.89,0 23.34,-10.45 23.34,-23.33" />
        <path
           inkscape:connector-curvature="0"
           id="path4302"
           style="fill:#0072bd;fill-opacity:1;fill-rule:nonzero;stroke:none"
           d="m 1944.2,2453.94 c 0,-12.88 -10.45,-23.33 -23.33,-23.33 -12.89,0 -23.34,10.45 -23.34,23.33 0,12.89 10.45,23.33 23.34,23.33 12.88,0 23.33,-10.44 23.33,-23.33" />
        <path
           inkscape:connector-curvature="0"
           id="path4304"
           style="fill:#0072bd;fill-opacity:1;fill-rule:nonzero;stroke:none"
           d="m 1944.2,2065.1 c 0,-12.89 -10.45,-23.33 -23.33,-23.33 -12.89,0 -23.34,10.44 -23.34,23.33 0,12.88 10.45,23.33 23.34,23.33 12.88,0 23.33,-10.45 23.33,-23.33" />
        <path
           inkscape:connector-curvature="0"
           id="path4306"
           style="fill:#0072bd;fill-opacity:1;fill-rule:nonzero;stroke:none"
           d="m 1944.2,1967.88 c 0,-12.88 -10.45,-23.33 -23.33,-23.33 -12.89,0 -23.34,10.45 -23.34,23.33 0,12.89 10.45,23.34 23.34,23.34 12.88,0 23.33,-10.45 23.33,-23.34" />
        <path
           inkscape:connector-curvature="0"
           id="path4308"
           style="fill:#0072bd;fill-opacity:1;fill-rule:nonzero;stroke:none"
           d="m 1944.2,1870.67 c 0,-12.88 -10.45,-23.33 -23.33,-23.33 -12.89,0 -23.34,10.45 -23.34,23.33 0,12.89 10.45,23.33 23.34,23.33 12.88,0 23.33,-10.44 23.33,-23.33" />
        <path
           inkscape:connector-curvature="0"
           id="path4310"
           style="fill:#0072bd;fill-opacity:1;fill-rule:nonzero;stroke:none"
           d="m 1944.2,1481.83 c 0,-12.89 -10.45,-23.33 -23.33,-23.33 -12.89,0 -23.34,10.44 -23.34,23.33 0,12.88 10.45,23.33 23.34,23.33 12.88,0 23.33,-10.45 23.33,-23.33" />
        <path
           inkscape:connector-curvature="0"
           id="path4312"
           style="fill:#0072bd;fill-opacity:1;fill-rule:nonzero;stroke:none"
           d="m 2041.41,2356.73 c 0,-12.88 -10.45,-23.33 -23.33,-23.33 -12.89,0 -23.33,10.45 -23.33,23.33 0,12.89 10.44,23.33 23.33,23.33 12.88,0 23.33,-10.44 23.33,-23.33" />
        <path
           inkscape:connector-curvature="0"
           id="path4314"
           style="fill:#0072bd;fill-opacity:1;fill-rule:nonzero;stroke:none"
           d="m 2041.41,1967.88 c 0,-12.88 -10.45,-23.33 -23.33,-23.33 -12.89,0 -23.33,10.45 -23.33,23.33 0,12.89 10.44,23.34 23.33,23.34 12.88,0 23.33,-10.45 23.33,-23.34" />
        <path
           inkscape:connector-curvature="0"
           id="path4316"
           style="fill:#0072bd;fill-opacity:1;fill-rule:nonzero;stroke:none"
           d="m 2041.41,1870.67 c 0,-12.88 -10.45,-23.33 -23.33,-23.33 -12.89,0 -23.33,10.45 -23.33,23.33 0,12.89 10.44,23.33 23.33,23.33 12.88,0 23.33,-10.44 23.33,-23.33" />
        <path
           inkscape:connector-curvature="0"
           id="path4318"
           style="fill:#0072bd;fill-opacity:1;fill-rule:nonzero;stroke:none"
           d="m 2041.41,1773.46 c 0,-12.88 -10.45,-23.33 -23.33,-23.33 -12.89,0 -23.33,10.45 -23.33,23.33 0,12.89 10.44,23.33 23.33,23.33 12.88,0 23.33,-10.44 23.33,-23.33" />
        <path
           inkscape:connector-curvature="0"
           id="path4320"
           style="fill:#0072bd;fill-opacity:1;fill-rule:nonzero;stroke:none"
           d="m 2041.41,1384.62 c 0,-12.89 -10.45,-23.34 -23.33,-23.34 -12.89,0 -23.33,10.45 -23.33,23.34 0,12.88 10.44,23.33 23.33,23.33 12.88,0 23.33,-10.45 23.33,-23.33" />
        <path
           inkscape:connector-curvature="0"
           id="path4322"
           style="fill:#0072bd;fill-opacity:1;fill-rule:nonzero;stroke:none"
           d="m 2138.62,2259.52 c 0,-12.89 -10.45,-23.33 -23.33,-23.33 -12.89,0 -23.33,10.44 -23.33,23.33 0,12.89 10.44,23.33 23.33,23.33 12.88,0 23.33,-10.44 23.33,-23.33" />
        <path
           inkscape:connector-curvature="0"
           id="path4324"
           style="fill:#0072bd;fill-opacity:1;fill-rule:nonzero;stroke:none"
           d="m 2138.62,1870.67 c 0,-12.88 -10.45,-23.33 -23.33,-23.33 -12.89,0 -23.33,10.45 -23.33,23.33 0,12.89 10.44,23.33 23.33,23.33 12.88,0 23.33,-10.44 23.33,-23.33" />
        <path
           inkscape:connector-curvature="0"
           id="path4326"
           style="fill:#0072bd;fill-opacity:1;fill-rule:nonzero;stroke:none"
           d="m 2138.62,1773.46 c 0,-12.88 -10.45,-23.33 -23.33,-23.33 -12.89,0 -23.33,10.45 -23.33,23.33 0,12.89 10.44,23.33 23.33,23.33 12.88,0 23.33,-10.44 23.33,-23.33" />
        <path
           inkscape:connector-curvature="0"
           id="path4328"
           style="fill:#0072bd;fill-opacity:1;fill-rule:nonzero;stroke:none"
           d="m 2138.62,1676.25 c 0,-12.89 -10.45,-23.33 -23.33,-23.33 -12.89,0 -23.33,10.44 -23.33,23.33 0,12.89 10.44,23.33 23.33,23.33 12.88,0 23.33,-10.44 23.33,-23.33" />
        <path
           inkscape:connector-curvature="0"
           id="path4330"
           style="fill:#0072bd;fill-opacity:1;fill-rule:nonzero;stroke:none"
           d="m 2138.62,1287.4 c 0,-12.88 -10.45,-23.33 -23.33,-23.33 -12.89,0 -23.33,10.45 -23.33,23.33 0,12.89 10.44,23.34 23.33,23.34 12.88,0 23.33,-10.45 23.33,-23.34" />
        <path
           inkscape:connector-curvature="0"
           id="path4332"
           style="fill:#0072bd;fill-opacity:1;fill-rule:nonzero;stroke:none"
           d="m 2235.83,2162.31 c 0,-12.89 -10.44,-23.33 -23.33,-23.33 -12.89,0 -23.33,10.44 -23.33,23.33 0,12.88 10.44,23.33 23.33,23.33 12.89,0 23.33,-10.45 23.33,-23.33" />
        <path
           inkscape:connector-curvature="0"
           id="path4334"
           style="fill:#0072bd;fill-opacity:1;fill-rule:nonzero;stroke:none"
           d="m 2235.83,1773.46 c 0,-12.88 -10.44,-23.33 -23.33,-23.33 -12.89,0 -23.33,10.45 -23.33,23.33 0,12.89 10.44,23.33 23.33,23.33 12.89,0 23.33,-10.44 23.33,-23.33" />
        <path
           inkscape:connector-curvature="0"
           id="path4336"
           style="fill:#0072bd;fill-opacity:1;fill-rule:nonzero;stroke:none"
           d="m 2235.83,1676.25 c 0,-12.89 -10.44,-23.33 -23.33,-23.33 -12.89,0 -23.33,10.44 -23.33,23.33 0,12.89 10.44,23.33 23.33,23.33 12.89,0 23.33,-10.44 23.33,-23.33" />
        <path
           inkscape:connector-curvature="0"
           id="path4338"
           style="fill:#0072bd;fill-opacity:1;fill-rule:nonzero;stroke:none"
           d="m 2235.83,1579.04 c 0,-12.89 -10.44,-23.33 -23.33,-23.33 -12.89,0 -23.33,10.44 -23.33,23.33 0,12.88 10.44,23.33 23.33,23.33 12.89,0 23.33,-10.45 23.33,-23.33" />
        <path
           inkscape:connector-curvature="0"
           id="path4340"
           style="fill:#0072bd;fill-opacity:1;fill-rule:nonzero;stroke:none"
           d="m 2235.83,1190.19 c 0,-12.88 -10.44,-23.33 -23.33,-23.33 -12.89,0 -23.33,10.45 -23.33,23.33 0,12.89 10.44,23.33 23.33,23.33 12.89,0 23.33,-10.44 23.33,-23.33" />
        <path
           inkscape:connector-curvature="0"
           id="path4342"
           style="fill:#0072bd;fill-opacity:1;fill-rule:nonzero;stroke:none"
           d="m 2333.04,2065.1 c 0,-12.89 -10.44,-23.33 -23.33,-23.33 -12.88,0 -23.33,10.44 -23.33,23.33 0,12.88 10.45,23.33 23.33,23.33 12.89,0 23.33,-10.45 23.33,-23.33" />
        <path
           inkscape:connector-curvature="0"
           id="path4344"
           style="fill:#0072bd;fill-opacity:1;fill-rule:nonzero;stroke:none"
           d="m 2333.04,1676.25 c 0,-12.89 -10.44,-23.33 -23.33,-23.33 -12.88,0 -23.33,10.44 -23.33,23.33 0,12.89 10.45,23.33 23.33,23.33 12.89,0 23.33,-10.44 23.33,-23.33" />
        <path
           inkscape:connector-curvature="0"
           id="path4346"
           style="fill:#0072bd;fill-opacity:1;fill-rule:nonzero;stroke:none"
           d="m 2333.04,1579.04 c 0,-12.89 -10.44,-23.33 -23.33,-23.33 -12.88,0 -23.33,10.44 -23.33,23.33 0,12.88 10.45,23.33 23.33,23.33 12.89,0 23.33,-10.45 23.33,-23.33" />
        <path
           inkscape:connector-curvature="0"
           id="path4348"
           style="fill:#0072bd;fill-opacity:1;fill-rule:nonzero;stroke:none"
           d="m 2333.04,1481.83 c 0,-12.89 -10.44,-23.33 -23.33,-23.33 -12.88,0 -23.33,10.44 -23.33,23.33 0,12.88 10.45,23.33 23.33,23.33 12.89,0 23.33,-10.45 23.33,-23.33" />
        <path
           inkscape:connector-curvature="0"
           id="path4350"
           style="fill:#0072bd;fill-opacity:1;fill-rule:nonzero;stroke:none"
           d="m 2333.04,1092.98 c 0,-12.88 -10.44,-23.33 -23.33,-23.33 -12.88,0 -23.33,10.45 -23.33,23.33 0,12.89 10.45,23.33 23.33,23.33 12.89,0 23.33,-10.44 23.33,-23.33" />
        <path
           inkscape:connector-curvature="0"
           id="path4352"
           style="fill:#0072bd;fill-opacity:1;fill-rule:nonzero;stroke:none"
           d="m 2430.25,1967.88 c 0,-12.88 -10.44,-23.33 -23.33,-23.33 -12.88,0 -23.33,10.45 -23.33,23.33 0,12.89 10.45,23.34 23.33,23.34 12.89,0 23.33,-10.45 23.33,-23.34" />
        <path
           inkscape:connector-curvature="0"
           id="path4354"
           style="fill:#0072bd;fill-opacity:1;fill-rule:nonzero;stroke:none"
           d="m 2430.25,1579.04 c 0,-12.89 -10.44,-23.33 -23.33,-23.33 -12.88,0 -23.33,10.44 -23.33,23.33 0,12.88 10.45,23.33 23.33,23.33 12.89,0 23.33,-10.45 23.33,-23.33" />
        <path
           inkscape:connector-curvature="0"
           id="path4356"
           style="fill:#0072bd;fill-opacity:1;fill-rule:nonzero;stroke:none"
           d="m 2430.25,1481.83 c 0,-12.89 -10.44,-23.33 -23.33,-23.33 -12.88,0 -23.33,10.44 -23.33,23.33 0,12.88 10.45,23.33 23.33,23.33 12.89,0 23.33,-10.45 23.33,-23.33" />
        <path
           inkscape:connector-curvature="0"
           id="path4358"
           style="fill:#0072bd;fill-opacity:1;fill-rule:nonzero;stroke:none"
           d="m 2430.25,1384.62 c 0,-12.89 -10.44,-23.34 -23.33,-23.34 -12.88,0 -23.33,10.45 -23.33,23.34 0,12.88 10.45,23.33 23.33,23.33 12.89,0 23.33,-10.45 23.33,-23.33" />
        <path
           inkscape:connector-curvature="0"
           id="path4360"
           style="fill:#0072bd;fill-opacity:1;fill-rule:nonzero;stroke:none"
           d="m 2430.25,995.77 c 0,-12.887 -10.44,-23.332 -23.33,-23.332 -12.88,0 -23.33,10.445 -23.33,23.332 0,12.88 10.45,23.33 23.33,23.33 12.89,0 23.33,-10.45 23.33,-23.33" />
        <path
           inkscape:connector-curvature="0"
           id="path4362"
           style="fill:#0072bd;fill-opacity:1;fill-rule:nonzero;stroke:none"
           d="m 2527.47,1870.67 c 0,-12.88 -10.45,-23.33 -23.33,-23.33 -12.89,0 -23.34,10.45 -23.34,23.33 0,12.89 10.45,23.33 23.34,23.33 12.88,0 23.33,-10.44 23.33,-23.33" />
        <path
           inkscape:connector-curvature="0"
           id="path4364"
           style="fill:#0072bd;fill-opacity:1;fill-rule:nonzero;stroke:none"
           d="m 2527.47,1481.83 c 0,-12.89 -10.45,-23.33 -23.33,-23.33 -12.89,0 -23.34,10.44 -23.34,23.33 0,12.88 10.45,23.33 23.34,23.33 12.88,0 23.33,-10.45 23.33,-23.33" />
        <path
           inkscape:connector-curvature="0"
           id="path4366"
           style="fill:#0072bd;fill-opacity:1;fill-rule:nonzero;stroke:none"
           d="m 2527.47,1384.62 c 0,-12.89 -10.45,-23.34 -23.33,-23.34 -12.89,0 -23.34,10.45 -23.34,23.34 0,12.88 10.45,23.33 23.34,23.33 12.88,0 23.33,-10.45 23.33,-23.33" />
        <path
           inkscape:connector-curvature="0"
           id="path4368"
           style="fill:#0072bd;fill-opacity:1;fill-rule:nonzero;stroke:none"
           d="m 2527.47,1287.4 c 0,-12.88 -10.45,-23.33 -23.33,-23.33 -12.89,0 -23.34,10.45 -23.34,23.33 0,12.89 10.45,23.34 23.34,23.34 12.88,0 23.33,-10.45 23.33,-23.34" />
        <path
           inkscape:connector-curvature="0"
           id="path4370"
           style="fill:#0072bd;fill-opacity:1;fill-rule:nonzero;stroke:none"
           d="m 2527.47,898.559 c 0,-12.887 -10.45,-23.332 -23.33,-23.332 -12.89,0 -23.34,10.445 -23.34,23.332 0,12.882 10.45,23.332 23.34,23.332 12.88,0 23.33,-10.45 23.33,-23.332" />
        <path
           inkscape:connector-curvature="0"
           id="path4372"
           style="fill:#0072bd;fill-opacity:1;fill-rule:nonzero;stroke:none"
           d="m 2624.68,1773.46 c 0,-12.88 -10.45,-23.33 -23.33,-23.33 -12.89,0 -23.33,10.45 -23.33,23.33 0,12.89 10.44,23.33 23.33,23.33 12.88,0 23.33,-10.44 23.33,-23.33" />
        <path
           inkscape:connector-curvature="0"
           id="path4374"
           style="fill:#0072bd;fill-opacity:1;fill-rule:nonzero;stroke:none"
           d="m 2624.68,1384.62 c 0,-12.89 -10.45,-23.34 -23.33,-23.34 -12.89,0 -23.33,10.45 -23.33,23.34 0,12.88 10.44,23.33 23.33,23.33 12.88,0 23.33,-10.45 23.33,-23.33" />
        <path
           inkscape:connector-curvature="0"
           id="path4376"
           style="fill:#0072bd;fill-opacity:1;fill-rule:nonzero;stroke:none"
           d="m 2624.68,1287.4 c 0,-12.88 -10.45,-23.33 -23.33,-23.33 -12.89,0 -23.33,10.45 -23.33,23.33 0,12.89 10.44,23.34 23.33,23.34 12.88,0 23.33,-10.45 23.33,-23.34" />
        <path
           inkscape:connector-curvature="0"
           id="path4378"
           style="fill:#0072bd;fill-opacity:1;fill-rule:nonzero;stroke:none"
           d="m 2624.68,1190.19 c 0,-12.88 -10.45,-23.33 -23.33,-23.33 -12.89,0 -23.33,10.45 -23.33,23.33 0,12.89 10.44,23.33 23.33,23.33 12.88,0 23.33,-10.44 23.33,-23.33" />
        <path
           inkscape:connector-curvature="0"
           id="path4380"
           style="fill:#0072bd;fill-opacity:1;fill-rule:nonzero;stroke:none"
           d="m 2624.68,801.348 c 0,-12.887 -10.45,-23.336 -23.33,-23.336 -12.89,0 -23.33,10.449 -23.33,23.336 0,12.882 10.44,23.332 23.33,23.332 12.88,0 23.33,-10.45 23.33,-23.332" />
        <path
           inkscape:connector-curvature="0"
           id="path4382"
           style="fill:#0072bd;fill-opacity:1;fill-rule:nonzero;stroke:none"
           d="m 2721.89,1676.25 c 0,-12.89 -10.45,-23.33 -23.33,-23.33 -12.89,0 -23.33,10.44 -23.33,23.33 0,12.89 10.44,23.33 23.33,23.33 12.88,0 23.33,-10.44 23.33,-23.33" />
        <path
           inkscape:connector-curvature="0"
           id="path4384"
           style="fill:#0072bd;fill-opacity:1;fill-rule:nonzero;stroke:none"
           d="m 2721.89,1287.4 c 0,-12.88 -10.45,-23.33 -23.33,-23.33 -12.89,0 -23.33,10.45 -23.33,23.33 0,12.89 10.44,23.34 23.33,23.34 12.88,0 23.33,-10.45 23.33,-23.34" />
        <path
           inkscape:connector-curvature="0"
           id="path4386"
           style="fill:#0072bd;fill-opacity:1;fill-rule:nonzero;stroke:none"
           d="m 2721.89,1190.19 c 0,-12.88 -10.45,-23.33 -23.33,-23.33 -12.89,0 -23.33,10.45 -23.33,23.33 0,12.89 10.44,23.33 23.33,23.33 12.88,0 23.33,-10.44 23.33,-23.33" />
        <path
           inkscape:connector-curvature="0"
           id="path4388"
           style="fill:#0072bd;fill-opacity:1;fill-rule:nonzero;stroke:none"
           d="m 2721.89,1092.98 c 0,-12.88 -10.45,-23.33 -23.33,-23.33 -12.89,0 -23.33,10.45 -23.33,23.33 0,12.89 10.44,23.33 23.33,23.33 12.88,0 23.33,-10.44 23.33,-23.33" />
        <path
           inkscape:connector-curvature="0"
           id="path4390"
           style="fill:#0072bd;fill-opacity:1;fill-rule:nonzero;stroke:none"
           d="m 2721.89,704.133 c 0,-12.883 -10.45,-23.332 -23.33,-23.332 -12.89,0 -23.33,10.449 -23.33,23.332 0,12.887 10.44,23.336 23.33,23.336 12.88,0 23.33,-10.449 23.33,-23.336" />
        <path
           inkscape:connector-curvature="0"
           id="path4392"
           style="fill:#0072bd;fill-opacity:1;fill-rule:nonzero;stroke:none"
           d="m 2819.1,1579.04 c 0,-12.89 -10.44,-23.33 -23.33,-23.33 -12.89,0 -23.33,10.44 -23.33,23.33 0,12.88 10.44,23.33 23.33,23.33 12.89,0 23.33,-10.45 23.33,-23.33" />
        <path
           inkscape:connector-curvature="0"
           id="path4394"
           style="fill:#0072bd;fill-opacity:1;fill-rule:nonzero;stroke:none"
           d="m 2819.1,1190.19 c 0,-12.88 -10.44,-23.33 -23.33,-23.33 -12.89,0 -23.33,10.45 -23.33,23.33 0,12.89 10.44,23.33 23.33,23.33 12.89,0 23.33,-10.44 23.33,-23.33" />
        <path
           inkscape:connector-curvature="0"
           id="path4396"
           style="fill:#0072bd;fill-opacity:1;fill-rule:nonzero;stroke:none"
           d="m 2819.1,1092.98 c 0,-12.88 -10.44,-23.33 -23.33,-23.33 -12.89,0 -23.33,10.45 -23.33,23.33 0,12.89 10.44,23.33 23.33,23.33 12.89,0 23.33,-10.44 23.33,-23.33" />
        <path
           inkscape:connector-curvature="0"
           id="path4398"
           style="fill:#0072bd;fill-opacity:1;fill-rule:nonzero;stroke:none"
           d="m 2819.1,995.77 c 0,-12.887 -10.44,-23.332 -23.33,-23.332 -12.89,0 -23.33,10.445 -23.33,23.332 0,12.88 10.44,23.33 23.33,23.33 12.89,0 23.33,-10.45 23.33,-23.33" />
        <path
           inkscape:connector-curvature="0"
           id="path4400"
           style="fill:#0072bd;fill-opacity:1;fill-rule:nonzero;stroke:none"
           d="m 2819.1,606.922 c 0,-12.883 -10.44,-23.332 -23.33,-23.332 -12.89,0 -23.33,10.449 -23.33,23.332 0,12.887 10.44,23.332 23.33,23.332 12.89,0 23.33,-10.445 23.33,-23.332" />
        <path
           inkscape:connector-curvature="0"
           id="path4402"
           style="fill:#0072bd;fill-opacity:1;fill-rule:nonzero;stroke:none"
           d="m 2916.31,1481.83 c 0,-12.89 -10.44,-23.33 -23.33,-23.33 -12.88,0 -23.33,10.44 -23.33,23.33 0,12.88 10.45,23.33 23.33,23.33 12.89,0 23.33,-10.45 23.33,-23.33" />
        <path
           inkscape:connector-curvature="0"
           id="path4404"
           style="fill:#0072bd;fill-opacity:1;fill-rule:nonzero;stroke:none"
           d="m 2916.31,1092.98 c 0,-12.88 -10.44,-23.33 -23.33,-23.33 -12.88,0 -23.33,10.45 -23.33,23.33 0,12.89 10.45,23.33 23.33,23.33 12.89,0 23.33,-10.44 23.33,-23.33" />
        <path
           inkscape:connector-curvature="0"
           id="path4406"
           style="fill:#0072bd;fill-opacity:1;fill-rule:nonzero;stroke:none"
           d="m 2916.31,995.77 c 0,-12.887 -10.44,-23.332 -23.33,-23.332 -12.88,0 -23.33,10.445 -23.33,23.332 0,12.88 10.45,23.33 23.33,23.33 12.89,0 23.33,-10.45 23.33,-23.33" />
        <path
           inkscape:connector-curvature="0"
           id="path4408"
           style="fill:#0072bd;fill-opacity:1;fill-rule:nonzero;stroke:none"
           d="m 2916.31,898.559 c 0,-12.887 -10.44,-23.332 -23.33,-23.332 -12.88,0 -23.33,10.445 -23.33,23.332 0,12.882 10.45,23.332 23.33,23.332 12.89,0 23.33,-10.45 23.33,-23.332" />
        <path
           inkscape:connector-curvature="0"
           id="path4410"
           style="fill:#0072bd;fill-opacity:1;fill-rule:nonzero;stroke:none"
           d="m 2916.31,509.711 c 0,-12.883 -10.44,-23.332 -23.33,-23.332 -12.88,0 -23.33,10.449 -23.33,23.332 0,12.887 10.45,23.332 23.33,23.332 12.89,0 23.33,-10.445 23.33,-23.332" />
        <path
           inkscape:connector-curvature="0"
           id="path4412"
           style="fill:#0072bd;fill-opacity:1;fill-rule:nonzero;stroke:none"
           d="m 3013.52,1384.62 c 0,-12.89 -10.44,-23.34 -23.33,-23.34 -12.88,0 -23.33,10.45 -23.33,23.34 0,12.88 10.45,23.33 23.33,23.33 12.89,0 23.33,-10.45 23.33,-23.33" />
        <path
           inkscape:connector-curvature="0"
           id="path4414"
           style="fill:#0072bd;fill-opacity:1;fill-rule:nonzero;stroke:none"
           d="m 3013.52,995.77 c 0,-12.887 -10.44,-23.332 -23.33,-23.332 -12.88,0 -23.33,10.445 -23.33,23.332 0,12.88 10.45,23.33 23.33,23.33 12.89,0 23.33,-10.45 23.33,-23.33" />
        <path
           inkscape:connector-curvature="0"
           id="path4416"
           style="fill:#0072bd;fill-opacity:1;fill-rule:nonzero;stroke:none"
           d="m 3013.52,898.559 c 0,-12.887 -10.44,-23.332 -23.33,-23.332 -12.88,0 -23.33,10.445 -23.33,23.332 0,12.882 10.45,23.332 23.33,23.332 12.89,0 23.33,-10.45 23.33,-23.332" />
        <path
           inkscape:connector-curvature="0"
           id="path4418"
           style="fill:#0072bd;fill-opacity:1;fill-rule:nonzero;stroke:none"
           d="m 3013.52,801.348 c 0,-12.887 -10.44,-23.336 -23.33,-23.336 -12.88,0 -23.33,10.449 -23.33,23.336 0,12.882 10.45,23.332 23.33,23.332 12.89,0 23.33,-10.45 23.33,-23.332" />
        <path
           inkscape:connector-curvature="0"
           id="path4420"
           style="fill:#0072bd;fill-opacity:1;fill-rule:nonzero;stroke:none"
           d="m 3110.74,1287.4 c 0,-12.88 -10.45,-23.33 -23.34,-23.33 -12.88,0 -23.33,10.45 -23.33,23.33 0,12.89 10.45,23.34 23.33,23.34 12.89,0 23.34,-10.45 23.34,-23.34" />
        <path
           inkscape:connector-curvature="0"
           id="path4422"
           style="fill:#0072bd;fill-opacity:1;fill-rule:nonzero;stroke:none"
           d="m 3110.74,898.559 c 0,-12.887 -10.45,-23.332 -23.34,-23.332 -12.88,0 -23.33,10.445 -23.33,23.332 0,12.882 10.45,23.332 23.33,23.332 12.89,0 23.34,-10.45 23.34,-23.332" />
        <path
           inkscape:connector-curvature="0"
           id="path4424"
           style="fill:#0072bd;fill-opacity:1;fill-rule:nonzero;stroke:none"
           d="m 3110.74,801.348 c 0,-12.887 -10.45,-23.336 -23.34,-23.336 -12.88,0 -23.33,10.449 -23.33,23.336 0,12.882 10.45,23.332 23.33,23.332 12.89,0 23.34,-10.45 23.34,-23.332" />
        <path
           inkscape:connector-curvature="0"
           id="path4426"
           style="fill:#0072bd;fill-opacity:1;fill-rule:nonzero;stroke:none"
           d="m 3110.74,704.133 c 0,-12.883 -10.45,-23.332 -23.34,-23.332 -12.88,0 -23.33,10.449 -23.33,23.332 0,12.887 10.45,23.336 23.33,23.336 12.89,0 23.34,-10.449 23.34,-23.336" />
        <path
           inkscape:connector-curvature="0"
           id="path4428"
           style="fill:#0072bd;fill-opacity:1;fill-rule:nonzero;stroke:none"
           d="m 3207.95,1190.19 c 0,-12.88 -10.45,-23.33 -23.33,-23.33 -12.89,0 -23.34,10.45 -23.34,23.33 0,12.89 10.45,23.33 23.34,23.33 12.88,0 23.33,-10.44 23.33,-23.33" />
        <path
           inkscape:connector-curvature="0"
           id="path4430"
           style="fill:#0072bd;fill-opacity:1;fill-rule:nonzero;stroke:none"
           d="m 3207.95,801.348 c 0,-12.887 -10.45,-23.336 -23.33,-23.336 -12.89,0 -23.34,10.449 -23.34,23.336 0,12.882 10.45,23.332 23.34,23.332 12.88,0 23.33,-10.45 23.33,-23.332" />
        <path
           inkscape:connector-curvature="0"
           id="path4432"
           style="fill:#0072bd;fill-opacity:1;fill-rule:nonzero;stroke:none"
           d="m 3207.95,704.133 c 0,-12.883 -10.45,-23.332 -23.33,-23.332 -12.89,0 -23.34,10.449 -23.34,23.332 0,12.887 10.45,23.336 23.34,23.336 12.88,0 23.33,-10.449 23.33,-23.336" />
        <path
           inkscape:connector-curvature="0"
           id="path4434"
           style="fill:#0072bd;fill-opacity:1;fill-rule:nonzero;stroke:none"
           d="m 3207.95,606.922 c 0,-12.883 -10.45,-23.332 -23.33,-23.332 -12.89,0 -23.34,10.449 -23.34,23.332 0,12.887 10.45,23.332 23.34,23.332 12.88,0 23.33,-10.445 23.33,-23.332" />
        <path
           inkscape:connector-curvature="0"
           id="path4436"
           style="fill:#0072bd;fill-opacity:1;fill-rule:nonzero;stroke:none"
           d="m 3305.16,1092.98 c 0,-12.88 -10.45,-23.33 -23.33,-23.33 -12.89,0 -23.33,10.45 -23.33,23.33 0,12.89 10.44,23.33 23.33,23.33 12.88,0 23.33,-10.44 23.33,-23.33" />
        <path
           inkscape:connector-curvature="0"
           id="path4438"
           style="fill:#0072bd;fill-opacity:1;fill-rule:nonzero;stroke:none"
           d="m 3305.16,704.133 c 0,-12.883 -10.45,-23.332 -23.33,-23.332 -12.89,0 -23.33,10.449 -23.33,23.332 0,12.887 10.44,23.336 23.33,23.336 12.88,0 23.33,-10.449 23.33,-23.336" />
        <path
           inkscape:connector-curvature="0"
           id="path4440"
           style="fill:#0072bd;fill-opacity:1;fill-rule:nonzero;stroke:none"
           d="m 3305.16,606.922 c 0,-12.883 -10.45,-23.332 -23.33,-23.332 -12.89,0 -23.33,10.449 -23.33,23.332 0,12.887 10.44,23.332 23.33,23.332 12.88,0 23.33,-10.445 23.33,-23.332" />
        <path
           inkscape:connector-curvature="0"
           id="path4442"
           style="fill:#0072bd;fill-opacity:1;fill-rule:nonzero;stroke:none"
           d="m 3305.16,509.711 c 0,-12.883 -10.45,-23.332 -23.33,-23.332 -12.89,0 -23.33,10.449 -23.33,23.332 0,12.887 10.44,23.332 23.33,23.332 12.88,0 23.33,-10.445 23.33,-23.332" />
        <path
           inkscape:connector-curvature="0"
           id="path4444"
           style="fill:#0072bd;fill-opacity:1;fill-rule:nonzero;stroke:none"
           d="m 3402.37,995.77 c 0,-12.887 -10.45,-23.332 -23.33,-23.332 -12.89,0 -23.33,10.445 -23.33,23.332 0,12.88 10.44,23.33 23.33,23.33 12.88,0 23.33,-10.45 23.33,-23.33" />
        <path
           inkscape:connector-curvature="0"
           id="path4446"
           style="fill:#0072bd;fill-opacity:1;fill-rule:nonzero;stroke:none"
           d="m 3402.37,606.922 c 0,-12.883 -10.45,-23.332 -23.33,-23.332 -12.89,0 -23.33,10.449 -23.33,23.332 0,12.887 10.44,23.332 23.33,23.332 12.88,0 23.33,-10.445 23.33,-23.332" />
        <path
           inkscape:connector-curvature="0"
           id="path4448"
           style="fill:#0072bd;fill-opacity:1;fill-rule:nonzero;stroke:none"
           d="m 3402.37,509.711 c 0,-12.883 -10.45,-23.332 -23.33,-23.332 -12.89,0 -23.33,10.449 -23.33,23.332 0,12.887 10.44,23.332 23.33,23.332 12.88,0 23.33,-10.445 23.33,-23.332" />
      </g>
    </g>
  </g>
</svg>
