<?xml version="1.0" encoding="UTF-8" standalone="no"?>
<!-- Created with Inkscape (http://www.inkscape.org/) -->

<svg
   xmlns:dc="http://purl.org/dc/elements/1.1/"
   xmlns:cc="http://creativecommons.org/ns#"
   xmlns:rdf="http://www.w3.org/1999/02/22-rdf-syntax-ns#"
   xmlns:svg="http://www.w3.org/2000/svg"
   xmlns="http://www.w3.org/2000/svg"
   xmlns:sodipodi="http://sodipodi.sourceforge.net/DTD/sodipodi-0.dtd"
   xmlns:inkscape="http://www.inkscape.org/namespaces/inkscape"
   width="137.7166mm"
   height="187.67778mm"
   viewBox="0 0 487.9722 665.00001"
   id="svg2"
   version="1.1"
   inkscape:version="0.91 r13725"
   sodipodi:docname="sparse.svg">
  <defs
     id="defs4" />
  <sodipodi:namedview
     id="base"
     pagecolor="#ffffff"
     bordercolor="#666666"
     borderopacity="1.0"
     inkscape:pageopacity="0.0"
     inkscape:pageshadow="2"
     inkscape:zoom="0.7"
     inkscape:cx="54.452789"
     inkscape:cy="467.37481"
     inkscape:document-units="px"
     inkscape:current-layer="layer1"
     showgrid="false"
     fit-margin-top="0"
     fit-margin-left="0"
     fit-margin-right="0"
     fit-margin-bottom="0"
     inkscape:window-width="1920"
     inkscape:window-height="1016"
     inkscape:window-x="0"
     inkscape:window-y="27"
     inkscape:window-maximized="1" />
  <metadata
     id="metadata7">
    <rdf:RDF>
      <cc:Work
         rdf:about="">
        <dc:format>image/svg+xml</dc:format>
        <dc:type
           rdf:resource="http://purl.org/dc/dcmitype/StillImage" />
        <dc:title></dc:title>
      </cc:Work>
    </rdf:RDF>
  </metadata>
  <g
     inkscape:label="Layer 1"
     inkscape:groupmode="layer"
     id="layer1"
     transform="translate(-143.967,406.91727)">
    <g
       id="g4205"
       transform="translate(141.42136,-374.76659)">
      <path
         style="fill:#cbcbcb"
         d="m 3.5178308,565.84932 0,-67 67.0000002,0 66.999999,0 0,67 0,67 -66.999999,0 -67.0000002,0 0,-67 z m 129.4999992,64 c -0.35619,-0.57633 -5.67705,-1 -12.55902,-1 -7.29399,0 -11.94098,-0.38916 -11.94098,-1 0,-0.60391 4.20748,-1 10.62244,-1 9.3288,0 10.47084,-0.18268 9.37756,-1.5 -0.92529,-1.1149 -3.39568,-1.5 -9.62244,-1.5 -4.91837,0 -8.37756,-0.41291 -8.37756,-1 0,-0.57349 3.05166,-1 7.15499,-1 7.09164,0 7.13896,-0.0177 5.34501,-2 -1.28094,-1.41543 -3.07997,-2 -6.15499,-2 -2.38975,0 -4.34501,-0.45 -4.34501,-1 0,-0.55 1.42844,-1 3.17431,-1 l 3.17432,0 -2.34863,-2.5 c -2.11716,-2.25361 -3.11988,-2.5 -10.17431,-2.5 -4.55046,0 -7.825689,-0.41852 -7.825689,-1 0,-0.566 2.874149,-1 6.622439,-1 5.77324,0 6.46281,-0.19235 5.37756,-1.5 -1.05893,-1.27593 -6.00679,-1.5 -33.122444,-1.5 -20.585037,0 -31.877555,-0.35425 -31.877555,-1 0,-0.64493 10.891438,-1 30.674314,-1 l 30.674315,0 -2.34863,-2.5 -2.34863,-2.5 -25.325683,0 c -16.217124,0 -25.325686,-0.35966 -25.325686,-1 0,-0.63907 8.718329,-1 24.154988,-1 24.091642,0 24.150242,-0.005 22.345012,-2 -1.37992,-1.52479 -3.07997,-2 -7.15499,-2 -2.939754,0 -5.34501,-0.45 -5.34501,-1 0,-0.55 1.884191,-1 4.187091,-1 l 4.187089,0 -2.87418,-3 c -2.846554,-2.97116 -2.978122,-3 -13.687091,-3 -6.541939,0 -10.812909,-0.39499 -10.812909,-1 0,-0.59776 3.891438,-1 9.674314,-1 l 9.674314,0 -2.348628,-2.5 c -1.875925,-1.99683 -3.319883,-2.5 -7.174314,-2.5 -2.654127,0 -4.825686,-0.45 -4.825686,-1 0,-0.55 1.644744,-1 3.654988,-1 3.591645,0 3.62362,-0.0347 1.845012,-2 -1.623774,-1.79425 -3.079967,-2 -14.154988,-2 -7.563341,0 -12.345012,-0.38734 -12.345012,-1 0,-0.6069 4.384996,-1 11.154988,-1 11.091645,0 11.14471,-0.0114 9.345012,-2 -1.474161,-1.62893 -3.079967,-2 -8.654988,-2 -3.896675,0 -6.845012,-0.43073 -6.845012,-1 0,-0.55 2.544744,-1 5.654988,-1 5.591645,0 5.634714,-0.0224 3.845012,-2 -1.696991,-1.87515 -3.079967,-2 -22.154988,-2 -12.896675,0 -20.345012,-0.3661 -20.345012,-1 0,-0.6319 7.058105,-1 19.174314,-1 l 19.174314,0 -2.348628,-2.5 c -2.196146,-2.33769 -2.98655,-2.5 -12.174314,-2.5 -5.883791,0 -9.825686,-0.40118 -9.825686,-1 0,-0.58964 3.551663,-1 8.654988,-1 8.591645,0 8.641741,-0.0146 6.845012,-2 -1.576491,-1.742 -3.079967,-2 -11.654988,-2 -5.896675,0 -9.845012,-0.40105 -9.845012,-1 0,-0.58964 3.551663,-1 8.654988,-1 8.591645,0 8.641741,-0.0146 6.845012,-2 -1.335538,-1.47575 -3.079967,-2 -6.654988,-2 -2.664756,0 -4.845012,-0.45 -4.845012,-1 0,-0.55 1.653441,-1 3.674314,-1 l 3.674314,0 -2.348628,-2.5 c -2.161128,-2.30042 -3.053216,-2.5 -11.174314,-2.5 -5.217124,0 -8.825686,-0.40887 -8.825686,-1 0,-0.5798 3.224771,-1 7.674314,-1 l 7.674314,0 -2.348628,-2.5 c -1.803188,-1.91941 -3.353216,-2.5 -6.674314,-2.5 -2.379127,0 -4.325686,-0.45 -4.325686,-1 0,-0.55 1.419744,-1 3.154988,-1 3.091645,0 3.118649,-0.0402 1.345012,-2 -1.516967,-1.67623 -3.079967,-2 -9.654988,-2 -4.563341,0 -7.8450122,-0.41831 -7.8450122,-1 0,-0.56649 2.8849962,-1 6.6549882,-1 6.591645,0 6.63776,-0.019 4.845012,-2 -1.212148,-1.33941 -3.079967,-2 -5.654988,-2 -2.114756,0 -3.845012,-0.45 -3.845012,-1 0,-0.55 1.203441,-1 2.674314,-1 l 2.674314,0 -2.348628,-2.5 c -1.430526,-1.52273 -3.453216,-2.5 -5.1743142,-2.5 l -2.825686,0 0,61.5 0,61.5 64.0590172,0 c 42.451362,0 63.850552,-0.33731 63.440982,-1 z m 2.5,-65 0,-64 -61.499999,0 -61.5,0 0,2.84501 c 0,1.57502 0.892785,3.65297 2,4.65499 1.941214,1.75677 2,1.74663 2,-0.34501 0,-1.18525 0.45,-2.15499 1,-2.15499 0.55,0 1,1.49656 1,3.32569 0,2.25443 0.805289,4.08221 2.5,5.67431 l 2.5,2.34863 0,-6.67432 c 0,-3.78287 0.433219,-6.67431 1,-6.67431 0.581687,0 1,3.28167 1,7.84501 0,6.57502 0.32377,8.13802 2,9.65499 1.959847,1.77364 2,1.74663 2,-1.34501 0,-1.73525 0.45,-3.15499 1,-3.15499 0.55,0 1,1.94656 1,4.32569 0,3.32109 0.580595,4.87112 2.5,6.67431 l 2.5,2.34863 0,-7.67432 c 0,-4.44954 0.420203,-7.67431 1,-7.67431 0.59113,0 1,3.60856 1,8.82569 0,8.12109 0.199585,9.01318 2.5,11.17431 l 2.5,2.34863 0,-3.17432 c 0,-1.74587 0.45,-3.17431 1,-3.17431 0.55,0 1,1.95526 1,4.34501 0,3.07502 0.584574,4.87405 2,6.15499 1.985363,1.79673 2,1.74663 2,-6.84501 0,-5.10333 0.41036,-8.65499 1,-8.65499 0.59895,0 1,3.94834 1,9.84501 0,8.57502 0.257997,10.0785 2,11.65499 1.985363,1.79673 2,1.74663 2,-6.84501 0,-5.10333 0.41036,-8.65499 1,-8.65499 0.59895,0 1,3.94834 1,9.84501 0,8.57502 0.257997,10.0785 2,11.65499 1.993022,1.80366 2,1.74663 2,-16.34501 0,-11.43666 0.370054,-18.15499 1,-18.15499 0.63217,0 1,7.10856 1,19.32569 0,19.32109 5.94e-4,19.32624 2.5,21.67431 l 2.5,2.34863 0,-5.67432 c 0,-3.12087 0.45,-5.67431 1,-5.67431 0.569272,0 1,2.94834 1,6.84501 0,5.57502 0.371071,7.18083 2,8.65499 1.988643,1.7997 2,1.74663 2,-9.34501 0,-6.76999 0.393097,-11.15499 1,-11.15499 0.612664,0 1,4.78167 1,12.34501 0,11.07502 0.20575,12.53122 2,14.15499 1.96534,1.77861 2,1.74663 2,-1.84501 0,-2.01025 0.45,-3.65499 1,-3.65499 0.55,0 1,2.17156 1,4.82569 0,3.85443 0.503169,5.29839 2.5,7.17431 l 2.5,2.34863 0,-9.17432 c 0,-5.44954 0.406,-9.17431 1,-9.17431 0.602023,0 1,4.1043 1,10.31291 0,10.15341 0.0464,10.35736 3,13.18709 l 3,2.87418 0,-4.18709 c 0,-2.3029 0.45,-4.18709 1,-4.18709 0.55,0 1,2.40526 1,5.34501 0,4.07502 0.47521,5.77507 2,7.15499 1.994409,1.80491 1.999999,1.74663 1.999999,-20.84501 0,-14.43666 0.36276,-22.65499 1,-22.65499 0.63869,0 1,8.60856 1,23.82569 l 0,23.82568 2.5,2.34863 2.5,2.34863 0,-30.17432 c 0,-19.44954 0.35543,-30.17431 1,-30.17431 0.64542,0 1,11.12585 1,31.37756 0,26.6712 0.22499,31.56427 1.5,32.62244 1.30765,1.08525 1.5,0.39568 1.5,-5.37756 0,-3.74829 0.434,-6.62244 1,-6.62244 0.58148,0 1,3.27523 1,7.82569 0,7.05443 0.24639,8.05715 2.5,10.17431 l 2.5,2.34863 0,-3.17432 c 0,-1.74587 0.45,-3.17431 1,-3.17431 0.55,0 1,1.95526 1,4.34501 0,3.07502 0.58457,4.87405 2,6.15499 1.98096,1.79275 2,1.74663 2,-4.84501 0,-3.76999 0.43351,-6.65499 1,-6.65499 0.58204,0 1,3.29252 1,7.87756 0,5.78232 0.39896,8.20866 1.5,9.12244 1.31732,1.09328 1.5,-0.0488 1.5,-9.37756 0,-6.41496 0.39609,-10.62244 1,-10.62244 0.61033,0 1,4.61111 1,11.83333 0,10.38361 0.35229,13.16667 1.66667,13.16667 0.18333,0 0.33333,-28.8 0.33333,-64 z M 8.5178308,505.47176 c 0,-0.20765 -0.675,-0.93775 -1.5,-1.62244 -1.228508,-1.01957 -1.5,-0.95124 -1.5,0.37756 0,0.89234 0.675,1.62244 1.5,1.62244 0.825,0 1.5,-0.1699 1.5,-0.37756 z m 2.0000002,-3.12244 c 0,-0.825 -0.7301002,-1.5 -1.6224452,-1.5 -1.32879,0 -1.397126,0.27149 -0.377555,1.5 0.684689,0.825 1.414789,1.5 1.6224452,1.5 0.207655,0 0.377555,-0.675 0.377555,-1.5 z m 169.999999,63.5 0,-67 67.5,0 67.5,0 0,67 0,67 -67.5,0 -67.5,0 0,-67 z m 97,60.5 0,-4.5 5.5,0 5.5,0 0,4.5 0,4.5 4,0 c 3.77778,0 4,-0.16667 4,-3 0,-2.66667 0.33333,-3 3,-3 2.53333,0 3,-0.38889 3,-2.5 0,-2.25 -0.4,-2.5 -4,-2.5 l -4,0 0,-5 0,-5 4.5,0 4.5,0 0,4.5 c 0,3.83333 0.2963,4.5 2,4.5 1.33333,0 2,-0.66667 2,-2 0,-1.55556 0.66667,-2 3,-2 2.7619,0 3,-0.27778 3,-3.5 l 0,-3.5 -5.5,0 -5.5,0 0,-6.5 0,-6.5 5.5,0 5.5,0 0,-47 0,-47 -38.5,0 -38.5,0 0,4.5 0,4.5 -10.5,0 -10.5,0 0,-4.5 0,-4.5 -12.5,0 -12.5,0 0,3.5 c 0,3.41667 -0.0952,3.5 -4,3.5 l -4,0 0,13 0,13 4.5,0 4.5,0 0,10 0,10 -4.5,0 -4.5,0 0,38.5 0,38.5 47.5,0 47.5,0 0,-4.5 z m -51,-7.5 0,-7 5,0 5,0 0,7 0,7 -5,0 -5,0 0,-7 z m 44,-9.5 0,-7.5 4,0 4,0 0,7.5 0,7.5 -4,0 -4,0 0,-7.5 z m -67,-2 0,-6.5 5.5,0 5.5,0 0,6.5 0,6.5 -5.5,0 -5.5,0 0,-6.5 z m 57,-5 0,-7.5 4,0 4,0 0,7.5 0,7.5 -4,0 -4,0 0,-7.5 z m 20,1.5 0,-6 5.5,0 5.5,0 0,6 0,6 -5.5,0 -5.5,0 0,-6 z m -95,-7 0,-7 5,0 5,0 0,7 0,7 -5,0 -5,0 0,-7 z m 61,-1.5 0,-8.5 6,0 6,0 0,8.5 0,8.5 -6,0 -6,0 0,-8.5 z m 24,-2.5 0,-4 4.5,0 4.5,0 0,4 0,4 -4.5,0 -4.5,0 0,-4 z m 13,0 0,-4 8,0 8,0 0,4 0,4 -8,0 -8,0 0,-4 z m -24,-7 0,-7 7.5,0 7.5,0 0,4 c 0,3.77778 -0.16667,4 -3,4 -2.66667,0 -3,0.33333 -3,3 0,2.88889 -0.16667,3 -4.5,3 l -4.5,0 0,-7 z m -26,0 c 0,-4.88889 -0.0667,-5 -3,-5 l -3,0 0,-6.5 0,-6.5 -3.5,0 c -3.33333,0 -3.5,-0.16667 -3.5,-3.5 0,-3.48148 0.0238,-3.5 4.5,-3.5 3.33333,0 4.5,0.38889 4.5,1.5 0,2.4056 3.69395,1.77159 4.36971,-0.75 0.33164,-1.2375 0.60913,-2.56603 0.61664,-2.95228 0.008,-0.38626 -2.79885,-0.83626 -6.23635,-1 -5.98979,-0.28532 -6.26317,-0.41221 -6.56642,-3.04772 -0.17403,-1.5125 0.16347,-2.75 0.75,-2.75 0.58653,0 1.06642,-1.35 1.06642,-3 0,-2.53333 0.38889,-3 2.5,-3 1.83333,0 2.5,-0.53333 2.5,-2 0,-1.46667 0.66667,-2 2.5,-2 1.55556,0 2.5,-0.56667 2.5,-1.5 0,-1.04762 1.05556,-1.5 3.5,-1.5 l 3.5,0 0,7 c 0,6.26239 0.20453,7 1.94098,7 1.06754,0 2.2191,-0.45 2.55902,-1 0.33992,-0.55 1.49148,-1 2.55902,-1 1.06754,0 1.94098,-0.675 1.94098,-1.5 0,-1.04762 -1.05556,-1.5 -3.5,-1.5 -3.41667,0 -3.5,-0.0952 -3.5,-4 l 0,-4 4.5,0 c 4.13333,0 4.5,0.2037 4.5,2.5 0,2.41026 0.23333,2.5 6.5,2.5 l 6.5,0 0,4 0,4 5,0 5,0 0,5.5 0,5.5 -6,0 -6,0 0,-4.5 0,-4.5 -4,0 c -3.77778,0 -4,0.16667 -4,3 0,2 -0.5,3 -1.5,3 -0.825,0 -1.5,0.87413 -1.5,1.9425 0,1.5704 0.81413,2.00141 4.25,2.25 l 4.25,0.3075 0.2999,5.75 0.29991,5.75 -7.04991,0 -7.0499,0 0,-4.5 c 0,-3.83333 -0.2963,-4.5 -2,-4.5 -1.11111,0 -2,0.66667 -2,1.5 0,1.04762 -1.05556,1.5 -3.5,1.5 -3.41667,0 -3.5,0.0952 -3.5,4 l 0,4 5,0 5,0 0,6 0,6 -6,0 -6,0 0,-5 z m -29,-3.5 0,-6.5 5,0 5,0 0,6.5 0,6.5 -5,0 -5,0 0,-6.5 z m 73,1.5 0,-4 6.5,0 6.5,0 0,4 0,4 -6.5,0 -6.5,0 0,-4 z m -93,-11 0,-8 4.5,0 4.5,0 0,8 0,8 -4.5,0 -4.5,0 0,-8 z m 86,-1.5 0,-5.5 7.5,0 7.5,0 0,5.5 0,5.5 -7.5,0 -7.5,0 0,-5.5 z m -76,-12 0,-7.5 4.5,0 4.5,0 0,7.5 0,7.5 -4.5,0 -4.5,0 0,-7.5 z m 99,-9.5 0,-4 8,0 8,0 0,4 0,4 -8,0 -8,0 0,-4 z m -79,-11 0,-5 5.5,0 5.5,0 0,5 0,5 -5.5,0 -5.5,0 0,-5 z m -10,-11 0,-5 5,0 5,0 0,5 0,5 -5,0 -5,0 0,-5 z m 77,0.5 0,-4.5 6,0 6,0 0,4.5 0,4.5 -6,0 -6,0 0,-4.5 z m -24,-3.5 0,-4 7,0 7,0 0,4 0,4 -7,0 -7,0 0,-4 z m -66,-8 0,-6 6,0 6,0 0,6 0,6 -6,0 -6,0 0,-6 z m 42,-0.5 0,-4.5 7.5,0 7.5,0 0,4.5 0,4.5 -7.5,0 -7.5,0 0,-4.5 z m 39,-9.5 0,-5 6.5,0 6.5,0 0,5 0,5 -6.5,0 -6.5,0 0,-5 z m -25,0 0,-4 7.5,0 7.5,0 0,4 0,4 -7.5,0 -7.5,0 0,-4 z M 3.1762908,437.18851 c -0.841889,-25.13777 -0.840675,-72.46369 0.00248,-96.58919 l 0.655286,-18.75 66.8418882,0 66.841885,0 0,67.5 0,67.5 -66.841537,0 -66.8415392,0 -0.658461,-19.66081 z m 79.3415402,-8.59406 c 0,-0.14018 -17.325,-17.57549 -38.5,-38.74513 l -38.5000002,-38.49026 0,38.74513 0,38.74513 38.5000002,0 c 21.175,0 38.5,-0.11469 38.5,-0.25487 z m 96.999999,-39.24513 0,-67.5 67,0 67,0 0,67.5 0,67.5 -67,0 -67,0 0,-67.5 z m 79,39.24513 c 0,-0.14018 -17.325,-17.57549 -38.5,-38.74513 l -38.5,-38.49026 0,38.74513 0,38.74513 38.5,0 c 21.175,0 38.5,-0.11469 38.5,-0.25487 z m 53,-52.74513 0,-51 -51.24632,0 -51.24633,0 50.99265,51 c 28.04596,28.05 51.1068,51 51.24632,51 0.13953,0 0.25368,-22.95 0.25368,-51 z m 45,13.5 0,-67.5 67,0 67,0 0,67.5 0,67.5 -67,0 -67,0 0,-67.5 z m 79,39.24513 c 0,-0.14018 -17.325,-17.57549 -38.5,-38.74513 l -38.5,-38.49026 0,38.74513 0,38.74513 38.5,0 c 21.175,0 38.5,-0.11469 38.5,-0.25487 z m 28,-65.24513 0,-38.5 -38.74513,0 -38.74513,0 38.49026,38.5 c 21.16964,21.175 38.60495,38.5 38.74513,38.5 0.14018,0 0.25487,-17.325 0.25487,-38.5 z m -459.9999992,-151 0,-67.5 67.0000002,0 66.999999,0 0,67.5 0,67.5 -66.999999,0 -67.0000002,0 0,-67.5 z m 131.9999992,-13 0,-52.5 -53.499999,0 -53.5,0 0,12 0,12 -11.5,0 -11.5000002,0 0,40.5 0,40.5 65.0000002,0 64.999999,0 0,-52.5 z m -68.999999,22.5 0,-13 13,0 13,0 0,13 0,13 -13,0 -13,0 0,-13 z m -28,-32.5 0,-9.5 9.5,0 9.5,0 0,9.5 0,9.5 -9.5,0 -9.5,0 0,-9.5 z m 140.999999,23 0,-67.5 67.5,0 67.5,0 0,67.5 0,67.5 -67.5,0 -67.5,0 0,-67.5 z m 102,36 -3.39233,-3.5 -11.80384,0 -11.80383,0 0,-11.72309 0,-11.7231 -6.22111,-6.2769 -6.22111,-6.27691 -11.77889,0 -11.77889,0 0,-11.72648 0,-11.72649 -7.22497,-7.27351 -7.22497,-7.27352 -11.27503,0 -11.27503,0 0,40.5 0,40.5 51.69617,0 51.69616,0 -3.39233,-3.5 z m 6,-49.5 0,-52 -41,0 -41,0 0,11.22648 0,11.22649 7.22497,7.27351 7.22497,7.27352 11.77503,0 11.77503,0 0,11.72309 0,11.7231 6.22111,6.2769 6.22111,6.27691 11.77889,0 11.77889,0 0,11.70784 0,11.70783 3.70295,3.79217 c 2.03662,2.08569 3.83662,3.79216 4,3.79216 0.16338,0 0.29705,-23.4 0.29705,-52 z m 69,13.5 0,-67.5 67,0 67,0 0,67.5 0,67.5 -67,0 -67,0 0,-67.5 z m 40,52.5 0,-13 11.5,0 11.5,0 0,13 0,13 5,0 5,0 0,-13 0,-13 11.5,0 11.5,0 0,13 0,13 5.5,0 5.5,0 0,-13 0,-13 12.5,0 12.5,0 0,-5.5 0,-5.5 -12.5,0 -12.5,0 0,-11.5 0,-11.5 12.5,0 12.5,0 0,-5 0,-5 -12.5,0 -12.5,0 0,-11.5 0,-11.5 12.5,0 12.5,0 0,-2.5 0,-2.5 -12.5,0 -12.5,0 0,-16.5 0,-16.5 -5.5,0 -5.5,0 0,16.5 0,16.5 -11.5,0 -11.5,0 0,-16.5 0,-16.5 -5,0 -5,0 0,16.5 0,16.5 -11.5,0 -11.5,0 0,-16.5 0,-16.5 -2.5,0 -2.5,0 0,16.5 0,16.5 -16.5,0 -16.5,0 0,36 0,36 16.5,0 16.5,0 0,13 0,13 2.5,0 2.5,0 0,-13 z m 33,-35.5 0,-11.5 11.5,0 11.5,0 0,11.5 0,11.5 -11.5,0 -11.5,0 0,-11.5 z m -33,-33 0,-11.5 11.5,0 11.5,0 0,11.5 0,11.5 -11.5,0 -11.5,0 0,-11.5 z m 33,0 0,-11.5 11.5,0 11.5,0 0,11.5 0,11.5 -11.5,0 -11.5,0 0,-11.5 z M 3.5178308,34.849323 l 0,-67 67.0000002,0 66.999999,0 0,67 0,66.999997 -66.999999,0 -67.0000002,0 0,-66.999997 z M 106.51783,99.595613 c 0,-0.13955 -22.724999,-22.97537 -50.499999,-50.74629 L 5.5178308,-1.643251 l 0,50.746284 0,50.74629 50.5000002,0 c 27.775,0 50.499999,-0.11417 50.499999,-0.25371 z m 29,-79.24629 0,-50.5 -50.746286,0 -50.746287,0 50.492574,50.5 c 27.770919,27.775 50.606739,50.5 50.746289,50.5 0.13954,0 0.25371,-22.725 0.25371,-50.5 z m 44,14.5 0,-67 67.5,0 67.5,0 0,67 0,66.999997 -67.5,0 -67.5,0 0,-66.999997 z m 127,64.19927 c 0,-0.44041 -2.00989,-1.77722 -4.46641,-2.97069 -2.84192,-1.38071 -5.47544,-3.72639 -7.24064,-6.44926 -1.52583,-2.35363 -3.13118,-4.5403 -3.56746,-4.85927 -0.43628,-0.31897 -0.50484,-1.33147 -0.15237,-2.25 0.57597,-1.50095 -0.53438,-1.67005 -10.96613,-1.67005 l -11.60699,0 0,-10.87277 0,-10.87277 -5.21284,-0.50089 c -4.22772,-0.40623 -5.69231,-1.06747 -7.75,-3.49902 -1.39544,-1.64897 -3.53123,-3.3053 -4.74621,-3.68073 -1.21498,-0.37543 -3.68663,-2.57062 -5.49256,-4.87821 -1.80593,-2.307586 -3.51186,-4.315425 -3.79095,-4.461866 -2.62586,-1.377802 -3.45385,-2.518178 -3.55814,-4.900562 -0.0904,-2.065413 -0.74265,-2.930296 -2.52758,-3.351662 -1.32315,-0.312353 -2.87689,-1.512982 -3.45276,-2.668065 -1.99202,-3.995586 -3.68804,-5.376258 -5.86014,-4.770526 -1.50193,0.418841 -1.71836,0.317418 -0.75206,-0.352422 0.9479,-0.657079 1.02324,-1.14664 0.25,-1.624524 -0.60872,-0.376209 -1.10676,-2.667235 -1.10676,-5.091168 l 0,-4.407152 -10.75,-0.283831 -10.75,-0.283832 -0.28383,-10.75 -0.28383,-10.75 -4.71617,-0.158444 c -2.59389,-0.08714 -5.50367,-0.09245 -6.46617,-0.01179 -0.9625,0.08066 -1.75,-0.324599 -1.75,-0.900574 0,-0.575975 0.5625,-0.729652 1.25,-0.341506 1,0.564578 1,0.436381 0,-0.640983 -0.6875,-0.740687 -1.25689,-2.044204 -1.26531,-2.896704 -0.0252,-2.555792 -1.44782,-4.035639 -4.805,-4.998465 l -3.17969,-0.911923 0,58.930195 0,58.930194 62.5,0 c 34.375,0 62.5,-0.36033 62.5,-0.80073 z m -16,-1.19927 c 0,-0.55 0.45,-1 1,-1 0.55,0 1,0.45 1,1 0,0.55 -0.45,1 -1,1 -0.55,0 -1,-0.45 -1,-1 z m 0.5,-5 c 0.33992,-0.55 0.81648,-1 1.05902,-1 0.24254,0 0.44098,0.45 0.44098,1 0,0.55 -0.47656,1 -1.05902,1 -0.58246,0 -0.7809,-0.45 -0.44098,-1 z m -0.5,-4 c 0,-0.55 0.45,-1 1,-1 0.55,0 1,0.45 1,1 0,0.55 -0.45,1 -1,1 -0.55,0 -1,-0.45 -1,-1 z m -60,-31 c 0,-0.55 0.47656,-1 1.05902,-1 0.58246,0 0.7809,0.45 0.44098,1 -0.33992,0.55 -0.81648,1 -1.05902,1 -0.24254,0 -0.44098,-0.45 -0.44098,-1 z m 4.5,0 c -0.33992,-0.55 -0.14148,-1 0.44098,-1 0.58246,0 1.05902,0.45 1.05902,1 0,0.55 -0.19844,1 -0.44098,1 -0.24254,0 -0.7191,-0.45 -1.05902,-1 z m 9,0 c -0.33992,-0.55 -0.14148,-1 0.44098,-1 0.58246,0 1.05902,0.45 1.05902,1 0,0.55 -0.19844,1 -0.44098,1 -0.24254,0 -0.7191,-0.45 -1.05902,-1 z m 9.5,0 c 0,-0.55 0.47656,-1 1.05902,-1 0.58246,0 0.7809,0.45 0.44098,1 -0.33992,0.55 -0.81648,1 -1.05902,1 -0.24254,0 -0.44098,-0.45 -0.44098,-1 z m -29,-4 c 0,-0.55 0.45,-1 1,-1 0.55,0 1,0.45 1,1 0,0.55 -0.45,1 -1,1 -0.55,0 -1,-0.45 -1,-1 z m 0.5,-5 c 0.33992,-0.55 0.81648,-1 1.05902,-1 0.24254,0 0.44098,0.45 0.44098,1 0,0.55 -0.47656,1 -1.05902,1 -0.58246,0 -0.7809,-0.45 -0.44098,-1 z m 0,-4 c -0.33992,-0.55 -0.14148,-1 0.44098,-1 0.58246,0 1.05902,0.45 1.05902,1 0,0.55 -0.19844,1 -0.44098,1 -0.24254,0 -0.7191,-0.45 -1.05902,-1 z m -0.5,-5 c 0,-0.55 0.45,-1 1,-1 0.55,0 1,0.45 1,1 0,0.55 -0.45,1 -1,1 -0.55,0 -1,-0.45 -1,-1 z m 0,-9 c 0,-0.55 0.45,-1 1,-1 0.55,0 1,0.45 1,1 0,0.55 -0.45,1 -1,1 -0.55,0 -1,-0.45 -1,-1 z m -40,-39 c 0,-0.55 0.45,-1 1,-1 0.55,0 1,0.45 1,1 0,0.55 -0.45,1 -1,1 -0.55,0 -1,-0.45 -1,-1 z m 172,43 0,-67 67,0 67,0 0,67 0,66.999997 -67,0 -67,0 0,-66.999997 z m 99,58 0,-7 -16.5,0 -16.5,0 0,-8.5 0,-8.5 -7,0 -7,0 0,-16.5 0,-16.5 -11,0 -11,0 0,-7.5 0,-7.5 -14,0 -14,0 0,39.5 0,39.5 48.5,0 48.5,0 0,-7 z m 33,-74.5 0,-48.5 -39,0 -39,0 0,14 0,14 7,0 7,0 0,10.5 0,10.5 16.5,0 16.5,0 0,7 0,7 9,0 9,0 0,17 0,17 6.5,0 6.5,0 0,-48.5 z"
         id="path4211"
         inkscape:connector-curvature="0" />
      <path
         style="fill:#676767"
         d="m 3.5178308,565.84932 0,-67 67.0000002,0 66.999999,0 0,67 0,67 -66.999999,0 -67.0000002,0 0,-67 z m 129.4999992,64 c -0.35619,-0.57633 -5.67705,-1 -12.55902,-1 -7.29399,0 -11.94098,-0.38916 -11.94098,-1 0,-0.60391 4.20748,-1 10.62244,-1 9.3288,0 10.47084,-0.18268 9.37756,-1.5 -0.92529,-1.1149 -3.39568,-1.5 -9.62244,-1.5 -4.91837,0 -8.37756,-0.41291 -8.37756,-1 0,-0.57349 3.05166,-1 7.15499,-1 7.09164,0 7.13896,-0.0177 5.34501,-2 -1.28094,-1.41543 -3.07997,-2 -6.15499,-2 -2.38975,0 -4.34501,-0.45 -4.34501,-1 0,-0.55 1.42844,-1 3.17431,-1 l 3.17432,0 -2.34863,-2.5 c -2.11716,-2.25361 -3.11988,-2.5 -10.17431,-2.5 -4.55046,0 -7.825689,-0.41852 -7.825689,-1 0,-0.566 2.874149,-1 6.622439,-1 5.77324,0 6.46281,-0.19235 5.37756,-1.5 -1.05893,-1.27593 -6.00679,-1.5 -33.122444,-1.5 -20.585037,0 -31.877555,-0.35425 -31.877555,-1 0,-0.64493 10.891438,-1 30.674314,-1 l 30.674315,0 -2.34863,-2.5 -2.34863,-2.5 -25.325683,0 c -16.217124,0 -25.325686,-0.35966 -25.325686,-1 0,-0.63907 8.718329,-1 24.154988,-1 24.091642,0 24.150242,-0.005 22.345012,-2 -1.37992,-1.52479 -3.07997,-2 -7.15499,-2 -2.939754,0 -5.34501,-0.45 -5.34501,-1 0,-0.55 1.884191,-1 4.187091,-1 l 4.187089,0 -2.87418,-3 c -2.846554,-2.97116 -2.978122,-3 -13.687091,-3 -6.541939,0 -10.812909,-0.39499 -10.812909,-1 0,-0.59776 3.891438,-1 9.674314,-1 l 9.674314,0 -2.348628,-2.5 c -1.875925,-1.99683 -3.319883,-2.5 -7.174314,-2.5 -2.654127,0 -4.825686,-0.45 -4.825686,-1 0,-0.55 1.644744,-1 3.654988,-1 3.591645,0 3.62362,-0.0347 1.845012,-2 -1.623774,-1.79425 -3.079967,-2 -14.154988,-2 -7.563341,0 -12.345012,-0.38734 -12.345012,-1 0,-0.6069 4.384996,-1 11.154988,-1 11.091645,0 11.14471,-0.0114 9.345012,-2 -1.474161,-1.62893 -3.079967,-2 -8.654988,-2 -3.896675,0 -6.845012,-0.43073 -6.845012,-1 0,-0.55 2.544744,-1 5.654988,-1 5.591645,0 5.634714,-0.0224 3.845012,-2 -1.696991,-1.87515 -3.079967,-2 -22.154988,-2 -12.896675,0 -20.345012,-0.3661 -20.345012,-1 0,-0.6319 7.058105,-1 19.174314,-1 l 19.174314,0 -2.348628,-2.5 c -2.196146,-2.33769 -2.98655,-2.5 -12.174314,-2.5 -5.883791,0 -9.825686,-0.40118 -9.825686,-1 0,-0.58964 3.551663,-1 8.654988,-1 8.591645,0 8.641741,-0.0146 6.845012,-2 -1.576491,-1.742 -3.079967,-2 -11.654988,-2 -5.896675,0 -9.845012,-0.40105 -9.845012,-1 0,-0.58964 3.551663,-1 8.654988,-1 8.591645,0 8.641741,-0.0146 6.845012,-2 -1.335538,-1.47575 -3.079967,-2 -6.654988,-2 -2.664756,0 -4.845012,-0.45 -4.845012,-1 0,-0.55 1.653441,-1 3.674314,-1 l 3.674314,0 -2.348628,-2.5 c -2.161128,-2.30042 -3.053216,-2.5 -11.174314,-2.5 -5.217124,0 -8.825686,-0.40887 -8.825686,-1 0,-0.5798 3.224771,-1 7.674314,-1 l 7.674314,0 -2.348628,-2.5 c -1.803188,-1.91941 -3.353216,-2.5 -6.674314,-2.5 -2.379127,0 -4.325686,-0.45 -4.325686,-1 0,-0.55 1.419744,-1 3.154988,-1 3.091645,0 3.118649,-0.0402 1.345012,-2 -1.516967,-1.67623 -3.079967,-2 -9.654988,-2 -4.563341,0 -7.8450122,-0.41831 -7.8450122,-1 0,-0.56649 2.8849962,-1 6.6549882,-1 6.591645,0 6.63776,-0.019 4.845012,-2 -1.212148,-1.33941 -3.079967,-2 -5.654988,-2 -2.114756,0 -3.845012,-0.45 -3.845012,-1 0,-0.55 1.203441,-1 2.674314,-1 l 2.674314,0 -2.348628,-2.5 c -1.430526,-1.52273 -3.453216,-2.5 -5.1743142,-2.5 l -2.825686,0 0,61.5 0,61.5 64.0590172,0 c 42.451362,0 63.850552,-0.33731 63.440982,-1 z m 2.5,-64.5 0,-64.5 -61.499999,0 -61.5,0 0,3.34501 c 0,2.07502 0.759335,4.0322 2,5.15499 1.952285,1.76679 2,1.74663 2,-0.84501 0,-1.46025 0.45,-2.65499 1,-2.65499 0.55,0 1,1.72156 1,3.82569 0,2.78776 0.678259,4.46287 2.5,6.17431 l 2.5,2.34863 0,-7.17432 c 0,-4.11621 0.426257,-7.17431 1,-7.17431 0.586779,0 1,3.44834 1,8.34501 0,7.07502 0.304371,8.62047 2,10.15499 1.96534,1.77861 2,1.74663 2,-1.84501 0,-2.01025 0.45,-3.65499 1,-3.65499 0.55,0 1,2.17156 1,4.82569 0,3.85443 0.503169,5.29839 2.5,7.17431 l 2.5,2.34863 0,-8.17432 c 0,-4.78287 0.41489,-8.17431 1,-8.17431 0.59518,0 1,3.77523 1,9.32569 0,8.65443 0.179948,9.49473 2.5,11.67431 l 2.5,2.34863 0,-3.67432 c 0,-2.02087 0.45,-3.67431 1,-3.67431 0.55,0 1,2.18026 1,4.84501 0,3.57502 0.524247,5.31945 2,6.65499 1.986162,1.79745 2,1.74663 2,-7.34501 0,-5.43666 0.406153,-9.15499 1,-9.15499 0.602223,0 1,4.115 1,10.34501 0,9.07502 0.245527,10.56721 2,12.15499 1.986162,1.79745 2,1.74663 2,-7.34501 0,-5.43666 0.406153,-9.15499 1,-9.15499 0.602223,0 1,4.115 1,10.34501 0,9.07502 0.245527,10.56721 2,12.15499 1.993209,1.80383 2,1.74663 2,-16.84501 0,-11.76999 0.36907,-18.65499 1,-18.65499 0.63304,0 1,7.27523 1,19.82569 l 0,19.82568 2.5,2.34863 2.5,2.34863 0,-6.17432 c 0,-3.44954 0.441308,-6.17431 1,-6.17431 0.575902,0 1,3.115 1,7.34501 0,6.07502 0.345811,7.65797 2,9.15499 1.989131,1.80014 2,1.74663 2,-9.84501 0,-7.10333 0.390533,-11.65499 1,-11.65499 0.614766,0 1,4.94834 1,12.84501 0,11.57502 0.197741,13.02397 2,14.65499 1.969511,1.78238 2,1.74663 2,-2.34501 0,-2.28525 0.45,-4.15499 1,-4.15499 0.55,0 1,2.39656 1,5.32569 0,4.38776 0.440282,5.73931 2.5,7.67431 l 2.5,2.34863 0,-9.67432 c 0,-5.78287 0.402244,-9.67431 1,-9.67431 0.605012,0 1,4.27097 1,10.81291 0,10.70897 0.02884,10.84054 3,13.68709 l 3,2.87418 0,-4.68709 c 0,-2.5779 0.45,-4.68709 1,-4.68709 0.55261,0 1,2.615 1,5.84501 0,4.57502 0.43456,6.23828 2,7.65499 1.994529,1.80502 1.999999,1.74663 1.999999,-21.34501 0,-14.76999 0.36212,-23.15499 1,-23.15499 0.63926,0 1,8.77523 1,24.32569 l 0,24.32568 2.5,2.34863 2.5,2.34863 0,-30.67432 c 0,-19.78287 0.35507,-30.67431 1,-30.67431 0.64575,0 1,11.29252 1,31.87756 0,27.11565 0.22407,32.06351 1.5,33.12244 1.30945,1.08675 1.5,0.34012 1.5,-5.87756 0,-4.08163 0.42693,-7.12244 1,-7.12244 0.58659,0 1,3.4419 1,8.32569 0,7.58776 0.22158,8.53385 2.5,10.67431 l 2.5,2.34863 0,-3.67432 c 0,-2.02087 0.45,-3.67431 1,-3.67431 0.55,0 1,2.18026 1,4.84501 0,3.57502 0.52425,5.31945 2,6.65499 1.98229,1.79395 2,1.74663 2,-5.34501 0,-4.10333 0.42651,-7.15499 1,-7.15499 0.58709,0 1,3.45919 1,8.37756 0,6.22676 0.3851,8.69715 1.5,9.62244 1.31804,1.09388 1.5,-0.10432 1.5,-9.87756 0,-6.74829 0.39327,-11.12244 1,-11.12244 0.61261,0 1,4.77778 1,12.33333 0,10.82471 0.34658,13.66667 1.66667,13.66667 0.18333,0 0.33333,-29.025 0.33333,-64.5 z M 8.5178308,505.47176 c 0,-0.20765 -0.675,-0.93775 -1.5,-1.62244 -1.228508,-1.01957 -1.5,-0.95124 -1.5,0.37756 0,0.89234 0.675,1.62244 1.5,1.62244 0.825,0 1.5,-0.1699 1.5,-0.37756 z m 2.0000002,-2.62244 c 0,-1.38128 -0.6666672,-2 -2.1549882,-2 -2.091645,0 -2.101786,0.0588 -0.345012,2 0.995486,1.1 1.965231,2 2.1549882,2 0.189756,0 0.345012,-0.9 0.345012,-2 z m 169.999999,63 0,-67 67.5,0 67.5,0 0,67 0,67 -67.5,0 -67.5,0 0,-67 z m 97,60.5 0,-4.5 5.5,0 5.5,0 0,4.5 0,4.5 4,0 c 3.77778,0 4,-0.16667 4,-3 0,-2.66667 0.33333,-3 3,-3 2.53333,0 3,-0.38889 3,-2.5 0,-2.25 -0.4,-2.5 -4,-2.5 l -4,0 0,-5 0,-5 4.5,0 4.5,0 0,4.5 c 0,3.83333 0.2963,4.5 2,4.5 1.33333,0 2,-0.66667 2,-2 0,-1.55556 0.66667,-2 3,-2 2.7619,0 3,-0.27778 3,-3.5 l 0,-3.5 -5.5,0 -5.5,0 0,-6.5 0,-6.5 5.5,0 5.5,0 0,-47 0,-47 -38.5,0 -38.5,0 0,4.5 0,4.5 -10.5,0 -10.5,0 0,-4.5 0,-4.5 -12.5,0 -12.5,0 0,3.5 c 0,3.41667 -0.0952,3.5 -4,3.5 l -4,0 0,13 0,13 4.5,0 4.5,0 0,10 0,10 -4.5,0 -4.5,0 0,38.5 0,38.5 47.5,0 47.5,0 0,-4.5 z m -51,-7.5 0,-7 5,0 5,0 0,7 0,7 -5,0 -5,0 0,-7 z m 8,0 c 0,-4.88889 -0.0667,-5 -3,-5 -2.93333,0 -3,0.11111 -3,5 0,4.88889 0.0667,5 3,5 2.93333,0 3,-0.11111 3,-5 z m 36,-9.5 0,-7.5 4,0 4,0 0,7.5 0,7.5 -4,0 -4,0 0,-7.5 z m 6,0 c 0,-4.83333 -0.24242,-5.5 -2,-5.5 -1.75758,0 -2,0.66667 -2,5.5 0,4.83333 0.24242,5.5 2,5.5 1.75758,0 2,-0.66667 2,-5.5 z m -73,-2 0,-6.5 5.5,0 5.5,0 0,6.5 0,6.5 -5.5,0 -5.5,0 0,-6.5 z m 9,0 c 0,-4.47619 -0.0185,-4.5 -3.5,-4.5 -3.48148,0 -3.5,0.0238 -3.5,4.5 0,4.47619 0.0185,4.5 3.5,4.5 3.48148,0 3.5,-0.0238 3.5,-4.5 z m 48,-5 0,-7.5 4,0 4,0 0,7.5 0,7.5 -4,0 -4,0 0,-7.5 z m 6,0 c 0,-4.83333 -0.24242,-5.5 -2,-5.5 -1.75758,0 -2,0.66667 -2,5.5 0,4.83333 0.24242,5.5 2,5.5 1.75758,0 2,-0.66667 2,-5.5 z m 14,1.5 0,-6 5.5,0 5.5,0 0,6 0,6 -5.5,0 -5.5,0 0,-6 z m 9,0 c 0,-3.90476 -0.0833,-4 -3.5,-4 -3.41667,0 -3.5,0.0952 -3.5,4 0,3.90476 0.0833,4 3.5,4 3.41667,0 3.5,-0.0952 3.5,-4 z m -104,-7 0,-7 5,0 5,0 0,7 0,7 -5,0 -5,0 0,-7 z m 8,0 c 0,-4.88889 -0.0667,-5 -3,-5 -2.93333,0 -3,0.11111 -3,5 0,4.88889 0.0667,5 3,5 2.93333,0 3,-0.11111 3,-5 z m 53,-1.5 0,-8.5 6,0 6,0 0,8.5 0,8.5 -6,0 -6,0 0,-8.5 z m 10,0 0,-6.5 -4,0 -4,0 0,6.5 0,6.5 4,0 4,0 0,-6.5 z m 14,-2.5 0,-4 4.5,0 4.5,0 0,4 0,4 -4.5,0 -4.5,0 0,-4 z m 7,0 c 0,-1.46667 -0.66667,-2 -2.5,-2 -1.83333,0 -2.5,0.53333 -2.5,2 0,1.46667 0.66667,2 2.5,2 1.83333,0 2.5,-0.53333 2.5,-2 z m 6,0 0,-4 8,0 8,0 0,4 0,4 -8,0 -8,0 0,-4 z m 14,0 c 0,-1.77778 -0.66667,-2 -6,-2 -5.33333,0 -6,0.22222 -6,2 0,1.77778 0.66667,2 6,2 5.33333,0 6,-0.22222 6,-2 z m -38,-7 0,-7 7.5,0 7.5,0 0,4 c 0,3.77778 -0.16667,4 -3,4 -2.66667,0 -3,0.33333 -3,3 0,2.88889 -0.16667,3 -4.5,3 l -4.5,0 0,-7 z m 7,2 c 0,-2.66667 0.33333,-3 3,-3 2.33333,0 3,-0.44444 3,-2 0,-1.75758 -0.66667,-2 -5.5,-2 l -5.5,0 0,5 c 0,4.66667 0.16667,5 2.5,5 2.11111,0 2.5,-0.46667 2.5,-3 z m -33,-2.5 c 0,-5.44444 -0.0303,-5.5 -3,-5.5 -2.99644,0 -3,-0.007 -3,-5.93664 l 0,-5.93664 -3.25,-0.31336 c -2.70808,-0.26111 -3.30276,-0.77191 -3.56642,-3.06336 -0.30431,-2.64471 -0.1416,-2.75 4.25,-2.75 3.39237,0 4.56642,0.38566 4.56642,1.5 0,2.52197 3.42202,1.6523 4.75,-1.20717 2.2662,-4.8797 1.81739,-5.29283 -5.75,-5.29283 -6.8,0 -7,-0.0714 -7,-2.5 0,-1.55556 0.56667,-2.5 1.5,-2.5 1,0 1.5,-1 1.5,-3 0,-2.33333 0.44444,-3 2,-3 1.11111,0 2,-0.66667 2,-1.5 0,-0.94777 0.95485,-1.5 2.59362,-1.5 1.75262,0 2.76321,-0.64852 3.11663,-2 0.37046,-1.41665 1.36402,-2 3.40638,-2 l 2.88337,0 0,7.5 c 0,6.75732 0.1922,7.5 1.94098,7.5 1.06754,0 2.2191,-0.45 2.55902,-1 0.33992,-0.55 1.49148,-1 2.55902,-1 1.27431,0 1.94098,-0.68694 1.94098,-2 0,-1.61905 -0.66667,-2 -3.5,-2 -3.41667,0 -3.5,-0.0952 -3.5,-4 l 0,-4 4.5,0 c 4.33333,0 4.5,0.11111 4.5,3 l 0,3 6.5,0 6.5,0 0,3.5 0,3.5 5,0 5,0 0,5.5 0,5.5 -6,0 -6,0 0,-4.5 0,-4.5 -4,0 c -3.77778,0 -4,0.16667 -4,3 0,2 -0.5,3 -1.5,3 -0.93333,0 -1.5,0.94444 -1.5,2.5 0,2.25 0.4,2.5 4,2.5 l 4,0 0,5.5 0,5.5 -5.94521,0 -5.94521,0 -0.30479,-4.75 c -0.2541,-3.95998 -0.65733,-4.80031 -2.42444,-5.05247 -1.44644,-0.2064 -2.29011,0.3494 -2.65638,1.75 -0.39539,1.51199 -1.35137,2.05247 -3.63035,2.05247 -2.94256,0 -3.09362,0.19532 -3.09362,4 l 0,4 5,0 5,0 0,6 0,6 -6,0 -6,0 0,-5.5 z m 10,-0.5 c 0,-4 0,-4 -4,-4 -4,0 -4,0 -4,4 0,4 0,4 4,4 4,0 4,0 4,-4 z m -9.80479,-10.75 c 0.29225,-4.5545 0.43855,-4.7629 3.55479,-5.06336 2.01311,-0.1941 3.25,-0.86012 3.25,-1.75 0,-1.00941 1.18951,-1.43664 4,-1.43664 l 4,0 0,4.5 0,4.5 5.06037,0 5.06036,0 -0.31036,-3.75 c -0.30127,-3.64003 -0.435,-3.75902 -4.56037,-4.0575 -4.22934,-0.306 -4.25,-0.32666 -4.25,-4.25 0,-2.75659 0.43122,-3.9425 1.43358,-3.9425 0.82053,0 1.56889,-1.176 1.75,-2.75 0.28977,-2.51837 0.71651,-2.77567 5.06642,-3.05479 4.52248,-0.29019 4.75,-0.44586 4.75,-3.25 0,-2.90328 -0.0783,-2.94521 -5.5,-2.94521 -5.44444,0 -5.5,0.0303 -5.5,3 0,2.30293 -0.451,3 -1.94098,3 -1.06754,0 -2.2191,0.45 -2.55902,1 -0.33992,0.55 -2.39148,1 -4.55902,1 l -3.94098,0 0,-7 c 0,-5.55556 -0.30952,-7 -1.5,-7 -0.825,0 -1.5,0.675 -1.5,1.5 0,0.91376 -0.93149,1.5 -2.38337,1.5 -1.54236,0 -2.56792,0.70573 -2.90638,2 -0.31292,1.1966 -1.36401,2 -2.61663,2 -1.65958,0 -2.09362,0.62195 -2.09362,3 0,1.65 -0.45,3 -1,3 -0.55,0 -1,0.45 -1,1 0,0.5641 2.83333,1 6.5,1 6.42755,0 6.49985,0.0307 6.48635,2.75 -0.0272,5.47808 -1.02998,7.25 -4.10298,7.25 -2.8821,0 -2.88337,0.003 -2.88337,6.5 0,5.7723 0.21777,6.5 1.94521,6.5 1.61115,0 1.99755,-0.81572 2.25,-4.75 z m -6.19521,-9.75 c 0,-0.93333 -0.94444,-1.5 -2.5,-1.5 -1.55556,0 -2.5,0.56667 -2.5,1.5 0,0.93333 0.94444,1.5 2.5,1.5 1.55556,0 2.5,-0.56667 2.5,-1.5 z m 45,-6 c 0,-3.41667 -0.0952,-3.5 -4,-3.5 -3.90476,0 -4,0.0833 -4,3.5 0,3.41667 0.0952,3.5 4,3.5 3.90476,0 4,-0.0833 4,-3.5 z m -23,-14.5 c 0,-1.46667 -0.66667,-2 -2.5,-2 -1.83333,0 -2.5,0.53333 -2.5,2 0,1.46667 0.66667,2 2.5,2 1.83333,0 2.5,-0.53333 2.5,-2 z m -45,38.5 0,-6.5 5,0 5,0 0,6.5 0,6.5 -5,0 -5,0 0,-6.5 z m 8,0 c 0,-4.33333 -0.11111,-4.5 -3,-4.5 -2.88889,0 -3,0.16667 -3,4.5 0,4.33333 0.11111,4.5 3,4.5 2.88889,0 3,-0.16667 3,-4.5 z m 65,1.5 0,-4 6.5,0 6.5,0 0,4 0,4 -6.5,0 -6.5,0 0,-4 z m 11,0 c 0,-1.7037 -0.66667,-2 -4.5,-2 -3.83333,0 -4.5,0.2963 -4.5,2 0,1.7037 0.66667,2 4.5,2 3.83333,0 4.5,-0.2963 4.5,-2 z m -104,-11 0,-8 4.5,0 4.5,0 0,8 0,8 -4.5,0 -4.5,0 0,-8 z m 7,0 c 0,-5.73333 -0.11111,-6 -2.5,-6 -2.38889,0 -2.5,0.26667 -2.5,6 0,5.73333 0.11111,6 2.5,6 2.38889,0 2.5,-0.26667 2.5,-6 z m 79,-1.5 0,-5.5 7.5,0 7.5,0 0,5.5 0,5.5 -7.5,0 -7.5,0 0,-5.5 z m 13,0 0,-3.5 -5.5,0 -5.5,0 0,3.5 0,3.5 5.5,0 5.5,0 0,-3.5 z m -89,-12 0,-7.5 4.5,0 4.5,0 0,7.5 0,7.5 -4.5,0 -4.5,0 0,-7.5 z m 7,0 c 0,-5.2 -0.13636,-5.5 -2.5,-5.5 -2.36364,0 -2.5,0.3 -2.5,5.5 0,5.2 0.13636,5.5 2.5,5.5 2.36364,0 2.5,-0.3 2.5,-5.5 z m 92,-9.5 0,-4 8,0 8,0 0,4 0,4 -8,0 -8,0 0,-4 z m 14,0 c 0,-1.77778 -0.66667,-2 -6,-2 -5.33333,0 -6,0.22222 -6,2 0,1.77778 0.66667,2 6,2 5.33333,0 6,-0.22222 6,-2 z m -93,-11 0,-5 5.5,0 5.5,0 0,5 0,5 -5.5,0 -5.5,0 0,-5 z m 9,0 c 0,-2.7619 -0.27778,-3 -3.5,-3 -3.22222,0 -3.5,0.2381 -3.5,3 0,2.7619 0.27778,3 3.5,3 3.22222,0 3.5,-0.2381 3.5,-3 z m -19,-11 0,-5 5,0 5,0 0,5 0,5 -5,0 -5,0 0,-5 z m 8,0 c 0,-2.66667 -0.33333,-3 -3,-3 -2.66667,0 -3,0.33333 -3,3 0,2.66667 0.33333,3 3,3 2.66667,0 3,-0.33333 3,-3 z m 69,0.5 0,-4.5 6,0 6,0 0,4.5 0,4.5 -6,0 -6,0 0,-4.5 z m 10,0 c 0,-2.25 -0.4,-2.5 -4,-2.5 -3.6,0 -4,0.25 -4,2.5 0,2.25 0.4,2.5 4,2.5 3.6,0 4,-0.25 4,-2.5 z m -34,-3.5 0,-4 7,0 7,0 0,4 0,4 -7,0 -7,0 0,-4 z m 12,0 c 0,-1.73333 -0.66667,-2 -5,-2 -4.33333,0 -5,0.26667 -5,2 0,1.73333 0.66667,2 5,2 4.33333,0 5,-0.26667 5,-2 z m -78,-8 0,-6 6,0 6,0 0,6 0,6 -6,0 -6,0 0,-6 z m 10,0 c 0,-4 0,-4 -4,-4 -4,0 -4,0 -4,4 0,4 0,4 4,4 4,0 4,0 4,-4 z m 32,-0.5 0,-4.5 7.5,0 7.5,0 0,4.5 0,4.5 -7.5,0 -7.5,0 0,-4.5 z m 13,0 c 0,-2.36364 -0.3,-2.5 -5.5,-2.5 -5.2,0 -5.5,0.13636 -5.5,2.5 0,2.36364 0.3,2.5 5.5,2.5 5.2,0 5.5,-0.13636 5.5,-2.5 z m 26,-9.5 0,-5 6.5,0 6.5,0 0,5 0,5 -6.5,0 -6.5,0 0,-5 z m 11,0 c 0,-2.88889 -0.16667,-3 -4.5,-3 -4.33333,0 -4.5,0.11111 -4.5,3 0,2.88889 0.16667,3 4.5,3 4.33333,0 4.5,-0.11111 4.5,-3 z m -36,0 0,-4 7.5,0 7.5,0 0,4 0,4 -7.5,0 -7.5,0 0,-4 z m 13,0 c 0,-1.75758 -0.66667,-2 -5.5,-2 -4.83333,0 -5.5,0.24242 -5.5,2 0,1.75758 0.66667,2 5.5,2 4.83333,0 5.5,-0.24242 5.5,-2 z m 26,120.5 c 0,-3.33333 -0.16667,-3.5 -3.5,-3.5 -3.33333,0 -3.5,0.16667 -3.5,3.5 0,3.33333 0.16667,3.5 3.5,3.5 3.33333,0 3.5,-0.16667 3.5,-3.5 z m 27,-3.5 c 0,-6.33333 -0.19048,-7 -2,-7 -1.33333,0 -2,0.66667 -2,2 0,1.46667 -0.66667,2 -2.5,2 -2.11111,0 -2.5,0.46667 -2.5,3 0,2.66667 -0.33333,3 -3,3 -2.33333,0 -3,0.44444 -3,2 0,1.82222 0.66667,2 7.5,2 l 7.5,0 0,-7 z m -12,-9 c 0,-2.53333 -0.38889,-3 -2.5,-3 -2.11111,0 -2.5,0.46667 -2.5,3 0,2.53333 0.38889,3 2.5,3 2.11111,0 2.5,-0.46667 2.5,-3 z m 12,-13.5 0,-4.5 -4.5,0 -4.5,0 0,4.5 0,4.5 4.5,0 4.5,0 0,-4.5 z m -124,-57.5 0,-8 -3.5,0 -3.5,0 0,8 0,8 3.5,0 3.5,0 0,-8 z m 45,-39.5 0,-3.5 -8.5,0 -8.5,0 0,3.5 0,3.5 8.5,0 8.5,0 0,-3.5 z m -46,-1 c 0,-2.11111 -0.46667,-2.5 -3,-2.5 -2.53333,0 -3,0.38889 -3,2.5 0,2.11111 0.46667,2.5 3,2.5 2.53333,0 3,-0.38889 3,-2.5 z m -185.2209742,-59.75 c -0.153464,-7.2875 -0.158937,-37.6625 -0.01216,-67.5 l 0.266857,-54.25 66.9831392,0 66.983138,0 0,67.5 0,67.5 -66.970974,0 -66.9709752,0 -0.279025,-13.25 z m 107.2209742,-0.25 0,-11.5 -52.499999,0 -52.5000002,0 0,11.5 0,11.5 52.5000002,0 52.499999,0 0,-11.5 z m 23,11.23213 c 0,-0.14732 -4.725,-4.97678 -10.5,-10.73213 l -10.5,-10.46427 0,10.73214 0,10.73213 10.5,0 c 5.775,0 10.5,-0.12054 10.5,-0.26787 z m 2,-12.23213 0,-10.5 -10.73213,0 -10.73214,0 10.46427,10.5 c 5.75535,5.775 10.58481,10.5 10.73213,10.5 0.14733,0 0.26787,-4.725 0.26787,-10.5 z M 83.517831,429.59457 c 0,-0.14011 -17.775,-18.02547 -39.5,-39.74525 l -39.5000002,-39.49051 0,39.74526 0,39.74525 39.5000002,0 c 21.725,0 39.5,-0.11464 39.5,-0.25475 z M 57.51419,378.34232 6.0178308,326.83531 l -0.285997,11.25701 -0.285996,11.257 40.7859962,40.19706 40.785997,40.19706 10.99636,0.0529 10.996359,0.0529 -51.49636,-51.507 z m 78.00364,-1.493 0,-53 -11.5,0 -11.5,0 0,53 0,53 11.5,0 11.5,0 0,-53 z m -25,-1 0,-52 -52.246393,0 -52.2463942,0 51.9927882,52 c 28.596034,28.6 52.106909,52 52.246389,52 0.13949,0 0.25361,-23.4 0.25361,-52 z m 69,13.5 0,-67.5 67,0 67,0 0,67.5 0,67.5 -67,0 -67,0 0,-67.5 z m 120,54 -11.46738,-11.5 -53.26631,0 -53.26631,0 0,11.5 0,11.5 64.73369,0 64.73369,0 -11.46738,-11.5 z m 12,-1 0,-10.5 -10.73213,0 -10.73214,0 10.46427,10.5 c 5.75535,5.775 10.58481,10.5 10.73213,10.5 0.14733,0 0.26787,-4.725 0.26787,-10.5 z m -51,-12.75475 c 0,-0.14011 -17.775,-18.02547 -39.5,-39.74525 l -39.5,-39.49051 0,39.74526 0,39.74525 39.5,0 c 21.725,0 39.5,-0.11464 39.5,-0.25475 z m -26.50361,-51.75222 -51.99639,-52.00697 -0.28472,11.21772 -0.28472,11.21772 40.78014,40.78925 40.78015,40.78925 11.50097,0 11.50097,0 -51.9964,-52.00697 z m 24.00361,-0.99303 -52.99292,-53 -11.5,0 -11.5,0 52.99292,53 52.99292,53 11.5,0 11.5,0 -52.99292,-53 z m 54.259,-0.75 -0.259,-51.75 -51.75,-0.259 c -28.4625,-0.14245 -51.75,0.0809 -51.75,0.49639 0,0.99235 102.26308,103.26261 103.25536,103.26261 0.41945,0 0.64609,-23.2875 0.50364,-51.75 z m 44.241,13.25 0,-67.5 67,0 67,0 0,67.5 0,67.5 -67,0 -67,0 0,-67.5 z m 107,54 0,-11.5 -52.5,0 -52.5,0 0,11.5 0,11.5 52.5,0 52.5,0 0,-11.5 z m 24,11.23295 c 0,-0.14688 -4.95,-5.20171 -11,-11.23295 l -11,-10.96589 0,11.23294 0,11.23295 11,0 c 6.05,0 11,-0.12017 11,-0.26705 z m 1,-12.23295 0,-10.5 -10.73213,0 -10.73214,0 10.46427,10.5 c 5.75535,5.775 10.58481,10.5 10.73213,10.5 0.14733,0 0.26787,-4.725 0.26787,-10.5 z m -52,-13.25481 c 0,-0.41514 -17.55,-18.30048 -39,-39.74519 l -39,-38.99038 0,39.74519 0,39.74519 39,0 c 21.45,0 39,-0.33966 39,-0.75481 z m -25.50361,-51.25216 -51.99639,-52.00697 -0.28472,11.21772 -0.28472,11.21772 40.78014,40.78925 40.78015,40.78925 11.50097,0 11.50097,0 -51.9964,-52.00697 z m 77.50361,-0.99303 0,-53 -11.5,0 -11.5,0 0,53 0,53 11.5,0 11.5,0 0,-53 z m -65.7107,-12.21075 -40.78015,-40.78925 -11.50097,0 -11.50097,0 51.9964,52.00697 51.99639,52.00697 0.28472,-11.21772 0.28472,-11.21772 -40.78014,-40.78925 z m 40.7107,-1.28925 0,-39.5 -39,0 c -21.45,0 -39,0.33536 -39,0.74525 0,0.6552 77.09426,78.25475 77.74519,78.25475 0.14015,0 0.25481,-17.775 0.25481,-39.5 z m -459.9999992,-151 0,-67.5 67.0000002,0 66.999999,0 0,67.5 0,67.5 -66.999999,0 -67.0000002,0 0,-67.5 z m 106.9999992,53.5 0,-12 -52.499999,0 -52.5000002,0 0,12 0,12 52.5000002,0 52.499999,0 0,-12 z m 24,11.73295 c 0,-0.14688 -4.95,-5.20171 -11,-11.23295 l -11,-10.96589 0,11.23294 0,11.23295 11,0 c 6.05,0 11,-0.12017 11,-0.26705 z m 1,-12.73295 0,-11 -11.23295,0 -11.23294,0 10.96589,11 c 6.03124,6.05 11.08607,11 11.23295,11 0.14688,0 0.26705,-4.95 0.26705,-11 z m 0,-65.5 0,-52.5 -53.499999,0 -53.5,0 0,12 0,12 -11.5,0 -11.5000002,0 0,40.5 0,40.5 65.0000002,0 64.999999,0 0,-52.5 z m -68.999999,22.5 0,-13 13,0 13,0 0,13 0,13 -13,0 -13,0 0,-13 z m 23,10.73213 c 0,-0.14732 -4.725,-4.97678 -10.5,-10.73213 l -10.5,-10.46427 0,10.73214 0,10.73213 10.5,0 c 5.775,0 10.5,-0.12054 10.5,-0.26787 z m 1,-11.73213 0,-10 -10.231238,0 -10.231239,0 9.962477,10 c 5.479362,5.5 10.083419,10 10.231238,10 0.147819,0 0.268762,-4.5 0.268762,-10 z m -52,-31.5 0,-9.5 9.5,0 9.5,0 0,9.5 0,9.5 -9.5,0 -9.5,0 0,-9.5 z m 15,7.22111 c 0,-0.15339 -2.925,-3.17789 -6.5,-6.72111 l -6.5,-6.44222 0,6.72111 0,6.72111 6.5,0 c 3.575,0 6.5,-0.1255 6.5,-0.27889 z m 2,-7.72111 0,-7 -7.22318,0 -7.223181,0 6.946361,7 c 3.820499,3.85 7.07093,7 7.22318,7 0.152251,0 0.27682,-3.15 0.27682,-7 z m -30,-20.26876 c 0,-0.14782 -4.5,-4.75188 -10,-10.23124 l -10.0000002,-9.96248 0,10.23124 0,10.23124 10.0000002,0 c 5.5,0 10,-0.12094 10,-0.26876 z m 1,-11.73124 0,-10 -10.231238,0 -10.2312392,0 9.9624772,10 c 5.479362,5.5 10.083419,10 10.231238,10 0.147819,0 0.268762,-4.5 0.268762,-10 z m 152.999999,55.5 0,-67.5 67.5,0 67.5,0 0,67.5 0,67.5 -67.5,0 -67.5,0 0,-67.5 z m 107,53.5 0,-12 -52.5,0 -52.5,0 0,12 0,12 52.5,0 52.5,0 0,-12 z m 24,11.73295 c 0,-0.14688 -4.95,-5.20171 -11,-11.23295 l -11,-10.96589 0,11.23294 0,11.23295 11,0 c 6.05,0 11,-0.12017 11,-0.26705 z m 2,-12.73295 0,-11 -11.23295,0 -11.23294,0 10.96589,11 c 6.03124,6.05 11.08607,11 11.23295,11 0.14688,0 0.26705,-4.95 0.26705,-11 z m -31,-16.5 -3.39233,-3.5 -11.80384,0 -11.80383,0 0,-11.72309 0,-11.7231 -6.22111,-6.2769 -6.22111,-6.27691 -11.77889,0 -11.77889,0 0,-11.72648 0,-11.72649 -7.22497,-7.27351 -7.22497,-7.27352 -11.27503,0 -11.27503,0 0,40.5 0,40.5 51.69617,0 51.69616,0 -3.39233,-3.5 z m 31,-49 0,-52.5 -11.5,0 -11.5,0 0,52.5 0,52.5 11.5,0 11.5,0 0,-52.5 z m -25,-0.5 0,-52 -41,0 -41,0 0,11.22648 0,11.22649 7.22497,7.27351 7.22497,7.27352 11.77503,0 11.77503,0 0,11.72309 0,11.7231 6.22111,6.2769 6.22111,6.27691 11.77889,0 11.77889,0 0,11.70784 0,11.70783 3.70295,3.79217 c 2.03662,2.08569 3.83662,3.79216 4,3.79216 0.16338,0 0.29705,-23.4 0.29705,-52 z m -12,43.73025 c 0,-0.14836 -4.275,-4.52698 -9.5,-9.73025 l -9.5,-9.4605 0,9.73025 0,9.73025 9.5,0 c 5.225,0 9.5,-0.12139 9.5,-0.26975 z m 2,-11.23025 0,-9.5 -9.73025,0 -9.73025,0 9.4605,9.5 c 5.20327,5.225 9.58189,9.5 9.73025,9.5 0.14836,0 0.26975,-4.275 0.26975,-9.5 z m -38,-24.76975 c 0,-0.14836 -4.275,-4.52698 -9.5,-9.73025 l -9.5,-9.4605 0,9.73025 0,9.73025 9.5,0 c 5.225,0 9.5,-0.12139 9.5,-0.26975 z m 2,-11.23025 0,-9.5 -9.73025,0 -9.73025,0 9.4605,9.5 c 5.20327,5.225 9.58189,9.5 9.73025,9.5 0.14836,0 0.26975,-4.275 0.26975,-9.5 z m -40,-26.76876 c 0,-0.14782 -4.5,-4.75188 -10,-10.23124 l -10,-9.96248 0,10.23124 0,10.23124 10,0 c 5.5,0 10,-0.12094 10,-0.26876 z m 2,-11.73124 0,-10 -10.23124,0 -10.23124,0 9.96248,10 c 5.47936,5.5 10.08342,10 10.23124,10 0.14782,0 0.26876,-4.5 0.26876,-10 z m 153,55.5 0,-67.5 67,0 67,0 0,67.5 0,67.5 -67,0 -67,0 0,-67.5 z m 33,53.5 0,-12 -15.5,0 -15.5,0 0,12 0,12 15.5,0 15.5,0 0,-12 z m 7,-1 0,-13 11.5,0 11.5,0 0,13 0,13 5,0 5,0 0,-13 0,-13 11.5,0 11.5,0 0,13 0,13 5.5,0 5.5,0 0,-13 0,-13 12.5,0 12.5,0 0,-5.5 0,-5.5 -12.5,0 -12.5,0 0,-11.5 0,-11.5 12.5,0 12.5,0 0,-5 0,-5 -12.5,0 -12.5,0 0,-11.5 0,-11.5 12.5,0 12.5,0 0,-2.5 0,-2.5 -12.5,0 -12.5,0 0,-16.5 0,-16.5 -5.5,0 -5.5,0 0,16.5 0,16.5 -11.5,0 -11.5,0 0,-16.5 0,-16.5 -5,0 -5,0 0,16.5 0,16.5 -11.5,0 -11.5,0 0,-16.5 0,-16.5 -2.5,0 -2.5,0 0,16.5 0,16.5 -16.5,0 -16.5,0 0,36 0,36 16.5,0 16.5,0 0,13 0,13 2.5,0 2.5,0 0,-13 z m 33,-35.5 0,-11.5 11.5,0 11.5,0 0,11.5 0,11.5 -11.5,0 -11.5,0 0,-11.5 z m 19,9.22792 c 0,-0.14964 -3.825,-4.07721 -8.5,-8.72792 l -8.5,-8.45584 0,8.72792 0,8.72792 8.5,0 c 4.675,0 8.5,-0.12243 8.5,-0.27208 z m 2,-9.72792 0,-9 -9.22915,0 -9.22915,0 8.9583,9 c 4.92707,4.95 9.08018,9 9.22915,9 0.14897,0 0.27085,-4.05 0.27085,-9 z m -54,-32.5 0,-11.5 11.5,0 11.5,0 0,11.5 0,11.5 -11.5,0 -11.5,0 0,-11.5 z m 19,9.22792 c 0,-0.14964 -3.825,-4.07721 -8.5,-8.72792 l -8.5,-8.45584 0,8.72792 0,8.72792 8.5,0 c 4.675,0 8.5,-0.12243 8.5,-0.27208 z m 2,-9.72792 0,-9 -9.22915,0 -9.22915,0 8.9583,9 c 4.92707,4.95 9.08018,9 9.22915,9 0.14897,0 0.27085,-4.05 0.27085,-9 z m 12,0.5 0,-11.5 11.5,0 11.5,0 0,11.5 0,11.5 -11.5,0 -11.5,0 0,-11.5 z m 21,0 0,-9.5 -9.5,0 -9.5,0 0,9.5 0,9.5 9.5,0 9.5,0 0,-9.5 z m -33,69.5 0,-12 -9.5,0 -9.5,0 0,12 0,12 9.5,0 9.5,0 0,-12 z m 33,0 0,-12 -9.5,0 -9.5,0 0,12 0,12 9.5,0 9.5,0 0,-12 z m 37,11.73295 c 0,-0.14688 -4.95,-5.20171 -11,-11.23295 l -11,-10.96589 0,11.23294 0,11.23295 11,0 c 6.05,0 11,-0.12017 11,-0.26705 z m 1,-12.73295 0,-11 -11.23295,0 -11.23294,0 10.96589,11 c 6.03124,6.05 11.08607,11 11.23295,11 0.14688,0 0.26705,-4.95 0.26705,-11 z m 0,-35.5 0,-9.5 -11.5,0 -11.5,0 0,9.5 0,9.5 11.5,0 11.5,0 0,-9.5 z m 0,-33 0,-9.5 -11.5,0 -11.5,0 0,9.5 0,9.5 11.5,0 11.5,0 0,-9.5 z m -101,-18.76293 c 0,-0.14462 -6.525,-6.7763 -14.5,-14.73707 l -14.5,-14.47413 0,14.73706 0,14.73707 14.5,0 c 7.975,0 14.5,-0.11832 14.5,-0.26293 z m 30,-15.23707 0,-15.5 -9.5,0 -9.5,0 0,15.5 0,15.5 9.5,0 9.5,0 0,-15.5 z m 33,0 0,-15.5 -9.5,0 -9.5,0 0,15.5 0,15.5 9.5,0 9.5,0 0,-15.5 z m 38,0 0,-15.5 -11.5,0 -11.5,0 0,15.5 0,15.5 11.5,0 11.5,0 0,-15.5 z m -99,-0.5 0,-15 -15.2375,0 -15.23749,0 14.97499,15 c 8.23625,8.25 15.09312,15 15.2375,15 0.14437,0 0.2625,-6.75 0.2625,-15 z M 3.5178308,34.849323 l 0,-67 67.0000002,0 66.999999,0 0,67 0,66.999997 -66.999999,0 -67.0000002,0 0,-66.999997 z M 106.51783,99.595613 c 0,-0.13955 -22.724999,-22.97537 -50.499999,-50.74629 L 5.5178308,-1.643251 l 0,50.746284 0,50.74629 50.5000002,0 c 27.775,0 50.499999,-0.11417 50.499999,-0.25371 z M 70.014901,35.843241 6.0178308,-28.162842 l -0.283577,11.718963 -0.283577,11.718963 52.2800052,52.287119 52.280008,52.28712 12.00064,0 12.00064,0 -63.997069,-64.006082 z m 13.290079,-13.706798 -52.280006,-52.28712 -12.000642,0 -12.0006422,0 63.9970712,64.006082 63.997069,64.006078 0.28358,-11.71896 0.28357,-11.71896 -52.28,-52.28712 z m 52.21285,-1.78712 0,-50.5 -50.746286,0 -50.746287,0 50.492574,50.5 c 27.770919,27.775 50.606739,50.5 50.746289,50.5 0.13954,0 0.25371,-22.725 0.25371,-50.5 z m 44,14.5 0,-67 67.5,0 67.5,0 0,67 0,66.999997 -67.5,0 -67.5,0 0,-66.999997 z m 127,64.02032 c 0,-0.53882 -1.74339,-1.86909 -3.87421,-2.95615 -4.19384,-2.13953 -9.12579,-7.34987 -9.12579,-9.6409 0,-0.7828 -0.675,-1.42327 -1.5,-1.42327 -0.825,0 -1.5,-0.45 -1.5,-1 0,-0.55 0.5051,-1 1.12244,-1 0.77551,0 0.73766,-0.46364 -0.12244,-1.5 -0.95974,-1.15642 -3.61414,-1.5 -11.58861,-1.5 l -10.34373,0 -0.28383,-10.75 -0.28383,-10.75 -5.09141,-0.5 c -5.65499,-0.55535 -8.28709,-2.31477 -19.00681,-12.705046 -4.39602,-4.260926 -6.40178,-6.963248 -6.40178,-8.625 0,-1.884015 -0.65849,-2.551653 -2.97333,-3.014621 -2.10096,-0.420191 -3.16049,-1.340322 -3.61119,-3.136079 -0.35082,-1.397777 -1.91372,-3.449904 -3.4731,-4.560284 -2.31822,-1.650718 -2.8906,-2.879599 -3.13881,-6.73892 l -0.30357,-4.72005 -10.75,-0.283832 -10.75,-0.283831 0,-10.466169 0,-10.466168 -4.68555,0 c -5.04436,0 -9.31445,-2.774399 -9.31445,-6.051869 0,-2.103322 -1.65912,-3.471482 -5.25,-4.329296 l -2.75,-0.656939 0,59.019052 0,59.019052 62.5,0 c 40.1356,0 62.5,-0.35056 62.5,-0.97968 z m -16,-1.02032 c 0,-0.55 0.45,-1 1,-1 0.55,0 1,0.45 1,1 0,0.55 -0.45,1 -1,1 -0.55,0 -1,-0.45 -1,-1 z m 0.5,-5 c 0.33992,-0.55 0.81648,-1 1.05902,-1 0.24254,0 0.44098,0.45 0.44098,1 0,0.55 -0.47656,1 -1.05902,1 -0.58246,0 -0.7809,-0.45 -0.44098,-1 z m -0.5,-4 c 0,-0.55 0.45,-1 1,-1 0.55,0 1,0.45 1,1 0,0.55 -0.45,1 -1,1 -0.55,0 -1,-0.45 -1,-1 z m -106,-97 c 0,-0.55 0.45,-1 1,-1 0.55,0 1,0.45 1,1 0,0.55 -0.45,1 -1,1 -0.55,0 -1,-0.45 -1,-1 z m 5,-0.05902 c 0,-0.582459 0.45,-0.780902 1,-0.440983 0.55,0.339919 1,0.816476 1,1.059017 0,0.242544 -0.45,0.440986 -1,0.440986 -0.55,0 -1,-0.476558 -1,-1.059017 z m 121,107.68146 c 0,-0.20765 -0.6853,-0.9463 -1.52289,-1.64144 -1.27335,-1.05678 -1.41968,-0.99492 -0.89301,0.37756 0.53789,1.40173 2.4159,2.384217 2.4159,1.26388 z m 2,-65.12244 0,-64.5 -64.72772,0 -64.72771,0 64.47093,64.5 c 35.45901,35.475 64.58649,64.5 64.72772,64.5 0.14123,0 0.25678,-29.025 0.25678,-64.5 z m -11.52342,55.47634 c -6.00011,-6.06338 -8.48362,-6.60371 -4.47457,-0.97352 1.75097,2.45902 7.91556,6.75957 9.96669,6.95298 0.25778,0.0243 -2.21367,-2.66645 -5.49212,-5.97946 z m -11.47658,-11.24609 c 0,-0.14836 -4.275,-4.52698 -9.5,-9.73025 l -9.5,-9.4605 0,9.73025 0,9.73025 9.5,0 c 5.225,0 9.5,-0.12139 9.5,-0.26975 z M 247.50868,36.327108 C 227.31797,16.105489 227.01301,15.852255 226.68872,19.038303 c -0.26226,2.576632 0.27584,3.749096 2.64913,5.772214 1.63803,1.396343 3.48947,3.551306 4.1143,4.788806 0.62482,1.2375 1.96511,2.25 2.97842,2.25 2.29569,0 4.29497,2.290894 3.59839,4.123252 -0.51888,1.36494 10.19727,13.876748 11.8852,13.876748 0.4737,0 2.60461,1.575 4.73535,3.5 2.97179,2.68483 4.74467,3.5 7.61205,3.5 l 3.73797,0 -20.49085,-20.522215 z m -33.0106,-33.002834 -9.48025,-9.525049 -0.29313,8.19146 c -0.16122,4.505302 -0.0628,8.791574 0.21861,9.525049 0.37554,0.978622 2.97696,1.333589 9.77338,1.333589 l 9.26164,0 -9.48025,-9.525049 z m -22.49901,-22.507609 c -9.35549,-9.403679 -10.00181,-9.866302 -10.30932,-7.37917 -0.57919,4.684373 0.62623,7.411828 3.2757,7.411828 2.76949,0 5.11728,2.019853 6.10926,5.25592 1.16237,3.791916 2.52653,4.74408 6.7968,4.74408 l 4.1088,0 -9.98124,-10.032658 z m 164.51876,54.032658 0,-67 67,0 67,0 0,67 0,66.999997 -67,0 -67,0 0,-66.999997 z m 99,58 0,-7 -16.5,0 -16.5,0 0,-8.5 0,-8.5 -7,0 -7,0 0,-16.5 0,-16.5 -11,0 -11,0 0,-7.5 0,-7.5 -14,0 -14,0 0,39.5 0,39.5 48.5,0 48.5,0 0,-7 z m 18,0 0,-7 -8,0 -8,0 0,7 0,7 8,0 8,0 0,-7 z m 14,6.7187 c 0,-0.15472 -2.7,-2.95313 -6,-6.2187 l -6,-5.93739 0,6.21869 0,6.2187 6,0 c 3.3,0 6,-0.12659 6,-0.2813 z m 1,-7.7187 0,-6 -6.2187,0 -6.21869,0 5.93739,6 c 3.26557,3.3 6.06398,6 6.2187,6 0.15471,0 0.2813,-2.7 0.2813,-6 z m -33,-15.5 0,-7.5 -15.5,0 -15.5,0 0,7.5 0,7.5 15.5,0 15.5,0 0,-7.5 z m 16,7.22318 c 0,-0.15225 -3.15,-3.40268 -7,-7.22318 l -7,-6.94636 0,7.22318 0,7.22318 7,0 c 3.85,0 7,-0.12457 7,-0.27682 z m 17,-7.22318 0,-7.5 -6.5,0 -6.5,0 0,7.5 0,7.5 6.5,0 6.5,0 0,-7.5 z m -15,-0.5 0,-7 -7.22318,0 -7.22318,0 6.94636,7 c 3.8205,3.85 7.07093,7 7.22318,7 0.15225,0 0.27682,-3.15 0.27682,-7 z m -51,-24.5 0,-15.5 -6,0 -6,0 0,15.5 0,15.5 6,0 6,0 0,-15.5 z m 32,15.2375 c 0,-0.14438 -6.75,-7.00125 -15,-15.2375 l -15,-14.974993 0,15.237493 0,15.2375 15,0 c 8.25,0 15,-0.11813 15,-0.2625 z m 19,-15.7375 0,-16 -8,0 -8,0 0,16 0,16 8,0 8,0 0,-16 z m 15,-32.5 0,-48.5 -39,0 -39,0 0,14 0,14 7,0 7,0 0,10.5 0,10.5 16.5,0 16.5,0 0,7 0,7 9,0 9,0 0,17 0,17 6.5,0 6.5,0 0,-48.5 z m -33,31.5 0,-15 -15.2375,0 -15.23749,0 14.97499,15 c 8.23625,8.25 15.09312,15 15.2375,15 0.14437,0 0.2625,-6.75 0.2625,-15 z m -47,-22.5 0,-6.5 -10,0 -10,0 0,6.5 0,6.5 10,0 10,0 0,-6.5 z m 13,6.21584 c 0,-0.156288 -2.475,-2.728416 -5.5,-5.71584 l -5.5,-5.43168 0,5.71584 0,5.71584 5.5,0 c 3.025,0 5.5,-0.127872 5.5,-0.28416 z m 34,-6.71584 0,-6 -15.5,0 -15.5,0 0,6 0,6 15.5,0 15.5,0 0,-6 z m -33,-0.5 0,-5.5 -5.71584,0 -5.71584,0 5.43168,5.5 c 2.98742,3.025 5.55955,5.5 5.71584,5.5 0.15629,0 0.28416,-2.475 0.28416,-5.5 z m -36,-17 0,-9.5 -14,0 -14,0 0,9.5 0,9.5 14,0 14,0 0,-9.5 z m 20,9.229151 c 0,-0.148967 -4.05,-4.302085 -9,-9.229151 l -9,-8.958301 0,9.22915 0,9.229151 9,0 c 4.95,0 9,-0.121882 9,-0.270849 z m 16,-9.229151 0,-9.5 -6,0 -6,0 0,9.5 0,9.5 6,0 6,0 0,-9.5 z m -14,-0.5 0,-9 -9.22915,0 -9.22915,0 8.9583,9 c 4.92707,4.95 9.08018,9 9.22915,9 0.14897,0 0.27085,-4.05 0.27085,-9 z m -23,-11.263894 c 0,-0.145141 -6.075,-6.326389 -13.5,-13.736106 l -13.5,-13.472213 0,13.736107 0,13.736106 13.5,0 c 7.425,0 13.5,-0.118752 13.5,-0.263894 z m 23,-13.736106 0,-14 -10,0 -10,0 0,14 0,14 10,0 10,0 0,-14 z m -22,-1 0,-13 -13.23557,0 -13.23557,0 12.97114,13 c 7.13413,7.15 13.09014,13 13.23557,13 0.14544,0 0.26443,-5.85 0.26443,-13 z"
         id="path4209"
         inkscape:connector-curvature="0" />
      <path
         style="fill:#020202"
         d="m 3.5178308,565.84932 0,-67 67.0000002,0 66.999999,0 0,67 0,67 -66.999999,0 -67.0000002,0 0,-67 z m 131.7572892,-0.25 0.2573,-64.75 -61.507295,0 -61.507294,0 0,3.34501 c 0,2.07502 0.759335,4.0322 2,5.15499 1.952285,1.76679 2,1.74663 2,-0.84501 0,-1.46025 0.45,-2.65499 1,-2.65499 0.55,0 1,1.6585 1,3.68555 0,2.39767 0.786243,4.57917 2.25,6.24284 1.939757,2.20469 1.963372,2.31699 0.171259,0.81446 -1.248007,-1.04635 -3.745713,-1.74285 -6.25,-1.74285 -2.294192,0 -4.171259,-0.45 -4.171259,-1 0,-0.55 1.428441,-1 3.174314,-1 l 3.174314,0 -2.348628,-2.5 c -1.592098,-1.69471 -3.419883,-2.5 -5.6743142,-2.5 l -3.325686,0 0,61.50729 0,61.5073 64.7500002,-0.2573 64.749999,-0.25729 0.25729,-64.75 z m -14.00729,63.50279 c -7.04314,-0.17265 -12.75,-0.73211 -12.75,-1.24992 0,-0.51555 5.0625,-1.06461 11.25,-1.22012 l 11.25,-0.28275 0.28275,-11.25 c 0.15551,-6.1875 0.693,-11.25 1.19441,-11.25 0.50141,0 1.04917,5.85079 1.21725,13.00175 0.16807,7.15096 0.30559,12.90316 0.30559,12.78267 0,-0.1205 -5.7375,-0.35973 -12.75,-0.53163 z m 7.75,-4.25279 c -0.33992,-0.55 -4.64148,-1 -9.55902,-1 -10.99711,0 -11.969,-1.80176 -1.19098,-2.20794 l 7.75,-0.29206 0.29381,-7.25 c 0.40634,-10.02681 2.20619,-9.17021 2.20619,1.05 0,5.12222 0.45944,8.75944 1.2,9.5 0.66,0.66 0.91156,1.2 0.55902,1.2 -0.35254,0 -0.9191,-0.45 -1.25902,-1 z m -5.5,-5.5 c -0.7952,-0.95816 -3.00679,-1.5 -6.12244,-1.5 -5.71357,0 -6.60757,-1.73609 -1.12756,-2.18963 3.54636,-0.29352 3.76685,-0.51401 4.06037,-4.06037 0.44467,-5.37275 2.18963,-4.63858 2.18963,0.92126 0,2.94333 0.61219,5.34772 1.65499,6.5 0.91024,1.00581 1.41534,1.82874 1.12244,1.82874 -0.2929,0 -1.09274,-0.675 -1.77743,-1.5 z m -6.5,-6.5 c -1.53452,-1.69563 -3.07997,-2 -10.15499,-2 -10.254719,0 -11.147539,-1.79881 -1.09501,-2.20619 l 7.25,-0.29381 0.29381,-7.25 c 0.40368,-9.96127 2.20619,-9.19691 2.20619,0.93555 0,7.02799 0.30748,8.51284 2.17431,10.5 1.19588,1.27295 1.94062,2.31445 1.65499,2.31445 -0.28563,0 -1.33381,-0.9 -2.3293,-2 z m -6,-6 c -0.39147,-0.63342 -12.510379,-1 -33.059016,-1 -20.648086,0 -32.440983,-0.35834 -32.440983,-0.98575 0,-0.62101 11.563138,-1.08353 31.25,-1.25 l 31.249999,-0.26425 0.26445,-30.75 c 0.16645,-19.35384 0.6297,-30.75 1.25,-30.75 0.62674,0 0.98555,11.57754 0.98555,31.8 0,23.4 0.31698,32.11698 1.2,33 0.66,0.66 0.91156,1.2 0.55902,1.2 -0.35254,0 -0.9191,-0.45 -1.25902,-1 z m -6,-6 c -1.72104,-1.90172 -3.07997,-2 -27.654987,-2 -16.256989,0 -25.845012,-0.3645 -25.845012,-0.98253 0,-0.6097 9.391523,-1.08402 24.75,-1.25 l 24.749999,-0.26747 0.26843,-23.25 c 0.16579,-14.35998 0.64375,-23.25 1.25,-23.25 0.61504,0 0.98157,9.03126 0.98157,24.18555 0,23.45556 0.0656,24.2554 2.17431,26.5 1.19588,1.27295 1.94062,2.31445 1.65499,2.31445 -0.28563,0 -1.33381,-0.9 -2.3293,-2 z m -6.499999,-6.5 c -0.84818,-1.02199 -3.1179,-1.5 -7.12244,-1.5 -7.01195,0 -7.915774,-1.75963 -1.12756,-2.19521 l 4.75,-0.30479 0.30479,-4.75 c 0.42857,-6.67899 2.19521,-5.93759 2.19521,0.92126 0,3.87384 0.52452,6.25085 1.65499,7.5 0.910239,1.00581 1.415339,1.82874 1.122439,1.82874 -0.2929,0 -1.092739,-0.675 -1.777429,-1.5 z m -7,-7 c -2.237078,-2.38126 -2.88655,-2.5 -13.674314,-2.5 -14.283897,0 -15.169289,-1.82317 -1.075686,-2.21502 l 10.25,-0.28498 0.286212,-9.75 c 0.391253,-13.3283 2.213788,-12.55008 2.213788,0.94528 0,10.24436 0.113289,10.81353 2.68709,13.5 1.4779,1.5426 2.45634,2.80472 2.17432,2.80472 -0.28203,0 -1.56966,-1.125 -2.86141,-2.5 z m -7.5,-7.5 c -1.379919,-1.52479 -3.079967,-2 -7.154988,-2 -6.338435,0 -7.212394,-1.74989 -1.095012,-2.1925 4.229339,-0.30601 4.251495,-0.32816 4.557498,-4.5575 0.436545,-6.0336 2.192502,-5.28432 2.192502,0.93555 0,3.94782 0.518982,5.73798 2.174314,7.5 1.195873,1.27295 1.940617,2.31445 1.654988,2.31445 -0.28563,0 -1.333816,-0.9 -2.329302,-2 z m -6.5,-6.5 c -0.988634,-1.19123 -3.89568,-1.5 -14.122445,-1.5 -16.390235,0 -17.320434,-1.83 -1.127555,-2.21826 l 11.75,-0.28174 0.281735,-11.75 c 0.385375,-16.07236 2.218265,-15.31114 2.218265,0.92126 0,10.38741 0.298292,13.00087 1.654988,14.5 0.910243,1.00581 1.415343,1.82874 1.122444,1.82874 -0.292898,0 -1.092743,-0.675 -1.777432,-1.5 z m -6,-6 c -0.900714,-1.08529 -3.284569,-1.5 -8.622445,-1.5 -8.960849,0 -9.875064,-1.7856 -1.127555,-2.20228 l 6.25,-0.29772 0.297717,-6.25 c 0.411392,-8.63636 2.202283,-7.88719 2.202283,0.92126 0,5.26961 0.438864,7.6562 1.654988,9 0.910243,1.00581 1.415343,1.82874 1.122444,1.82874 -0.292898,0 -1.092743,-0.675 -1.777432,-1.5 z m -6,-6 c -1.033825,-1.24568 -4.784569,-1.5 -22.122445,-1.5 -13.251703,0 -20.877555,-0.36527 -20.877555,-1 0,-0.63278 7.224771,-1 19.674314,-1 l 19.674314,0 -2.348628,-2.5 c -2.211111,-2.35362 -2.953216,-2.5 -12.674314,-2.5 -12.915967,0 -13.799363,-1.81697 -1.075686,-2.21247 l 9.25,-0.28753 0.287526,-9.25 c 0.395848,-12.73485 2.212474,-11.83575 2.212474,1.09501 0,9.07502 0.245527,10.56721 2,12.15499 1.993209,1.80383 2,1.74663 2,-16.84501 0,-11.76999 0.36907,-18.65499 1,-18.65499 0.632801,0 1,7.22852 1,19.68555 0,18.83531 0.09391,19.78551 2.174314,22 1.195873,1.27295 1.925973,2.31445 1.622445,2.31445 -0.303528,0 -1.11207,-0.675 -1.796759,-1.5 z m -13,-13 c -0.960223,-1.157 -3.617902,-1.5 -11.622445,-1.5 -12.955691,0 -13.88121,-1.81604 -1.127555,-2.21247 l 9.25,-0.28753 0.287526,-9.25 c 0.39272,-12.63421 2.212474,-11.87648 2.212474,0.92126 0,8.06114 0.343342,10.55065 1.654988,12 0.910243,1.00581 1.415343,1.82874 1.122444,1.82874 -0.292898,0 -1.092743,-0.675 -1.777432,-1.5 z m -6,-6 c -0.824153,-0.99304 -3.062346,-1.5 -6.622445,-1.5 -6.362648,0 -7.261947,-1.74866 -1.127555,-2.1925 4.125373,-0.29848 4.259101,-0.41747 4.560365,-4.0575 0.444671,-5.37275 2.189635,-4.63858 2.189635,0.92126 0,2.94333 0.61219,5.34772 1.654988,6.5 0.910243,1.00581 1.415343,1.82874 1.122444,1.82874 -0.292898,0 -1.092743,-0.675 -1.777432,-1.5 z m -6.5,-6.5 c -1.563999,-1.7282 -3.079967,-2 -11.154988,-2 -11.592479,0 -12.488707,-1.80844 -1.095012,-2.20956 l 8.25,-0.29044 0.290442,-8.25 c 0.397883,-11.30184 2.209558,-10.53476 2.209558,0.93555 0,8.05471 0.26768,9.47048 2.174314,11.5 1.195873,1.27295 1.940617,2.31445 1.654988,2.31445 -0.28563,0 -1.333816,-0.9 -2.329302,-2 z m -7,-7 c -1.335538,-1.47575 -3.079967,-2 -6.654988,-2 -5.689301,0 -6.558196,-1.73748 -1.095012,-2.18963 3.546357,-0.29352 3.766854,-0.51401 4.060365,-4.06037 0.445289,-5.38022 2.189635,-4.63493 2.189635,0.93555 0,3.43446 0.580563,5.30353 2.174314,7 1.195873,1.27295 1.940617,2.31445 1.654988,2.31445 -0.28563,0 -1.333816,-0.9 -2.329302,-2 z m -6.5,-6.5 c -0.925286,-1.1149 -3.39568,-1.5 -9.622445,-1.5 -10.2796882,0 -11.1986512,-1.79805 -1.127555,-2.20619 l 7.25,-0.29381 0.29381,-7.25 c 0.403352,-9.95307 2.20619,-9.20025 2.20619,0.92126 0,6.20012 0.39923,8.6124 1.654988,10 0.910243,1.00581 1.415343,1.82874 1.122444,1.82874 -0.292898,0 -1.092743,-0.675 -1.777432,-1.5 z m -16.16996,-19.33004 c 0.274624,-1.93881 -0.06119,-2.27462 -2.0000002,-2 -1.55336,0.22003 -2.440053,1.10672 -2.66008,2.66008 -0.274624,1.93881 0.06119,2.27462 2,2 1.55336,-0.22003 2.4400532,-1.10672 2.6600802,-2.66008 z m -2.9575952,0.08 c -1.243871,-1.58606 -1.208501,-1.62143 0.377555,-0.37756 0.9625,0.75485 1.75,1.54235 1.75,1.75 0,0.82304 -0.821186,0.29331 -2.127555,-1.37244 z m 173.1275542,62.75004 0,-67 67.5,0 67.5,0 0,67 0,67 -67.5,0 -67.5,0 0,-67 z m 97,60.5 0,-4.5 5.5,0 5.5,0 0,4.5 0,4.5 4,0 c 3.77778,0 4,-0.16667 4,-3 0,-2.66667 0.33333,-3 3,-3 2.53333,0 3,-0.38889 3,-2.5 0,-2.25 -0.4,-2.5 -4,-2.5 l -4,0 0,-5 0,-5 4.5,0 4.5,0 0,4.5 c 0,3.83333 0.2963,4.5 2,4.5 1.33333,0 2,-0.66667 2,-2 0,-1.55556 0.66667,-2 3,-2 2.7619,0 3,-0.27778 3,-3.5 l 0,-3.5 -5.5,0 -5.5,0 0,-6.5 0,-6.5 5.5,0 5.5,0 0,-47 0,-47 -38.5,0 -38.5,0 0,4.5 0,4.5 -10.5,0 -10.5,0 0,-4.5 0,-4.5 -12.5,0 -12.5,0 0,3.5 c 0,3.41667 -0.0952,3.5 -4,3.5 l -4,0 0,13 0,13 4.5,0 4.5,0 0,10 0,10 -4.5,0 -4.5,0 0,38.5 0,38.5 47.5,0 47.5,0 0,-4.5 z m -51,-7.5 0,-7 5,0 5,0 0,7 0,7 -5,0 -5,0 0,-7 z m 8,0 c 0,-4.88889 -0.0667,-5 -3,-5 -2.93333,0 -3,0.11111 -3,5 0,4.88889 0.0667,5 3,5 2.93333,0 3,-0.11111 3,-5 z m 36,-9.5 0,-7.5 4,0 4,0 0,7.5 0,7.5 -4,0 -4,0 0,-7.5 z m 6,0 c 0,-4.83333 -0.24242,-5.5 -2,-5.5 -1.75758,0 -2,0.66667 -2,5.5 0,4.83333 0.24242,5.5 2,5.5 1.75758,0 2,-0.66667 2,-5.5 z m -73,-2 0,-6.5 5.5,0 5.5,0 0,6.5 0,6.5 -5.5,0 -5.5,0 0,-6.5 z m 9,0 c 0,-4.47619 -0.0185,-4.5 -3.5,-4.5 -3.48148,0 -3.5,0.0238 -3.5,4.5 0,4.47619 0.0185,4.5 3.5,4.5 3.48148,0 3.5,-0.0238 3.5,-4.5 z m 48,-5 0,-7.5 4,0 4,0 0,7.5 0,7.5 -4,0 -4,0 0,-7.5 z m 6,0 c 0,-4.83333 -0.24242,-5.5 -2,-5.5 -1.75758,0 -2,0.66667 -2,5.5 0,4.83333 0.24242,5.5 2,5.5 1.75758,0 2,-0.66667 2,-5.5 z m 14,1.5 0,-6 5.5,0 5.5,0 0,6 0,6 -5.5,0 -5.5,0 0,-6 z m 9,0 c 0,-3.90476 -0.0833,-4 -3.5,-4 -3.41667,0 -3.5,0.0952 -3.5,4 0,3.90476 0.0833,4 3.5,4 3.41667,0 3.5,-0.0952 3.5,-4 z m -104,-7 0,-7 5,0 5,0 0,7 0,7 -5,0 -5,0 0,-7 z m 8,0 c 0,-4.88889 -0.0667,-5 -3,-5 -2.93333,0 -3,0.11111 -3,5 0,4.88889 0.0667,5 3,5 2.93333,0 3,-0.11111 3,-5 z m 53,-1.5 0,-8.5 6,0 6,0 0,8.5 0,8.5 -6,0 -6,0 0,-8.5 z m 10,0 0,-6.5 -4,0 -4,0 0,6.5 0,6.5 4,0 4,0 0,-6.5 z m 14,-2.5 0,-4 4.5,0 4.5,0 0,4 0,4 -4.5,0 -4.5,0 0,-4 z m 7,0 c 0,-1.46667 -0.66667,-2 -2.5,-2 -1.83333,0 -2.5,0.53333 -2.5,2 0,1.46667 0.66667,2 2.5,2 1.83333,0 2.5,-0.53333 2.5,-2 z m 6,0 0,-4 8,0 8,0 0,4 0,4 -8,0 -8,0 0,-4 z m 14,0 c 0,-1.77778 -0.66667,-2 -6,-2 -5.33333,0 -6,0.22222 -6,2 0,1.77778 0.66667,2 6,2 5.33333,0 6,-0.22222 6,-2 z m -38,-7 0,-7 7.5,0 7.5,0 0,4 c 0,3.77778 -0.16667,4 -3,4 -2.66667,0 -3,0.33333 -3,3 0,2.88889 -0.16667,3 -4.5,3 l -4.5,0 0,-7 z m 7,2 c 0,-2.66667 0.33333,-3 3,-3 2.33333,0 3,-0.44444 3,-2 0,-1.75758 -0.66667,-2 -5.5,-2 l -5.5,0 0,5 c 0,4.66667 0.16667,5 2.5,5 2.11111,0 2.5,-0.46667 2.5,-3 z m -33,-2.43358 c 0,-5.15988 -0.13852,-5.45456 -2.75,-5.85017 -2.60269,-0.39427 -2.57884,-0.42461 0.44521,-0.56642 3.06715,-0.14383 3.21022,-0.3402 3.56975,-4.89983 l 0.37454,-4.75 0.18025,4.75 0.18025,4.75 5,0 5,0 0,6 0,6 -6,0 -6,0 0,-5.43358 z m 10,-0.56642 c 0,-4 0,-4 -4,-4 -4,0 -4,0 -4,4 0,4 0,4 4,4 4,0 4,0 4,-4 z m -39,-2.5 0,-6.5 5,0 5,0 0,6.5 0,6.5 -5,0 -5,0 0,-6.5 z m 8,0 c 0,-4.33333 -0.11111,-4.5 -3,-4.5 -2.88889,0 -3,0.16667 -3,4.5 0,4.33333 0.11111,4.5 3,4.5 2.88889,0 3,-0.16667 3,-4.5 z m 65,1.5 0,-4 6.5,0 6.5,0 0,4 0,4 -6.5,0 -6.5,0 0,-4 z m 11,0 c 0,-1.7037 -0.66667,-2 -4.5,-2 -3.83333,0 -4.5,0.2963 -4.5,2 0,1.7037 0.66667,2 4.5,2 3.83333,0 4.5,-0.2963 4.5,-2 z m -104,-11 0,-8 4.5,0 4.5,0 0,8 0,8 -4.5,0 -4.5,0 0,-8 z m 7,0 c 0,-5.73333 -0.11111,-6 -2.5,-6 -2.38889,0 -2.5,0.26667 -2.5,6 0,5.73333 0.11111,6 2.5,6 2.38889,0 2.5,-0.26667 2.5,-6 z m 56,-0.93664 c 0,-4.82015 -0.0767,-4.94616 -3.25,-5.33996 -3.19982,-0.3971 -3.1921,-0.4058 0.5,-0.56336 l 3.75,-0.16004 0,5 0,5 5,0 5,0 0,-4.4425 0,-4.4425 -4.25,-0.38279 -4.25,-0.3828 4.75,-0.1747 4.75,-0.17471 0,5.5 0,5.5 -6,0 -6,0 0,-4.93664 z m 23,-0.56336 0,-5.5 7.5,0 7.5,0 0,5.5 0,5.5 -7.5,0 -7.5,0 0,-5.5 z m 13,0 0,-3.5 -5.5,0 -5.5,0 0,3.5 0,3.5 5.5,0 5.5,0 0,-3.5 z m -55.74912,-4.5 c 0.24816,-0.92334 1.71907,-1.55414 3.82613,-1.64083 3.13574,-0.12901 3.17151,-0.10046 0.42624,0.34023 -1.64821,0.26459 -3.36997,1.00296 -3.82613,1.64083 -0.56008,0.78319 -0.69848,0.67271 -0.42624,-0.34023 z m -33.25088,-7.5 0,-7.5 4.5,0 4.5,0 0,7.5 0,7.5 -4.5,0 -4.5,0 0,-7.5 z m 7,0 c 0,-5.2 -0.13636,-5.5 -2.5,-5.5 -2.36364,0 -2.5,0.3 -2.5,5.5 0,5.2 0.13636,5.5 2.5,5.5 2.36364,0 2.5,-0.3 2.5,-5.5 z m 61,0 0,-4.5 -3.93358,0 c -3.52352,0 -3.977,0.28668 -4.35017,2.75 -0.40536,2.67588 -0.42062,2.6663 -0.56642,-0.3554 l -0.14983,-3.10539 6.75,-0.6375 c 3.7125,-0.35062 8.4375,-0.64069 10.5,-0.6446 l 3.75,-0.007 0,5.5 0,5.5 -6,0 -6,0 0,-4.5 z m 10,-1 c 0,-3.41667 -0.0952,-3.5 -4,-3.5 -3.90476,0 -4,0.0833 -4,3.5 0,3.41667 0.0952,3.5 4,3.5 3.90476,0 4,-0.0833 4,-3.5 z m -49.23834,3.79274 c 1.24391,-0.23919 3.04391,-0.23011 4,0.0202 0.95609,0.25029 -0.0617,0.446 -2.26166,0.4349 -2.2,-0.0111 -2.98225,-0.21589 -1.73834,-0.45508 z m 12.03278,-2.34555 0.43256,-2.94719 -7.1135,0 c -6.74467,0 -7.10749,-0.11666 -6.9975,-2.25 0.0873,-1.69317 0.22918,-1.81691 0.57333,-0.5 0.38002,1.45422 1.62804,1.75 7.38399,1.75 l 6.92668,0 0,2.94098 c 0,1.61754 -0.36858,3.16878 -0.81906,3.44719 -0.45048,0.27841 -0.6244,-0.82003 -0.3865,-2.44098 z m 4.40426,-12.69719 0.19869,-7.75 0.34512,7.25 c 0.33028,6.93851 0.45064,7.25 2.8013,7.25 1.3509,0 2.45619,-0.45 2.45619,-1 0,-0.55 0.9,-1 2,-1 1.33333,0 2,-0.66667 2,-2 0,-1.61905 -0.66667,-2 -3.5,-2 -3.41667,0 -3.5,-0.0952 -3.5,-4 l 0,-4 4.5,0 c 4.33333,0 4.5,0.11111 4.5,3 0,2.99492 0.0106,3.00029 6.25,3.1726 l 6.25,0.1726 -6.5,0.5774 c -6.18216,0.54917 -6.51547,0.71187 -6.81642,3.3274 -0.22354,1.94275 -0.88402,2.75 -2.25,2.75 -1.06347,0 -1.93358,0.45 -1.93358,1 0,0.55 -1.575,1 -3.5,1 l -3.5,0 0.1987,-7.75 z m 9.8013,-3.25 c 0,-1.46667 -0.66667,-2 -2.5,-2 -1.83333,0 -2.5,0.53333 -2.5,2 0,1.46667 0.66667,2 2.5,2 1.83333,0 2.5,-0.53333 2.5,-2 z m 44,6 0,-4 8,0 8,0 0,4 0,4 -8,0 -8,0 0,-4 z m 14,0 c 0,-1.77778 -0.66667,-2 -6,-2 -5.33333,0 -6,0.22222 -6,2 0,1.77778 0.66667,2 6,2 5.33333,0 6,-0.22222 6,-2 z m -82.83996,-0.25 c -0.13387,-3.13668 0.16706,-3.75 1.83996,-3.75 1.11111,0 2,-0.66667 2,-1.5 0,-0.99165 0.99185,-1.5 2.92668,-1.5 1.94642,0 3.07985,-0.58614 3.38399,-1.75 0.34415,-1.31691 0.48604,-1.19317 0.57333,0.5 0.0959,1.85911 -0.40518,2.25 -2.884,2.25 -2,0 -3,0.5 -3,1.5 0,0.825 -0.87149,1.5 -1.93664,1.5 -1.43553,0 -2.041,0.84095 -2.33996,3.25 -0.3971,3.19982 -0.4058,3.1921 -0.56336,-0.5 z m -10.16004,-10.75 0,-5 5.5,0 5.5,0 0,5 0,5 -5.5,0 -5.5,0 0,-5 z m 9,0 c 0,-2.7619 -0.27778,-3 -3.5,-3 -3.22222,0 -3.5,0.2381 -3.5,3 0,2.7619 0.27778,3 3.5,3 3.22222,0 3.5,-0.2381 3.5,-3 z m -19,-11 0,-5 5,0 5,0 0,5 0,5 -5,0 -5,0 0,-5 z m 8,0 c 0,-2.66667 -0.33333,-3 -3,-3 -2.66667,0 -3,0.33333 -3,3 0,2.66667 0.33333,3 3,3 2.66667,0 3,-0.33333 3,-3 z m 69,0.5 0,-4.5 6,0 6,0 0,4.5 0,4.5 -6,0 -6,0 0,-4.5 z m 10,0 c 0,-2.25 -0.4,-2.5 -4,-2.5 -3.6,0 -4,0.25 -4,2.5 0,2.25 0.4,2.5 4,2.5 3.6,0 4,-0.25 4,-2.5 z m -34,-3.5 0,-4 7,0 7,0 0,4 0,4 -7,0 -7,0 0,-4 z m 12,0 c 0,-1.73333 -0.66667,-2 -5,-2 -4.33333,0 -5,0.26667 -5,2 0,1.73333 0.66667,2 5,2 4.33333,0 5,-0.26667 5,-2 z m -78,-8 0,-6 6,0 6,0 0,6 0,6 -6,0 -6,0 0,-6 z m 10,0 c 0,-4 0,-4 -4,-4 -4,0 -4,0 -4,4 0,4 0,4 4,4 4,0 4,0 4,-4 z m 32,-0.5 0,-4.5 7.5,0 7.5,0 0,4.5 0,4.5 -7.5,0 -7.5,0 0,-4.5 z m 13,0 c 0,-2.36364 -0.3,-2.5 -5.5,-2.5 -5.2,0 -5.5,0.13636 -5.5,2.5 0,2.36364 0.3,2.5 5.5,2.5 5.2,0 5.5,-0.13636 5.5,-2.5 z m 26,-9.5 0,-5 6.5,0 6.5,0 0,5 0,5 -6.5,0 -6.5,0 0,-5 z m 11,0 c 0,-2.88889 -0.16667,-3 -4.5,-3 -4.33333,0 -4.5,0.11111 -4.5,3 0,2.88889 0.16667,3 4.5,3 4.33333,0 4.5,-0.11111 4.5,-3 z m -36,0 0,-4 7.5,0 7.5,0 0,4 0,4 -7.5,0 -7.5,0 0,-4 z m 13,0 c 0,-1.75758 -0.66667,-2 -5.5,-2 -4.83333,0 -5.5,0.24242 -5.5,2 0,1.75758 0.66667,2 5.5,2 4.83333,0 5.5,-0.24242 5.5,-2 z m 26,120.5 c 0,-3.33333 -0.16667,-3.5 -3.5,-3.5 -3.33333,0 -3.5,0.16667 -3.5,3.5 0,3.33333 0.16667,3.5 3.5,3.5 3.33333,0 3.5,-0.16667 3.5,-3.5 z m 27,-3.5 c 0,-6.33333 -0.19048,-7 -2,-7 -1.33333,0 -2,0.66667 -2,2 0,1.46667 -0.66667,2 -2.5,2 -2.11111,0 -2.5,0.46667 -2.5,3 0,2.66667 -0.33333,3 -3,3 -2.33333,0 -3,0.44444 -3,2 0,1.82222 0.66667,2 7.5,2 l 7.5,0 0,-7 z m -12,-9 c 0,-2.53333 -0.38889,-3 -2.5,-3 -2.11111,0 -2.5,0.46667 -2.5,3 0,2.53333 0.38889,3 2.5,3 2.11111,0 2.5,-0.46667 2.5,-3 z m 12,-13.5 0,-4.5 -4.5,0 -4.5,0 0,4.5 0,4.5 4.5,0 4.5,0 0,-4.5 z m -124,-57.5 0,-8 -3.5,0 -3.5,0 0,8 0,8 3.5,0 3.5,0 0,-8 z m 45,-39.5 0,-3.5 -8.5,0 -8.5,0 0,3.5 0,3.5 8.5,0 8.5,0 0,-3.5 z m -46,-1 c 0,-2.11111 -0.46667,-2.5 -3,-2.5 -2.53333,0 -3,0.38889 -3,2.5 0,2.11111 0.46667,2.5 3,2.5 2.53333,0 3,-0.38889 3,-2.5 z m -185.2209742,-59.75 c -0.153464,-7.2875 -0.158937,-37.6625 -0.01216,-67.5 l 0.266857,-54.25 66.9831392,0 66.983138,0 0,67.5 0,67.5 -66.970974,0 -66.9709752,0 -0.279025,-13.25 z m 107.2209742,-0.25 0,-11.5 -52.499999,0 -52.5000002,0 0,11.5 0,11.5 52.5000002,0 52.499999,0 0,-11.5 z m 24.78306,-0.28306 0.28306,-11.28306 -11.28306,0.28306 -11.28306,0.28306 -0.28306,11.28306 -0.28306,11.28306 11.28306,-0.28306 11.28306,-0.28306 0.28306,-11.28306 z m -11.80093,0.0331 -10.48213,-10.75 10.75,10.48213 c 9.98483,9.73603 11.20434,11.01787 10.48213,11.01787 -0.14732,0 -4.98482,-4.8375 -10.75,-10.75 z m -77.982129,-52.75 c -21.719778,-21.725 -39.8301422,-39.5 -40.2452532,-39.5 -0.415111,0 -0.754747,17.775 -0.754747,39.5 l 0,39.5 40.2452532,0 40.245253,0 -39.490506,-39.5 z m 64.758839,-13.75 0.25884,-52.75 -52.755267,0 -52.7552692,0 52.4964292,52.75 52.496427,52.75 -52.249999,-51.99639 -52.2500002,-51.9964 0,11.99182 0,11.99182 40.2500002,40.2753 40.25,40.2753 12,-0.27072 11.999999,-0.27073 0.25884,-52.75 z m 25.24116,0.25 0,-53 -11.5,0 -11.5,0 0,53 0,53 11.5,0 11.5,0 0,-53 z m 44,66.5 0,-13.5 40.74543,0 40.74542,0 -40.74542,-40.75452 -40.74543,-40.75452 0,-13.24548 0,-13.24548 67,0 67,0 0,67.5 0,67.5 -67,0 -67,0 0,-13.5 z m 120,0 -11.46738,-11.5 -53.26631,0 -53.26631,0 0,11.5 0,11.5 64.73369,0 64.73369,0 -11.46738,-11.5 z m 12,-1 0,-10.5 -10.73213,0 -10.73214,0 10.46427,10.5 c 5.75535,5.775 10.58481,10.5 10.73213,10.5 0.14733,0 0.26787,-4.725 0.26787,-10.5 z m -77.50361,-64.50697 -51.99639,-52.00697 -0.28472,11.21772 -0.28472,11.21772 40.78014,40.78925 40.78015,40.78925 11.50097,0 11.50097,0 -51.9964,-52.00697 z m 78.26245,-1.24303 0.25884,-52.75 -52.75527,0 -52.75527,0 52.49643,52.75 52.49643,52.75 -53.00351,-52.75 -53.0035,-52.75 -11.99296,0 -11.99295,0 52.99646,53.02036 52.99646,53.02036 12,-0.27036 12,-0.27036 0.25884,-52.75 z m 44.24116,66.75 0,-13.5 40.75,-0.003 40.75,-0.003 -40.75,-40.72204 -40.75,-40.72141 0,-13.27527 0,-13.27528 67,0 67,0 0,67.5 0,67.5 -67,0 -67,0 0,-13.5 z m 107,0 0,-11.5 -52.5,0 -52.5,0 0,11.5 0,11.5 52.5,0 52.5,0 0,-11.5 z m 24,11.23295 c 0,-0.14688 -4.95,-5.20171 -11,-11.23295 l -11,-10.96589 0,11.23294 0,11.23295 11,0 c 6.05,0 11,-0.12017 11,-0.26705 z m 1,-12.23295 0,-10.5 -10.73213,0 -10.73214,0 10.46427,10.5 c 5.75535,5.775 10.58481,10.5 10.73213,10.5 0.14733,0 0.26787,-4.725 0.26787,-10.5 z m -77.50361,-64.50676 -51.99639,-52.00676 -0.29918,11.75676 -0.29918,11.75676 40.48067,40.25 40.48067,40.25 11.8149,0 11.81491,0 -51.9964,-52.00676 z m 77.50361,-0.99324 0,-53 -52.25,0.003 -52.25,0.003 40.75,40.72141 40.75,40.72141 0,12.27527 0,12.27528 11.5,0 11.5,0 0,-53 z m -65.2118,-12.71185 -40.27894,-40.28815 -12.00102,0 -12.00103,0 51.9964,52.00676 51.99639,52.00676 0.28357,-11.71861 0.28357,-11.71861 -40.27894,-40.28815 z M 3.5178308,212.34932 l 0,-67.5 67.0000002,0 66.999999,0 0,67.5 0,67.5 -66.999999,0 -67.0000002,0 0,-67.5 z m 106.9999992,53.5 0,-12 -52.499999,0 -52.5000002,0 0,12 0,12 52.5000002,0 52.499999,0 0,-12 z m 24,11.73295 c 0,-0.14688 -4.95,-5.20171 -11,-11.23295 l -11,-10.96589 0,11.23294 0,11.23295 11,0 c 6.05,0 11,-0.12017 11,-0.26705 z m 1,-12.73295 0,-11 -11.23295,0 -11.23294,0 10.96589,11 c 6.03124,6.05 11.08607,11 11.23295,11 0.14688,0 0.26705,-4.95 0.26705,-11 z m 0,-65.5 0,-52.5 -53.499999,0 -53.5,0 0,12 0,12 -11.5,0 -11.5000002,0 0,40.5 0,40.5 65.0000002,0 64.999999,0 0,-52.5 z m -68.999999,22.5 0,-13 13,0 13,0 0,13 0,13 -13,0 -13,0 0,-13 z m 23,10.73213 c 0,-0.14732 -4.725,-4.97678 -10.5,-10.73213 l -10.5,-10.46427 0,10.73214 0,10.73213 10.5,0 c 5.775,0 10.5,-0.12054 10.5,-0.26787 z m 1,-11.73213 0,-10 -10.231238,0 -10.231239,0 9.962477,10 c 5.479362,5.5 10.083419,10 10.231238,10 0.147819,0 0.268762,-4.5 0.268762,-10 z m -52,-31.5 0,-9.5 9.5,0 9.5,0 0,9.5 0,9.5 -9.5,0 -9.5,0 0,-9.5 z m 15,7.22111 c 0,-0.15339 -2.925,-3.17789 -6.5,-6.72111 l -6.5,-6.44222 0,6.72111 0,6.72111 6.5,0 c 3.575,0 6.5,-0.1255 6.5,-0.27889 z m 2,-7.72111 0,-7 -7.22318,0 -7.223181,0 6.946361,7 c 3.820499,3.85 7.07093,7 7.22318,7 0.152251,0 0.27682,-3.15 0.27682,-7 z m -30,-20.26876 c 0,-0.14782 -4.5,-4.75188 -10,-10.23124 l -10.0000002,-9.96248 0,10.23124 0,10.23124 10.0000002,0 c 5.5,0 10,-0.12094 10,-0.26876 z m 1,-11.73124 0,-10 -10.231238,0 -10.2312392,0 9.9624772,10 c 5.479362,5.5 10.083419,10 10.231238,10 0.147819,0 0.268762,-4.5 0.268762,-10 z m 152.999999,55.5 0,-67.5 67.5,0 67.5,0 0,67.5 0,67.5 -67.5,0 -67.5,0 0,-67.5 z m 107,53.5 0,-12 -52.5,0 -52.5,0 0,12 0,12 52.5,0 52.5,0 0,-12 z m 25.78201,-0.28201 0.28201,-11.78201 -11.78201,0.28201 -11.78201,0.28201 -0.28201,11.78201 -0.28201,11.78201 11.78201,-0.28201 11.78201,-0.28201 0.28201,-11.78201 z m -12.29906,0.032 -10.98295,-11.25 11.25,10.98295 c 10.44944,10.20139 11.70409,11.51705 10.98295,11.51705 -0.14688,0 -5.20938,-5.0625 -11.25,-11.25 z m -17.48295,-17.25 -3.39233,-3.5 -12.30384,0 -12.30383,0 0,-12.2813 0,-12.28131 -5.779,-5.71869 -5.77899,-5.7187 -12.22101,0 -12.221,0 0,-12.2249 0,-12.22491 -6.72318,-6.77509 -6.72318,-6.7751 -11.77682,0 -11.77682,0 0,40.5 0,40.5 52.19617,0 52.19616,0 -3.39233,-3.5 z m 5,-49 0,-52.5 -41,0 -41,0 0,11.7249 0,11.72491 6.72318,6.77509 6.72318,6.7751 12.27682,0 12.27682,0 0,12.221 0,12.22101 5.7187,5.77899 5.71869,5.779 12.28131,0 12.2813,0 0,12.20784 0,12.20783 3.70295,3.79217 c 2.03662,2.08569 3.83662,3.79216 4,3.79216 0.16338,0 0.29705,-23.625 0.29705,-52.5 z m 25,0 0,-52.5 -11.5,0 -11.5,0 0,52.5 0,52.5 11.5,0 11.5,0 0,-52.5 z m -35.21463,32.71463 0.28538,-10.28538 -10.28538,0.28538 -10.28537,0.28537 -0.28537,10.28537 -0.28538,10.28538 10.28538,-0.28538 10.28537,-0.28537 0.28537,-10.28537 z m -10.80512,0.0354 -9.48025,-9.75 9.75,9.48025 c 5.3625,5.21414 9.75,9.60164 9.75,9.75 0,0.72464 -1.21459,-0.42455 -10.01975,-9.48025 z m -25.19488,-36.03537 0.28538,-10.28538 -10.28538,0.28538 -10.28537,0.28537 -0.28537,10.28537 -0.28538,10.28538 10.28538,-0.28538 10.28537,-0.28537 0.28537,-10.28537 z m -10.80512,0.0354 -9.48025,-9.75 9.75,9.48025 c 5.3625,5.21414 9.75,9.60164 9.75,9.75 0,0.72464 -1.21459,-0.42455 -10.01975,-9.48025 z m -27.19607,-38.53418 0.28418,-10.78418 -10.78418,0.28418 -10.78418,0.28418 -0.28418,10.78418 -0.28418,10.78418 10.78418,-0.28418 10.78418,-0.28418 0.28418,-10.78418 z m -11.30294,0.0342 -9.98124,-10.25 10.25,9.98124 c 5.6375,5.48968 10.25,10.10218 10.25,10.25 0,0.72337 -1.24814,-0.461 -10.51876,-9.98124 z m 164.51876,54.75 0,-67.5 67,0 67,0 0,67.5 0,67.5 -67,0 -67,0 0,-67.5 z m 33,53.5 0,-12 -15.5,0 -15.5,0 0,12 0,12 15.5,0 15.5,0 0,-12 z m 7,-1 0,-13 11.5,0 11.5,0 0,13 0,13 5,0 5,0 0,-13 0,-13 11.5,0 11.5,0 0,13 0,13 5.5,0 5.5,0 0,-13 0,-13 12.5,0 12.5,0 0,-5.5 0,-5.5 -12.5,0 -12.5,0 0,-11.5 0,-11.5 12.5,0 12.5,0 0,-5 0,-5 -12.5,0 -12.5,0 0,-11.5 0,-11.5 12.5,0 12.5,0 0,-2.5 0,-2.5 -12.5,0 -12.5,0 0,-16.5 0,-16.5 -5.5,0 -5.5,0 0,16.5 0,16.5 -11.5,0 -11.5,0 0,-16.5 0,-16.5 -5,0 -5,0 0,16.5 0,16.5 -11.5,0 -11.5,0 0,-16.5 0,-16.5 -2.5,0 -2.5,0 0,16.5 0,16.5 -16.5,0 -16.5,0 0,36 0,36 16.5,0 16.5,0 0,13 0,13 2.5,0 2.5,0 0,-13 z m 33,-35.5 0,-11.5 11.5,0 11.5,0 0,11.5 0,11.5 -11.5,0 -11.5,0 0,-11.5 z m 20.78803,-0.28803 0.28803,-9.28803 -9.28803,0.28803 -9.28803,0.28803 -0.28803,9.28803 -0.28803,9.28803 9.28803,-0.28803 9.28803,-0.28803 0.28803,-9.28803 z m -9.81011,0.038 -8.47792,-8.75 8.75,8.47792 c 4.8125,4.66286 8.75,8.60036 8.75,8.75 0,0.72761 -1.14804,-0.35118 -9.02208,-8.47792 z m -43.97792,-32.74997 0,-11.5 11.5,0 11.5,0 0,11.5 0,11.5 -11.5,0 -11.5,0 0,-11.5 z m 20.78803,-0.28803 0.28803,-9.28803 -9.28803,0.28803 -9.28803,0.28803 -0.28803,9.28803 -0.28803,9.28803 9.28803,-0.28803 9.28803,-0.28803 0.28803,-9.28803 z m -9.81011,0.038 -8.47792,-8.75 8.75,8.47792 c 4.8125,4.66286 8.75,8.60036 8.75,8.75 0,0.72761 -1.14804,-0.35118 -9.02208,-8.47792 z m 22.02208,0.25003 0,-11.5 11.5,0 11.5,0 0,11.5 0,11.5 -11.5,0 -11.5,0 0,-11.5 z m 21,0 0,-9.5 -9.5,0 -9.5,0 0,9.5 0,9.5 9.5,0 9.5,0 0,-9.5 z m -33,69.5 0,-12 -9.5,0 -9.5,0 0,12 0,12 9.5,0 9.5,0 0,-12 z m 33,0 0,-12 -9.5,0 -9.5,0 0,12 0,12 9.5,0 9.5,0 0,-12 z m 26.98369,0.25004 -11.48369,-11.74995 11.25,10.9829 11.25,10.9829 0,-11.2657 0,-11.26569 -11.25,0.28275 -11.25,0.28275 -0.28174,11.75 -0.28173,11.75 11.76542,0 11.76543,0 -11.48369,-11.74996 z m 11.01631,-36.75004 0,-9.5 -11.5,0 -11.5,0 0,9.5 0,9.5 11.5,0 11.5,0 0,-9.5 z m 0,-33 0,-9.5 -11.5,0 -11.5,0 0,9.5 0,9.5 11.5,0 11.5,0 0,-9.5 z m -99.22381,-34.27619 0.27618,-15.27618 -15.27618,0.27618 -15.27619,0.27619 -0.27619,15.27619 -0.27618,15.27618 15.27618,-0.27618 15.27619,-0.27619 0.27619,-15.27619 z m -15.78912,0.0262 -14.48707,-14.75 14.75,14.48707 c 13.70235,13.45808 15.20273,15.01293 14.48707,15.01293 -0.14462,0 -6.78212,-6.6375 -14.75,-14.75 z m 44.01293,0.25 0,-15.5 -9.5,0 -9.5,0 0,15.5 0,15.5 9.5,0 9.5,0 0,-15.5 z m 33,0 0,-15.5 -9.5,0 -9.5,0 0,15.5 0,15.5 9.5,0 9.5,0 0,-15.5 z m 38,0 0,-15.5 -11.5,0 -11.5,0 0,15.5 0,15.5 11.5,0 11.5,0 0,-15.5 z M 3.5178308,34.849323 l 0,-67 67.0000002,0 66.999999,0 0,67 0,66.999997 -66.999999,0 -67.0000002,0 0,-66.999997 z M 107.51783,99.595643 c 0,-0.13952 -22.949999,-23.20036 -50.999999,-51.24632 L 5.5178308,-2.643324 l 0,51.246324 0,51.246323 51.0000002,0 c 28.05,0 50.999999,-0.11415 50.999999,-0.25368 z m 27.78148,-13.21126 0.28148,-12.96494 -51.781477,-51.804454 -51.781482,-51.80445 -13,0.269392 -13.0000002,0.269392 -0.281482,12.964942 -0.281482,12.964942 51.7814822,51.80445 51.781481,51.804446 13,-0.26939 13,-0.26939 0.28148,-12.96494 z m -65.284409,-51.78506 -63.9970702,-64.25 64.2500002,63.99707 c 59.725169,59.49006 64.698729,64.50293 63.997069,64.50293 -0.13911,0 -29.05161,-28.9125 -64.249999,-64.25 z m 65.502929,-13.75 0,-51 -51.246322,0 -51.246324,0 50.992647,51 c 28.045959,28.05 51.106799,51 51.246319,51 0.13953,0 0.25368,-22.95 0.25368,-51 z m 44,14 0,-67 67.5,0 67.5,0 0,67 0,66.999997 -67.5,0 -67.5,0 0,-66.999997 z m 127.40971,63.62531 c -0.29013,-0.75607 -2.34556,-2.19451 -4.56761,-3.19651 -4.24106,-1.91245 -8.8421,-6.98166 -8.8421,-9.74181 0,-1.03291 -0.54609,-1.41467 -1.5,-1.04862 -0.825,0.31659 -1.5,0.11496 -1.5,-0.44805 0,-0.56301 0.52967,-1.20021 1.17705,-1.416 0.64738,-0.2158 0.84582,-0.9283 0.44098,-1.58334 -0.49683,-0.80389 -4.2921,-1.19098 -11.67705,-1.19098 l -10.94098,0 0,-11 0,-11 -5.33932,0 c -4.82876,0 -5.64388,-0.33468 -8.52425,-3.5 -1.75171,-1.925 -2.82423,-3.5 -2.38337,-3.5 0.44087,0 1.98618,1.35 3.43403,3 2.24295,2.55612 3.3473,3 7.46375,3 l 4.8313,0 -20.99107,-21.019776 -20.99107,-21.019776 -0.31597,4.193107 c -0.22288,2.957784 0.13084,4.44315 1.20064,5.04184 2.07118,1.15909 4.61533,3.774231 4.61533,4.744111 0,0.438156 -1.575,-0.688768 -3.5,-2.504277 -3.00727,-2.83622 -3.5,-3.943889 -3.5,-7.868077 l 0,-4.567152 -11,0 -11,0 0,-11.162148 0,-11.162148 -10.98845,-11.087852 -10.98845,-11.087852 -0.0115,5.75 c -0.01,4.770118 0.28668,5.769768 1.73845,5.866001 1.66667,0.110478 1.66667,0.137779 0,0.573325 -1.64169,0.429019 -1.75,4.104239 -1.75,59.383998 l -5e-5,58.926676 62.96862,0 c 53.01011,0 62.88518,-0.21741 62.44109,-1.37469 z m -16.40971,-0.62531 c 0,-0.55 0.45,-1 1,-1 0.55,0 1,0.45 1,1 0,0.55 -0.45,1 -1,1 -0.55,0 -1,-0.45 -1,-1 z m 0.5,-5 c 0.33992,-0.55 0.81648,-1 1.05902,-1 0.24254,0 0.44098,0.45 0.44098,1 0,0.55 -0.47656,1 -1.05902,1 -0.58246,0 -0.7809,-0.45 -0.44098,-1 z m -0.5,-4 c 0,-0.55 0.45,-1 1,-1 0.55,0 1,0.45 1,1 0,0.55 -0.45,1 -1,1 -0.55,0 -1,-0.45 -1,-1 z M 247.3689,47.689891 c -1.62325,-1.737688 -3.43974,-4.100188 -4.03667,-5.25 -0.59692,-1.149812 -0.87606,-1.865568 -0.62031,-1.590568 5.53564,5.952369 8.90913,10 8.33448,10 -0.39938,0 -2.05426,-1.42174 -3.6775,-3.159432 z m -8.41554,-9.590568 c -0.33142,-1.5125 -0.78484,-3.335872 -1.0076,-4.051938 -0.22276,-0.716066 0.0398,-1.027008 0.58352,-0.690983 0.5437,0.336025 0.98855,1.619397 0.98855,2.851938 0,1.232541 0.54,2.780983 1.2,3.440983 0.91182,0.911823 0.9164,1.2 0.0191,1.2 -0.64952,0 -1.4521,-1.2375 -1.78352,-2.75 z m -54.43553,-46.25 c 0,-0.55 0.45,-1 1,-1 0.55,0 1,0.45 1,1 0,0.55 -0.45,1 -1,1 -0.55,0 -1,-0.45 -1,-1 z m 5,-0.05902 c 0,-0.582459 0.45,-0.780902 1,-0.440983 0.55,0.339919 1,0.816476 1,1.059017 0,0.242544 -0.45,0.440986 -1,0.440986 -0.55,0 -1,-0.476558 -1,-1.059017 z m 2.07258,-1.575842 c -1.13992,-1.449172 -2.05497,-3.361672 -2.03344,-4.25 0.0215,-0.888327 0.67481,-0.152641 1.45173,1.634859 0.77692,1.7875 2.10931,3.25 2.96086,3.25 0.85155,0 1.54827,0.45 1.54827,1 0,1.804688 -1.81674,1.048438 -3.92742,-1.634859 z m -4.57258,-7.365138 c -1.63041,-0.70061 -1.68751,-0.872418 -0.30902,-0.929715 0.93004,-0.03866 1.9691,0.379715 2.30902,0.929715 0.71066,1.149879 0.67591,1.149879 -2,0 z m 125.25729,51.736388 0.2573,-64.736388 -64.75439,0 -64.75439,0 64.4971,64.741011 c 35.4734,35.607559 60.30726,60.695059 55.18635,55.749999 -8.19798,-7.91645 -9.22482,-8.63247 -8.59182,-5.99101 1.15097,4.80284 3.38708,7.45846 8.43342,10.01564 2.59576,1.31537 4.99935,3.12071 5.34133,4.01188 0.34197,0.89116 1.41062,1.46841 2.37479,1.28277 1.64599,-0.31691 1.76873,-4.29006 2.01031,-65.073902 z m -21.75729,43.994852 c 0,-0.14782 -4.5,-4.75188 -10,-10.23124 l -10,-9.96248 0,10.23124 0,10.23124 10,0 c 5.5,0 10,-0.12094 10,-0.26876 z m -66,-66.000002 c 0,-0.147819 -4.5,-4.751876 -10,-10.231238 l -10,-9.962477 0,10.231239 0,10.231238 10,0 c 5.5,0 10,-0.120943 10,-0.268762 z m 132,22.268762 0,-67 67,0 67,0 0,67 0,66.999997 -67,0 -67,0 0,-66.999997 z m 99,58 0,-7 -16.5,0 -16.5,0 0,-8.5 0,-8.5 -7,0 -7,0 0,-16.5 0,-16.5 -11,0 -11,0 0,-7.5 0,-7.5 -14,0 -14,0 0,39.5 0,39.5 48.5,0 48.5,0 0,-7 z m 18,0 0,-7 -8,0 -8,0 0,7 0,7 8,0 8,0 0,-7 z m 14,6.7187 c 0,-0.15472 -2.7,-2.95313 -6,-6.2187 l -6,-5.93739 0,6.21869 0,6.2187 6,0 c 3.3,0 6,-0.12659 6,-0.2813 z m 1,-7.7187 0,-6 -6.2187,0 -6.21869,0 5.93739,6 c 3.26557,3.3 6.06398,6 6.2187,6 0.15471,0 0.2813,-2.7 0.2813,-6 z m -33,-15.5 0,-7.5 -15.5,0 -15.5,0 0,7.5 0,7.5 15.5,0 15.5,0 0,-7.5 z m 16,7.22318 c 0,-0.15225 -3.15,-3.40268 -7,-7.22318 l -7,-6.94636 0,7.22318 0,7.22318 7,0 c 3.85,0 7,-0.12457 7,-0.27682 z m 17,-7.22318 0,-7.5 -6.5,0 -6.5,0 0,7.5 0,7.5 6.5,0 6.5,0 0,-7.5 z m -15,-0.5 0,-7 -7.22318,0 -7.22318,0 6.94636,7 c 3.8205,3.85 7.07093,7 7.22318,7 0.15225,0 0.27682,-3.15 0.27682,-7 z m -51,-24.5 0,-15.5 -6,0 -6,0 0,15.5 0,15.5 6,0 6,0 0,-15.5 z m 32,15.2375 c 0,-0.14438 -6.75,-7.00125 -15,-15.2375 l -15,-14.974993 0,15.237493 0,15.2375 15,0 c 8.25,0 15,-0.11813 15,-0.2625 z m 19,-15.7375 0,-16 -8,0 -8,0 0,16 0,16 8,0 8,0 0,-16 z m 15,-32.5 0,-48.5 -39,0 -39,0 0,14 0,14 7,0 7,0 0,10.5 0,10.5 16.5,0 16.5,0 0,7 0,7 9,0 9,0 0,17 0,17 6.5,0 6.5,0 0,-48.5 z m -33,31.5 0,-15 -15.2375,0 -15.23749,0 14.97499,15 c 8.23625,8.25 15.09312,15 15.2375,15 0.14437,0 0.2625,-6.75 0.2625,-15 z m -47,-22.5 0,-6.5 -10,0 -10,0 0,6.5 0,6.5 10,0 10,0 0,-6.5 z m 13,6.21584 c 0,-0.156288 -2.475,-2.728416 -5.5,-5.71584 l -5.5,-5.43168 0,5.71584 0,5.71584 5.5,0 c 3.025,0 5.5,-0.127872 5.5,-0.28416 z m 34,-6.71584 0,-6 -15.5,0 -15.5,0 0,6 0,6 15.5,0 15.5,0 0,-6 z m -33,-0.5 0,-5.5 -5.71584,0 -5.71584,0 5.43168,5.5 c 2.98742,3.025 5.55955,5.5 5.71584,5.5 0.15629,0 0.28416,-2.475 0.28416,-5.5 z m -36,-17 0,-9.5 -14,0 -14,0 0,9.5 0,9.5 14,0 14,0 0,-9.5 z m 20,9.229151 c 0,-0.148967 -4.05,-4.302085 -9,-9.229151 l -9,-8.958301 0,9.22915 0,9.229151 9,0 c 4.95,0 9,-0.121882 9,-0.270849 z m 16,-9.229151 0,-9.5 -6,0 -6,0 0,9.5 0,9.5 6,0 6,0 0,-9.5 z m -14,-0.5 0,-9 -9.22915,0 -9.22915,0 8.9583,9 c 4.92707,4.95 9.08018,9 9.22915,9 0.14897,0 0.27085,-4.05 0.27085,-9 z m -23,-11.263894 c 0,-0.145141 -6.075,-6.326389 -13.5,-13.736106 l -13.5,-13.472213 0,13.736107 0,13.736106 13.5,0 c 7.425,0 13.5,-0.118752 13.5,-0.263894 z m 23,-13.736106 0,-14 -10,0 -10,0 0,14 0,14 10,0 10,0 0,-14 z m -22,-1 0,-13 -13.23557,0 -13.23557,0 12.97114,13 c 7.13413,7.15 13.09014,13 13.23557,13 0.14544,0 0.26443,-5.85 0.26443,-13 z"
         id="path4207"
         inkscape:connector-curvature="0" />
    </g>
    <text
       xml:space="preserve"
       style="font-style:normal;font-weight:normal;font-size:40px;line-height:125%;font-family:sans-serif;letter-spacing:0px;word-spacing:0px;fill:#000000;fill-opacity:1;stroke:none;stroke-width:1px;stroke-linecap:butt;stroke-linejoin:miter;stroke-opacity:1"
       x="159.6041"
       y="-298.71683"
       id="text4213"
       sodipodi:linespacing="125%"><tspan
         sodipodi:role="line"
         id="tspan4215"
         x="159.6041"
         y="-298.71683"
         style="font-style:normal;font-variant:normal;font-weight:normal;font-stretch:normal;font-size:12.5px;font-family:Lato;-inkscape-font-specification:Lato">Zeros</tspan></text>
    <text
       xml:space="preserve"
       style="font-style:normal;font-weight:normal;font-size:40px;line-height:125%;font-family:sans-serif;letter-spacing:0px;word-spacing:0px;fill:#000000;fill-opacity:1;stroke:none;stroke-width:1px;stroke-linecap:butt;stroke-linejoin:miter;stroke-opacity:1"
       x="233.77682"
       y="-358.93848"
       id="text4213-6"
       sodipodi:linespacing="125%"><tspan
         sodipodi:role="line"
         id="tspan4215-0"
         x="233.77682"
         y="-358.93848"
         style="font-style:normal;font-variant:normal;font-weight:normal;font-stretch:normal;font-size:12.5px;font-family:Lato;-inkscape-font-specification:Lato">Zeros</tspan></text>
    <text
       xml:space="preserve"
       style="font-style:normal;font-weight:normal;font-size:40px;line-height:125%;font-family:sans-serif;letter-spacing:0px;word-spacing:0px;fill:#000000;fill-opacity:1;stroke:none;stroke-width:1px;stroke-linecap:butt;stroke-linejoin:miter;stroke-opacity:1"
       x="342.36823"
       y="-301.35977"
       id="text4213-64"
       sodipodi:linespacing="125%"><tspan
         sodipodi:role="line"
         id="tspan4215-9"
         x="342.36823"
         y="-301.35977"
         style="font-style:normal;font-variant:normal;font-weight:normal;font-stretch:normal;font-size:12.5px;font-family:Lato;-inkscape-font-specification:Lato">Zeros</tspan></text>
  </g>
</svg>
